SplineFontDB: 3.0
FontName: Coval-BlackItalic
FullName: Coval Black Italic
FamilyName: Coval
Weight: Black
Copyright: Copyright \\(c\\) 2015 by Context Ltd. All rights reserved.
Version: 001.001
ItalicAngle: -12
UnderlinePosition: -125
UnderlineWidth: 50
Ascent: 800
Descent: 200
InvalidEm: 0
sfntRevision: 0x00010000
LayerCount: 2
Layer: 0 0 "Back" 1
Layer: 1 0 "Fore" 0
XUID: [1021 1017 285194369 19732]
StyleMap: 0x0021
FSType: 0
OS2Version: 3
OS2_WeightWidthSlopeOnly: 0
OS2_UseTypoMetrics: 0
CreationTime: 1426742221
ModificationTime: 1514906839
PfmFamily: 17
TTFWeight: 1000
TTFWidth: 5
LineGap: 23
VLineGap: 0
Panose: 2 0 9 3 6 0 0 9 0 3
OS2TypoAscent: 686
OS2TypoAOffset: 0
OS2TypoDescent: -160
OS2TypoDOffset: 0
OS2TypoLinegap: 46
OS2WinAscent: 937
OS2WinAOffset: 0
OS2WinDescent: 329
OS2WinDOffset: 0
HheadAscent: 937
HheadAOffset: 0
HheadDescent: -329
HheadDOffset: 0
OS2SubXSize: 650
OS2SubYSize: 600
OS2SubXOff: 0
OS2SubYOff: 75
OS2SupXSize: 650
OS2SupYSize: 600
OS2SupXOff: 0
OS2SupYOff: 350
OS2StrikeYSize: 50
OS2StrikeYPos: 250
OS2CapHeight: 695
OS2XHeight: 472
OS2Vendor: 'CNTX'
OS2CodePages: 2000011f.00000000
OS2UnicodeRanges: e10002ff.5201e9eb.00000004.00000000
Lookup: 1 0 0 "'aalt' Access All Alternates lookup 0" { "'aalt' Access All Alternates lookup 0 subtable"  } ['aalt' ('cyrl' <'BGR ' 'MKD ' 'RUS ' 'SRB ' 'dflt' > 'grek' <'dflt' > 'latn' <'AZE ' 'NLD ' 'TRK ' 'VIT ' 'dflt' > 'thai' <'dflt' > ) ]
Lookup: 3 0 0 "'aalt' Access All Alternates lookup 1" { "'aalt' Access All Alternates lookup 1 subtable"  } ['aalt' ('cyrl' <'BGR ' 'MKD ' 'RUS ' 'SRB ' 'dflt' > 'grek' <'dflt' > 'latn' <'AZE ' 'NLD ' 'TRK ' 'VIT ' 'dflt' > 'thai' <'dflt' > ) ]
Lookup: 1 0 0 "'locl' Localized Forms in Greek lookup 2" { "'locl' Localized Forms in Greek lookup 2 subtable"  } ['locl' ('grek' <'dflt' > ) ]
Lookup: 1 0 0 "'locl' Localized Forms in Cyrillic lookup 3" { "'locl' Localized Forms in Cyrillic lookup 3 subtable"  } ['locl' ('cyrl' <'MKD ' 'SRB ' 'dflt' > ) ]

StartChar: .notdef
Encoding: 256 -1 0
Width: 760
Flags: MW
HStem: 10 77<150 640 150 746> 685 78<288 288 288 778>
VStem: 7 913<10 763>
LayerCount: 2
Fore
SplineSet
7 10 m 1
 181 763 l 1
 920 763 l 1
 746 10 l 1
 7 10 l 1
116 142 m 1
 417 387 l 1
 350 472 296 545 229 632 c 1
 116 142 l 1
150 87 m 1
 640 87 l 1
 452 332 l 1
 347 247 257 176 150 87 c 1
288 685 m 1
 477 440 l 1
 778 685 l 1
 288 685 l 1
510 387 m 1
 699 142 l 1
 812 632 l 1
 710 548 614 469 510 387 c 1
EndSplineSet
EndChar

StartChar: exclam
Encoding: 33 33 2
Width: 367
Flags: MW
HStem: 0 147<107 287 141 253> 675 20G<267 413 413 413>
VStem: 107 306
LayerCount: 2
Fore
SplineSet
267 695 m 1
 413 695 l 1
 290 211 l 1
 168 211 l 1
 267 695 l 1
107 0 m 1
 141 147 l 1
 287 147 l 1
 253 0 l 1
 107 0 l 1
EndSplineSet
EndChar

StartChar: quotedbl
Encoding: 34 34 3
Width: 550
Flags: MW
HStem: 386 309<264 314 226 418 404 418 442 492 404 404> 675 20G<264 418 418 418 442 596 596 596>
VStem: 226 370<386 695>
LayerCount: 2
Fore
SplineSet
442 695 m 1x60
 596 695 l 1
 492 386 l 1
 404 386 l 1xa0
 442 695 l 1x60
264 695 m 1
 418 695 l 1
 314 386 l 1
 226 386 l 1
 264 695 l 1
EndSplineSet
EndChar

StartChar: numbersign
Encoding: 35 35 4
Width: 917
Flags: MW
HStem: -161 21G<168 193.5 400 423> 106 89<129.5 311 163 164 164 263 163 358 405 494 637 808> 336 91<180.5 435 217 387 217 481 530 619 761 867> 674 20G<600.5 623 833.5 855>
VStem: 89 849
LayerCount: 2
Fore
SplineSet
139 106 m 0
 120 106 106 108 98 115 c 0
 90 122 87 133 91 151 c 0
 100 194 135 195 163 195 c 2
 311 195 l 1
 387 336 l 1
 193 336 l 2
 168 336 148 341 143 359 c 0
 132 426 202 427 217 427 c 2
 435 427 l 1
 493 539 l 2
 525 601 545 639 560 661 c 0
 577 686 590 694 611 694 c 0
 635 694 651 671 645 650 c 0
 645 637 578 517 530 427 c 1
 666 427 l 1
 729 546 l 2
 759 603 779 640 796 663 c 0
 807 679 824 694 843 694 c 0
 867 694 883 671 877 650 c 0
 877 639 837 570 800 500 c 2
 761 427 l 1
 888 427 l 2
 909 427 928 423 934 405 c 0
 956 340 872 336 867 336 c 2
 713 336 l 1
 637 195 l 1
 831 195 l 2
 854 195 877 192 882 173 c 0
 893 110 830 106 808 106 c 2
 589 106 l 1
 527 -13 l 2
 496 -72 476 -109 460 -131 c 0
 450 -146 432 -161 414 -161 c 0
 386 -161 373 -137 379 -117 c 2
 436 -5 l 2
 443 7 449 20 455 32 c 2
 494 106 l 1
 358 106 l 1
 299 -7 l 2
 267 -68 247 -105 232 -128 c 0
 216 -152 205 -161 182 -161 c 0
 154 -161 142 -139 148 -117 c 2
 153 -103 l 2
 159 -89 174 -63 205 -5 c 2
 263 106 l 1
 164 106 l 2
 156 106 147 106 139 106 c 0
405 195 m 1
 543 195 l 1
 619 336 l 1
 481 336 l 1
 405 195 l 1
EndSplineSet
EndChar

StartChar: dollar
Encoding: 36 36 5
Width: 550
Flags: MW
HStem: -9 21G<223 223> 585 163<450 450> 684 20G<478 478>
VStem: 54 565 161 143<409 506.5>
LayerCount: 2
Fore
SplineSet
54 61 m 1xb0
 106 190 l 1
 152 148 177 122 250 110 c 1
 291 288 l 1
 198 313 161 375 161 443 c 0
 161 462 163 480 167 498 c 0xc8
 205 658 312 694 387 703 c 1
 398 748 l 1
 488 748 l 1xd0
 478 704 l 1
 535 699 575 678 619 645 c 1xb0
 571 525 l 1
 554 535 l 1
 530 554 504 578 450 585 c 1xd0
 415 434 l 1
 517 405 550 320 541 236 c 0
 527 107 446 5 313 -8 c 1
 303 -54 l 1
 213 -54 l 1
 223 -9 l 1
 198 -7 130 3 54 61 c 1xb0
306 520 m 0
 305 514 304 509 304 504 c 0
 304 485 319 466 331 458 c 1
 341 500 347 535 358 581 c 1
 340 574 315 555 306 520 c 0
342 115 m 2
 346 116 350 119 354 121 c 0
 371 132 390 152 398 188 c 0
 406 227 393 248 375 262 c 1
 342 115 l 2
EndSplineSet
EndChar

StartChar: percent
Encoding: 37 37 6
Width: 1029
Flags: MW
HStem: -54 90<755.5 805> 266 91<808 841> 337 91<316 367 316 388.5> 658 90<364 404.5>
VStem: 171 134 429 133 610 133 869 132
LayerCount: 2
Fore
SplineSet
181 543 m 0xbf
 184 556 188 569 192 582 c 0
 222 672 285 748 416 748 c 0
 568 748 575 639 552 541 c 0
 526 426 458 337 319 337 c 0
 207 337 146 398 181 543 c 0xbf
312 521 m 0
 304 479 292 428 340 428 c 0
 394 428 412 507 421 543 c 0
 427 571 432 600 429 622 c 0
 426 644 416 658 393 658 c 0
 335 658 323 574 312 521 c 0
192 -4 m 0
 196 12 209 26 217 36 c 1
 217 36 217 36 217 36 c 1
 217 36 217 36 217 36 c 1
 891 720 l 1
 891 720 890 719 890 719 c 2xdf
 897 727 918 748 945 748 c 0xbf
 975 748 989 723 983 698 c 0
 980 686 969 672 960 662 c 2xdf
 282 -27 l 2
 278 -32 258 -53 230 -53 c 0
 202 -53 186 -32 192 -4 c 0
620 153 m 0
 624 171 629 188 635 204 c 0
 676 312 754 357 855 357 c 0
 999 357 1013 259 995 167 c 1
 971 69 926 -54 759 -54 c 0
 647 -54 585 5 620 153 c 0
761 167 m 0
 759 157 755 146 752 133 c 0
 741 89 732 36 779 36 c 0
 831 36 853 116 860 152 c 0
 868 187 874 223 865 245 c 0
 860 258 850 266 832 266 c 0
 784 266 768 208 761 167 c 0
EndSplineSet
EndChar

StartChar: ampersand
Encoding: 38 38 7
Width: 831
Flags: MW
HStem: -22 117<637.5 647.5> -21 116<256.5 265> 626 90<464.5 489.5>
VStem: 72 158 255 135 510 132
LayerCount: 2
Fore
SplineSet
76 154 m 0xac
 86 197 109 229 138 256 c 1
 138 256 138 256 138 256 c 1
 172 288 217 311 260 336 c 1
 254 377 251 428 264 485 c 0
 292 606 389 716 499 716 c 0
 593 716 659 639 638 547 c 0
 620 467 514 396 411 333 c 1
 421 308 430 287 443 265 c 2
 460 237 l 2
 476 213 492 191 501 182 c 1
 537 208 632 285 718 454 c 1
 827 422 l 1
 799 364 763 307 719 251 c 0
 680 202 631 151 580 112 c 1
 600 102 622 95 653 95 c 0
 700 95 746 107 790 121 c 1
 761 -3 l 1
 714 -15 668 -22 627 -22 c 0xac
 534 -22 479 14 457 27 c 1
 457 27 458 27 458 27 c 2
 456 28 454 29 452 30 c 0
 376 -7 289 -21 241 -21 c 0x7c
 122 -21 54 58 76 154 c 0xac
233 179 m 0
 232 175 231 170 230 165 c 0
 224 127 230 95 283 95 c 0
 313 97 343 104 367 111 c 1
 333 152 307 190 281 255 c 1
 276 251 272 247 267 243 c 2
 260 236 l 2
 249 222 238 201 233 179 c 0
398 540 m 0
 396 532 394 525 393 517 c 0xbc
 387 478 387 442 390 416 c 1
 439 446 516 497 510 586 c 0xac
 507 607 502 626 477 626 c 0
 452 626 411 601 398 540 c 0
EndSplineSet
EndChar

StartChar: quotesingle
Encoding: 39 39 8
Width: 306
Flags: MW
HStem: 386 309<232 283 194 387> 675 20G<232 387 387 387>
VStem: 194 193
LayerCount: 2
Fore
SplineSet
232 695 m 1x60
 387 695 l 1
 283 386 l 1
 194 386 l 1xa0
 232 695 l 1x60
EndSplineSet
EndChar

StartChar: parenleft
Encoding: 40 40 9
Width: 428
Flags: MW
HStem: -217 965<234 551 234 551>
VStem: 116 141
LayerCount: 2
Fore
SplineSet
137 265 m 0
 142 287 148 308 154 329 c 0
 205 497 303 645 457 748 c 1
 551 748 l 1
 533 730 512 709 489 684 c 0
 418 600 339 485 290 266 c 0
 202 -114 316 -194 323 -217 c 1
 234 -217 l 1
 115 -99 94 77 137 265 c 0
EndSplineSet
EndChar

StartChar: parenright
Encoding: 41 41 10
Width: 428
Flags: MW
HStem: 718 30<230 230>
VStem: 283 142
LayerCount: 2
Fore
SplineSet
11 -217 m 1
 7 -201 l 1
 21 -188 36 -174 52 -156 c 0
 115 -85 196 26 252 266 c 0
 321 564 255 677 230 718 c 1
 230 718 230 717 230 717 c 1
 225 727 221 738 216 748 c 1
 309 748 l 1
 427 632 448 456 404 265 c 0
 360 75 258 -100 86 -217 c 1
 11 -217 l 1
EndSplineSet
EndChar

StartChar: asterisk
Encoding: 42 42 11
Width: 550
Flags: MW
HStem: 270 478<317.5 457.5>
VStem: 366 71<571 571>
LayerCount: 2
Fore
SplineSet
204 359 m 1
 168 359 150 392 157 424 c 1
 157 424 157 424 157 424 c 1
 157 424 157 424 157 424 c 1
 163 442 l 2
 172 464 208 476 286 498 c 2
 318 508 l 1
 262 528 l 2
 215 545 197 554 194 573 c 0
 193 579 194 586 196 595 c 0
 201 620 222 642 244 654 c 0
 253 659 263 661 273 661 c 0
 305 661 313 633 366 571 c 1
 366 690 373 748 443 748 c 0
 472 748 498 728 491 696 c 0
 487 677 456 614 437 571 c 1
 542 657 552 661 573 661 c 0
 579 661 584 660 589 658 c 0
 610 652 620 631 620 611 c 0
 620 555 589 550 487 517 c 2
 457 508 l 1
 518 489 l 2
 576 467 588 462 579 424 c 0
 574 400 554 378 532 366 c 0
 523 361 513 359 503 359 c 0
 474 359 469 379 409 447 c 1
 405 273 396 270 332 270 c 0
 303 270 278 291 285 323 c 0
 287 333 294 349 307 375 c 2
 338 447 l 1
 230 360 222 359 204 359 c 1
 204 359 204 359 204 359 c 1
 204 359 204 359 204 359 c 1
EndSplineSet
EndChar

StartChar: plus
Encoding: 43 43 12
Width: 672
Flags: MW
HStem: -11 21G<315 344.5> 221 90<149 170 170 170 170 337 447 611>
VStem: 113 555 645 22
LayerCount: 2
Fore
SplineSet
114 266 m 0xe0
 119 289 147 311 170 311 c 1xe0
 170 311 170 311 170 311 c 1
 358 311 l 1
 403 505 l 1
 414 527 436 543 455 543 c 0
 478 543 496 525 490 500 c 2
 447 311 l 1
 623 311 l 2
 630 311 637 311 645 308 c 1
 645 308 645 309 645 309 c 1
 664 303 672 287 667 266 c 0
 661 241 637 221 611 221 c 2xd0
 426 221 l 1
 387 50 l 2
 378 15 362 -11 327 -11 c 0
 303 -11 288 11 293 34 c 2
 296 43 l 2
 298 50 299 58 301 65 c 2
 337 221 l 1
 166 221 l 2
 132 221 106 232 114 266 c 0xe0
EndSplineSet
EndChar

StartChar: comma
Encoding: 44 44 13
Width: 306
Flags: MW
HStem: 0 147<76 257 110 111>
VStem: 47 210
LayerCount: 2
Fore
SplineSet
76 0 m 1
 110 147 l 1
 257 147 l 1
 240 71 l 1
 240 71 240 71 240 71 c 1
 228 21 l 2
 221 -3 210 -9 131 -108 c 1
 47 -108 l 1
 111 0 l 1
 76 0 l 1
EndSplineSet
EndChar

StartChar: hyphen
Encoding: 45 45 14
Width: 367
Flags: MW
HStem: 194 91<49 374 70 353>
VStem: 49 325<194 285>
LayerCount: 2
Fore
SplineSet
49 194 m 1
 70 285 l 1
 374 285 l 1
 353 194 l 1
 49 194 l 1
EndSplineSet
EndChar

StartChar: period
Encoding: 46 46 15
Width: 306
Flags: MW
HStem: 0 147<76 257 110 223>
VStem: 76 181<0 147>
LayerCount: 2
Fore
SplineSet
76 0 m 1
 110 147 l 1
 257 147 l 1
 223 0 l 1
 76 0 l 1
EndSplineSet
EndChar

StartChar: slash
Encoding: 47 47 16
Width: 550
Flags: MW
HStem: -216 964<37.5 626.5>
VStem: 13 638
LayerCount: 2
Fore
SplineSet
14 -171 m 0
 17 -159 26 -149 28 -141 c 1
 28 -141 28 -141 28 -141 c 1
 558 705 l 1
 558 705 558 705 558 705 c 1
 568 721 584 748 615 748 c 0
 638 748 656 731 650 704 c 0
 648 695 641 683 636 676 c 2
 113 -162 l 2
 103 -182 78 -216 48 -216 c 0
 27 -216 8 -198 14 -171 c 0
EndSplineSet
EndChar

StartChar: zero
Encoding: 48 48 17
Width: 550
Flags: MW
HStem: -21 89<280 289 280 375.5> 626 90<411 453.5>
VStem: 86 147 470 142
LayerCount: 2
Fore
SplineSet
114 344 m 2
 123 381 l 2
 126 394 129 406 133 419 c 0
 179 590 262 716 435 716 c 0
 605 716 622 578 608 465 c 0
 604 427 596 393 589 362 c 2
 581 327 l 2
 544 171 487 -21 264 -21 c 0
 41 -21 76 181 114 344 c 2
278 390 m 2
 255 289 236 215 233 166 c 0
 228 116 236 92 258 77 c 1
 258 77 257 77 257 77 c 1
 265 72 274 68 286 68 c 0
 292 68 297 69 302 70 c 0
 369 83 396 191 433 345 c 2
 444 392 l 2
 475 528 492 626 415 626 c 0
 407 626 401 625 394 623 c 0
 334 605 307 514 285 421 c 2
 278 390 l 2
EndSplineSet
Substitution2: "'onum' Oldstyle Figures in Latin lookup 19 subtable" uniF730
Substitution2: "'onum' Oldstyle Figures in Cyrillic lookup 18 subtable" uniF730
Substitution2: "'onum' Oldstyle Figures in Greek lookup 17 subtable" uniF730
Substitution2: "'aalt' Access All Alternates lookup 0 subtable" uniF730
EndChar

StartChar: one
Encoding: 49 49 18
Width: 550
Flags: MW
HStem: 0 90<104 226 380 473 83 226> 559 90<218 221.5> 696 20G<476 524 524 524>
VStem: 83 441
LayerCount: 2
Fore
SplineSet
197 559 m 1
 218 649 l 1
 335 649 412 671 476 716 c 1
 524 716 l 1
 380 90 l 1
 494 90 l 1
 473 0 l 1
 83 0 l 1
 104 90 l 1
 226 90 l 1
 337 570 l 1
 294 562 246 559 197 559 c 1
EndSplineSet
Substitution2: "'onum' Oldstyle Figures in Latin lookup 19 subtable" uniF731
Substitution2: "'onum' Oldstyle Figures in Cyrillic lookup 18 subtable" uniF731
Substitution2: "'onum' Oldstyle Figures in Greek lookup 17 subtable" uniF731
Substitution2: "'aalt' Access All Alternates lookup 0 subtable" uniF731
EndChar

StartChar: two
Encoding: 50 50 19
Width: 550
Flags: MW
HStem: 0 122<203 257 203 494> 600 116<371 410>
VStem: 452 160
LayerCount: 2
Fore
SplineSet
171 571 m 0
 177 581 184 591 192 601 c 0
 238 661 308 716 420 716 c 0
 573 716 632 603 606 483 c 0
 582 375 495 332 342 224 c 1
 342 224 342 225 342 225 c 1
 296 191 249 156 203 122 c 1
 311 122 416 124 523 124 c 1
 494 0 l 1
 47 0 l 1
 73 111 l 1
 141 166 207 229 279 279 c 1
 279 279 278 278 278 278 c 1
 334 322 427 393 448 481 c 0
 462 540 442 600 378 600 c 0
 364 600 351 597 339 592 c 0
 291 572 253 516 225 461 c 1
 211 487 165 547 171 571 c 0
EndSplineSet
Substitution2: "'onum' Oldstyle Figures in Latin lookup 19 subtable" uniF732
Substitution2: "'onum' Oldstyle Figures in Cyrillic lookup 18 subtable" uniF732
Substitution2: "'onum' Oldstyle Figures in Greek lookup 17 subtable" uniF732
Substitution2: "'aalt' Access All Alternates lookup 0 subtable" uniF732
EndChar

StartChar: three
Encoding: 51 51 20
Width: 550
Flags: MW
HStem: -21 111<238 320 238 349.5> 329 92<305 328 248 331> 610 106<378 424>
VStem: 396 161 446 154
LayerCount: 2
Fore
SplineSet
51 62 m 1xf0
 97 175 l 1
 145 124 201 90 275 90 c 0
 365 90 378 166 390 220 c 0
 415 328 358 329 328 329 c 2xf0
 248 329 l 1
 269 419 l 1
 305 421 l 2
 357 421 421 450 442 541 c 0
 450 577 450 610 398 610 c 0
 312 610 247 535 234 520 c 1
 191 612 l 1
 254 672 331 716 425 716 c 0
 590 716 609 630 600 560 c 0xe8
 587 458 516 407 468 380 c 1
 512 364 578 326 550 207 c 0
 524 91 445 -21 254 -21 c 0
 175 -21 101 5 51 62 c 1xf0
EndSplineSet
Substitution2: "'onum' Oldstyle Figures in Latin lookup 19 subtable" uniF733
Substitution2: "'onum' Oldstyle Figures in Cyrillic lookup 18 subtable" uniF733
Substitution2: "'onum' Oldstyle Figures in Greek lookup 17 subtable" uniF733
Substitution2: "'aalt' Access All Alternates lookup 0 subtable" uniF733
EndChar

StartChar: four
Encoding: 52 52 21
Width: 550
Flags: MW
HStem: 0 21G<290 430 290 290> 148 111<211 324 211 464 490 551> 675 20G<423 590 590 590>
VStem: 57 533
LayerCount: 2
Fore
SplineSet
57 148 m 1
 81 253 l 1
 423 695 l 1
 590 695 l 1
 490 259 l 1
 577 259 l 1
 551 148 l 1
 464 148 l 1
 430 0 l 1
 290 0 l 1
 324 148 l 1
 57 148 l 1
211 259 m 1
 354 259 l 1
 417 534 l 1
 369 463 281 350 232 287 c 2
 211 259 l 1
EndSplineSet
Substitution2: "'onum' Oldstyle Figures in Latin lookup 19 subtable" uniF734
Substitution2: "'onum' Oldstyle Figures in Cyrillic lookup 18 subtable" uniF734
Substitution2: "'onum' Oldstyle Figures in Greek lookup 17 subtable" uniF734
Substitution2: "'aalt' Access All Alternates lookup 0 subtable" uniF734
EndChar

StartChar: five
Encoding: 53 53 22
Width: 550
Flags: MW
HStem: -21 110<238 299.5> 368 91<375 382> 577 118<353 591 353 353>
VStem: 399 157
LayerCount: 2
Fore
SplineSet
48 89 m 1
 135 194 l 1
 137 186 140 179 142 171 c 1
 142 171 143 172 143 172 c 1
 145 165 149 158 151 151 c 2
 151 151 150 152 150 152 c 1
 173 109 216 89 260 89 c 0
 345 89 365 149 382 224 c 0
 387 246 392 269 396 290 c 0
 403 333 401 368 363 368 c 0
 290 368 256 281 258 288 c 1
 140 288 l 1
 234 695 l 1
 618 695 l 1
 591 577 l 1
 353 577 l 1
 323 447 l 1
 340 453 361 459 389 459 c 0
 518 459 583 391 545 223 c 0
 499 26 361 -21 238 -21 c 0
 111 -21 63 58 48 89 c 1
EndSplineSet
Substitution2: "'onum' Oldstyle Figures in Latin lookup 19 subtable" uniF735
Substitution2: "'onum' Oldstyle Figures in Cyrillic lookup 18 subtable" uniF735
Substitution2: "'onum' Oldstyle Figures in Greek lookup 17 subtable" uniF735
Substitution2: "'aalt' Access All Alternates lookup 0 subtable" uniF735
EndChar

StartChar: six
Encoding: 54 54 23
Width: 550
Flags: MW
HStem: -21 110<277 304.5> 408 91<338 492> 610 106<424.5 491> 672 20G<593 593>
VStem: 92 147<153 160.5 153 201> 424 150
LayerCount: 2
Fore
SplineSet
117 342 m 0xec
 122 362 127 382 132 400 c 0
 212 675 355 716 494 716 c 0xec
 532 716 556 710 593 692 c 1xdc
 567 581 l 1
 534 600 509 610 473 610 c 0
 355 610 326 537 295 431 c 1
 332 468 371 499 431 499 c 0
 553 499 578 421 574 344 c 0
 572 311 566 279 560 253 c 0
 500 2 341 -21 268 -21 c 0
 128 -21 92 70 92 170 c 0
 92 232 107 296 117 342 c 0xec
254 256 m 2
 248 229 l 2
 246 220 244 211 243 202 c 0
 240 185 239 168 239 153 c 0
 241 115 257 89 297 89 c 0
 398 89 414 282 422 328 c 0
 424 343 426 357 424 369 c 0
 420 393 404 408 372 408 c 0
 304 408 270 326 254 256 c 2
EndSplineSet
Substitution2: "'onum' Oldstyle Figures in Latin lookup 19 subtable" uniF736
Substitution2: "'onum' Oldstyle Figures in Cyrillic lookup 18 subtable" uniF736
Substitution2: "'onum' Oldstyle Figures in Greek lookup 17 subtable" uniF736
Substitution2: "'aalt' Access All Alternates lookup 0 subtable" uniF736
EndChar

StartChar: seven
Encoding: 55 55 24
Width: 550
Flags: MW
HStem: -11 21G<129 287 129 129> 571 124<464 522>
VStem: 129 533
LayerCount: 2
Fore
SplineSet
170 570 m 1
 198 695 l 1
 662 695 l 1
 637 583 l 1
 456 414 335 198 287 -11 c 1
 129 -11 l 1
 179 206 319 422 522 571 c 1
 406 571 285 570 170 570 c 1
EndSplineSet
Substitution2: "'onum' Oldstyle Figures in Latin lookup 19 subtable" uniF737
Substitution2: "'onum' Oldstyle Figures in Cyrillic lookup 18 subtable" uniF737
Substitution2: "'onum' Oldstyle Figures in Greek lookup 17 subtable" uniF737
Substitution2: "'aalt' Access All Alternates lookup 0 subtable" uniF737
EndChar

StartChar: eight
Encoding: 56 56 25
Width: 550
Flags: MW
HStem: -21 111<260.5 335 260.5 359> 329 90<341 361> 610 106<368 426.5>
VStem: 76 157 167 142 406 150 470 144
LayerCount: 2
Fore
SplineSet
85 205 m 0xf2
 88 218 91 231 96 243 c 0
 119 305 161 350 226 375 c 1
 194 391 150 429 172 518 c 0
 200 620 260 716 436 716 c 0xea
 609 716 629 618 607 517 c 0
 587 432 526 392 486 375 c 1
 553 344 567 282 549 205 c 0xf4
 517 89 453 -21 265 -21 c 0
 83 -21 59 89 85 205 c 0xf2
238 194 m 0
 236 185 234 177 233 168 c 0
 226 124 231 90 290 90 c 0
 380 90 387 169 398 217 c 0
 406 253 411 285 400 305 c 0
 392 320 376 329 346 329 c 0xf4
 247 329 241 208 238 194 c 0
313 506 m 0xea
 311 499 310 492 309 486 c 0
 302 442 316 419 366 419 c 0
 437 419 450 464 461 507 c 0
 470 548 475 575 465 591 c 0
 457 604 441 610 412 610 c 0
 324 610 323 543 313 506 c 0xea
EndSplineSet
Substitution2: "'onum' Oldstyle Figures in Latin lookup 19 subtable" uniF738
Substitution2: "'onum' Oldstyle Figures in Cyrillic lookup 18 subtable" uniF738
Substitution2: "'onum' Oldstyle Figures in Greek lookup 17 subtable" uniF738
Substitution2: "'aalt' Access All Alternates lookup 0 subtable" uniF738
EndChar

StartChar: nine
Encoding: 57 57 26
Width: 550
Flags: MW
HStem: -21 111<224.5 287.5 224.5 371.5> 196 91<226.5 330.5> 610 106<365 433.5>
VStem: 126 16 464 144
LayerCount: 2
Fore
SplineSet
140 440 m 0
 144 456 148 472 153 489 c 0
 187 599 257 716 437 716 c 0
 591 716 616 603 608 495 c 0
 596 345 525 -21 218 -21 c 0
 156 -21 118 -2 75 32 c 1
 154 131 l 1
 186 104 205 90 244 90 c 0
 331 90 375 147 406 265 c 1
 377 230 331 196 269 196 c 0
 184 196 155 237 142 270 c 1
 142 270 142 269 142 269 c 1
 117 326 126 378 140 440 c 0
296 447 m 0
 290 420 287 398 284 379 c 0
 268 266 302 287 328 287 c 0
 333 287 338 288 344 289 c 0
 385 298 439 351 462 509 c 0
 464 520 464 530 464 540 c 0
 464 578 456 610 411 610 c 0
 319 610 308 499 296 447 c 0
EndSplineSet
Substitution2: "'onum' Oldstyle Figures in Latin lookup 19 subtable" uniF739
Substitution2: "'onum' Oldstyle Figures in Cyrillic lookup 18 subtable" uniF739
Substitution2: "'onum' Oldstyle Figures in Greek lookup 17 subtable" uniF739
Substitution2: "'aalt' Access All Alternates lookup 0 subtable" uniF739
EndChar

StartChar: colon
Encoding: 58 58 27
Width: 306
Flags: MW
HStem: 0 147<76 257 110 223> 331 147<152 333 186 299>
VStem: 76 257
LayerCount: 2
Fore
SplineSet
76 0 m 1
 110 147 l 1
 257 147 l 1
 223 0 l 1
 76 0 l 1
152 331 m 1
 186 478 l 1
 333 478 l 1
 299 331 l 1
 152 331 l 1
EndSplineSet
EndChar

StartChar: semicolon
Encoding: 59 59 28
Width: 306
Flags: MW
HStem: 0 147<76 257 110 111> 331 147<152 333 186 299>
VStem: 47 286
LayerCount: 2
Fore
SplineSet
152 331 m 1
 186 478 l 1
 333 478 l 1
 299 331 l 1
 152 331 l 1
76 0 m 1
 110 147 l 1
 257 147 l 1
 240 71 l 1
 240 71 240 71 240 71 c 1
 228 21 l 2
 221 -3 210 -9 131 -108 c 1
 47 -108 l 1
 111 0 l 1
 76 0 l 1
EndSplineSet
EndChar

StartChar: less
Encoding: 60 60 29
Width: 672
Flags: MW
HStem: -94 720<503 688.5>
VStem: 144 568
LayerCount: 2
Fore
SplineSet
144 263 m 0
 144 265 145 268 145 270 c 0
 149 285 155 290 187 313 c 2
 637 611 l 2
 641 614 647 618 654 621 c 0
 661 624 669 626 677 626 c 0
 700 626 717 608 711 582 c 0
 706 559 690 549 675 539 c 2
 304 292 l 2
 290 283 277 274 263 265 c 1
 284 251 287 239 303 229 c 2
 549 -7 l 2
 556 -14 571 -26 565 -50 c 0
 560 -74 534 -94 510 -94 c 0
 496 -94 489 -88 479 -80 c 2
 167 219 l 2
 136 245 145 258 144 263 c 0
EndSplineSet
EndChar

StartChar: equal
Encoding: 61 61 30
Width: 672
Flags: MW
HStem: 106 89<151 577 130 600> 336 91<205 255 255 632 183 255>
VStem: 87 609
LayerCount: 2
Fore
SplineSet
89 151 m 0
 98 192 137 195 151 195 c 2
 600 195 l 2
 623 193 650 189 641 151 c 0
 631 109 589 106 577 106 c 2
 130 106 l 2
 108 109 80 112 89 151 c 0
142 381 m 0
 152 423 203 430 205 427 c 0
 222 427 238 427 255 427 c 2
 653 427 l 1
 675 423 703 420 694 381 c 0
 684 339 644 336 632 336 c 2
 183 336 l 2
 160 338 133 341 142 381 c 0
EndSplineSet
EndChar

StartChar: greater
Encoding: 62 62 31
Width: 672
Flags: MW
HStem: -94 720<95.5 281.5>
VStem: 70 569
LayerCount: 2
Fore
SplineSet
71 -50 m 0
 76 -27 93 -17 108 -7 c 0
 153 23 198 54 244 84 c 2
 409 193 l 2
 446 217 483 241 520 265 c 1
 507 277 493 292 482 303 c 2
 233 538 l 2
 219 553 213 564 217 582 c 0
 223 608 251 626 274 626 c 0
 289 626 294 620 304 611 c 2
 618 313 l 2
 648 286 638 273 638 265 c 0
 634 249 628 238 597 220 c 2
 146 -80 l 2
 133 -87 123 -94 107 -94 c 0
 84 -94 65 -77 71 -50 c 0
EndSplineSet
EndChar

StartChar: question
Encoding: 63 63 32
Width: 519
Flags: MW
HStem: 0 147<167 348 201 314> 615 91<399 409>
VStem: 438 151
LayerCount: 2
Fore
SplineSet
202 645 m 1
 209 657 l 1
 265 684 325 704 399 706 c 0
 526 706 581 674 589 607 c 0
 597 524 545 460 512 438 c 2
 489 423 l 1
 379 333 365 282 356 239 c 2
 350 211 l 1
 229 211 l 1
 251 363 342 446 392 489 c 0
 421 518 427 531 434 556 c 1
 434 556 434 556 434 556 c 1
 434 556 434 556 434 556 c 1
 434 556 434 556 434 556 c 1
 445 604 432 615 386 615 c 0
 322 615 264 581 217 537 c 1
 202 645 l 1
167 0 m 1
 201 147 l 1
 348 147 l 1
 314 0 l 1
 167 0 l 1
EndSplineSet
EndChar

StartChar: at
Encoding: 64 64 33
Width: 733
Flags: MW
HStem: -11 90<386.5 466 386.5 467> 115 89<481.5 507.5 481.5 551.5> 490 90<532 572> 615 91<511.5 567>
VStem: 119 138 303 137 621 155
LayerCount: 2
Fore
SplineSet
134 346 m 0
 138 361 141 377 146 392 c 0
 198 560 315 706 580 706 c 0
 805 706 796 559 750 360 c 0
 717 213 625 115 478 115 c 0
 296 115 288 235 314 349 c 0
 344 478 418 580 582 580 c 0
 597 579 612 577 627 577 c 1
 610 606 578 615 556 615 c 0
 467 615 323 578 270 347 c 0
 256 288 251 231 265 184 c 0
 283 122 334 79 439 79 c 0
 493 79 545 93 571 101 c 1
 571 101 571 100 571 100 c 1
 604 113 628 107 657 107 c 2
 706 107 l 1
 627 44 522 -11 412 -11 c 0
 228 -11 68 61 134 346 c 0
448 339 m 0
 444 320 441 303 440 289 c 0
 435 220 467 204 496 204 c 0
 519 204 553 216 577 256 c 1
 577 256 577 255 577 255 c 1
 595 284 603 315 612 354 c 0
 624 404 622 436 614 456 c 0
 603 483 581 490 563 490 c 0
 501 490 468 424 448 339 c 0
EndSplineSet
EndChar

StartChar: A
Encoding: 65 65 34
Width: 733
Flags: MW
HStem: 0 21G<21 21 21 173 531 531 531 700> 146 104<318 502 318 513 258 502> 675 20G<423 618 618 618>
VStem: 21 679<0 0>
LayerCount: 2
Fore
SplineSet
21 0 m 1
 423 695 l 1
 618 695 l 1
 700 0 l 1
 531 0 l 1
 513 146 l 1
 258 146 l 1
 173 0 l 1
 21 0 l 1
318 250 m 1
 502 250 l 1
 493 336 468 446 474 527 c 1
 449 478 410 414 318 250 c 1
EndSplineSet
EndChar

StartChar: B
Encoding: 66 66 35
Width: 733
Flags: MW
HStem: 0 104<266 358 358 366> 316 90<336 389 315 421> 591 104<378 457 457 459 378 378>
VStem: 563 155 604 156
LayerCount: 2
Fore
SplineSet
84 0 m 1xf0
 244 695 l 1
 457 695 l 2
 471 695 486 695 500 695 c 0xe8
 701 695 779 612 756 509 c 0
 737 425 665 382 612 364 c 1
 670 347 738 306 712 197 c 0
 676 36 517 0 366 0 c 2
 84 0 l 1xf0
266 104 m 1
 296 104 327 104 358 104 c 2
 381 104 l 2
 478 104 544 133 559 201 c 0
 569 244 557 275 533 293 c 1
 533 293 532 292 532 292 c 1xf0
 493 319 438 316 389 316 c 2
 315 316 l 1
 266 104 l 1
336 406 m 1
 364 406 393 406 421 406 c 0
 441 406 461 407 479 409 c 0
 538 416 604 454 604 524 c 0
 604 568 570 591 459 591 c 2
 378 591 l 1
 336 406 l 1
EndSplineSet
EndChar

StartChar: C
Encoding: 67 67 36
Width: 703
Flags: MW
HStem: -22 117<400 460.5> 599 117<495.5 610>
VStem: 119 166
LayerCount: 2
Fore
SplineSet
134 346 m 0
 139 366 143 384 149 402 c 0
 228 649 402 716 589 716 c 0
 667 716 721 704 789 678 c 1
 729 529 l 1
 689 557 660 599 560 599 c 0
 403 599 330 488 298 349 c 0
 284 288 279 231 292 187 c 0
 309 131 354 95 446 95 c 0
 479 95 504 98 528 103 c 0
 566 113 593 124 631 144 c 2
 671 166 l 1
 651 36 l 1
 552 -12 504 -22 417 -22 c 0
 282 -22 167 15 130 136 c 0
 114 189 114 258 134 346 c 0
EndSplineSet
EndChar

StartChar: D
Encoding: 68 68 37
Width: 794
Flags: MW
HStem: 0 104<269 359 359 367.5 269 377> 591 104<381 480 381 381>
VStem: 657 165
LayerCount: 2
Fore
SplineSet
85 0 m 1
 245 695 l 1
 536 695 l 2
 728 695 872 627 805 340 c 0
 735 42 539 0 377 0 c 2
 85 0 l 1
269 104 m 1
 359 104 l 2
 376 104 392 105 407 106 c 0
 579 123 634 245 654 391 c 0
 677 580 578 591 480 591 c 2
 381 591 l 1
 269 104 l 1
EndSplineSet
EndChar

StartChar: E
Encoding: 69 69 38
Width: 642
Flags: MW
HStem: 0 125 303 112<343 618 317 644> 571 120
VStem: 84 654
LayerCount: 2
Fore
SplineSet
84 0 m 1
 244 692 l 1
 738 692 l 1
 710 570 l 1
 379 573 l 1
 343 415 l 1
 644 415 l 1
 618 303 l 1
 317 303 l 1
 275 123 l 1
 622 127 l 1
 593 0 l 1
 84 0 l 1
EndSplineSet
EndChar

StartChar: F
Encoding: 70 70 39
Width: 611
Flags: MW
HStem: 0 21G<83 83 83 247> 291 111<340 586 314 612> 571 120
VStem: 83 640
LayerCount: 2
Fore
SplineSet
83 0 m 1
 243 692 l 1
 723 692 l 1
 695 570 l 1
 379 573 l 1
 340 402 l 1
 612 402 l 1
 586 291 l 1
 314 291 l 1
 247 0 l 1
 83 0 l 1
EndSplineSet
EndChar

StartChar: G
Encoding: 71 71 40
Width: 733
Flags: MW
HStem: -21 116<364 460> 226 112<487 555 461 733> 600 116<477.5 622.5>
VStem: 118 166
LayerCount: 2
Fore
SplineSet
134 348 m 0
 138 367 143 385 149 403 c 0
 213 602 349 716 585 716 c 0
 673 716 730 702 800 665 c 1
 740 515 l 1
 723 530 685 600 560 600 c 0
 395 600 327 475 297 348 c 0
 265 211 283 95 445 95 c 0
 478 95 510 104 527 104 c 1
 555 226 l 1
 461 226 l 1
 487 338 l 1
 733 338 l 1
 661 28 l 1
 588 0 506 -21 414 -21 c 0
 122 -21 90 155 134 348 c 0
EndSplineSet
EndChar

StartChar: H
Encoding: 72 72 41
Width: 794
Flags: MW
HStem: 0 21G<84 84 84 248 534 534 534 698> 305 112<344 604 318 630> 675 20G<244 408 408 408 694 858 858 858>
VStem: 84 774<0 695>
LayerCount: 2
Fore
SplineSet
84 0 m 1
 244 695 l 1
 408 695 l 1
 344 417 l 1
 630 417 l 1
 694 695 l 1
 858 695 l 1
 698 0 l 1
 534 0 l 1
 604 305 l 1
 318 305 l 1
 248 0 l 1
 84 0 l 1
EndSplineSet
EndChar

StartChar: I
Encoding: 73 73 42
Width: 331
Flags: MW
HStem: 0 21G<81 81 81 244> 675 20G<241 404 404 404>
VStem: 81 323
LayerCount: 2
Fore
SplineSet
81 0 m 1
 241 695 l 1
 404 695 l 1
 244 0 l 1
 81 0 l 1
EndSplineSet
EndChar

StartChar: J
Encoding: 74 74 43
Width: 519
Flags: MW
HStem: -21 113<197 243 170.5 277.5> 675 20G<428 588 588 588>
VStem: 41 547
LayerCount: 2
Fore
SplineSet
41 22 m 1
 101 170 l 1
 112 148 139 92 202 92 c 0
 284 92 300 139 304 157 c 2
 428 695 l 1
 588 695 l 1
 465 160 l 2
 431 23 330 -21 225 -21 c 0
 169 -21 107 -11 41 22 c 1
EndSplineSet
EndChar

StartChar: K
Encoding: 75 75 44
Width: 764
Flags: MW
HStem: 0 21G<84 84 84 230 553 553 553 721> 675 20G<244 390 390 390 689 870 870 870>
VStem: 84 786<0 695>
LayerCount: 2
Fore
SplineSet
84 0 m 1
 244 695 l 1
 390 695 l 1
 322 398 l 1
 689 695 l 1
 870 695 l 1
 526 415 l 1
 604 250 l 2
 644 166 684 80 721 0 c 1
 553 0 l 1
 403 317 l 1
 280 218 l 1
 230 0 l 1
 84 0 l 1
EndSplineSet
EndChar

StartChar: L
Encoding: 76 76 45
Width: 581
Flags: MW
HStem: 0 119 675 20G<243 406 406 406>
VStem: 83 478<0 121>
LayerCount: 2
Fore
SplineSet
83 0 m 1
 243 695 l 1
 406 695 l 1
 273 118 l 1
 561 121 l 1
 533 0 l 1
 83 0 l 1
EndSplineSet
EndChar

StartChar: M
Encoding: 77 77 46
Width: 978
Flags: MW
HStem: 0 21G 675 20G<246 438 438 438 843 1038 1038 1038>
VStem: 86 952<0 695>
LayerCount: 2
Fore
SplineSet
86 0 m 1
 246 695 l 1
 438 695 l 1
 510 273 l 1
 510 273 510 274 510 274 c 1
 521 202 525 200 522 185 c 1
 530 198 538 212 556 240 c 2
 843 695 l 1
 1038 695 l 1
 878 0 l 1
 738 0 l 1
 854 501 l 1
 842 481 827 459 812 435 c 2
 549 21 l 1
 421 21 l 1
 356 399 l 1
 356 399 356 398 356 398 c 1
 343 473 340 465 340 500 c 1
 225 0 l 1
 86 0 l 1
EndSplineSet
EndChar

StartChar: N
Encoding: 78 78 47
Width: 794
Flags: MW
HStem: 0 21G<84 84 84 223 495 495 495 698> 0 167<495 597 597 597 597 698> 527 168<345 345> 675 20G<244 446 446 446 718 858 858 858>
VStem: 84 774<0 695>
LayerCount: 2
Fore
SplineSet
84 0 m 1x98
 244 695 l 1
 446 695 l 1
 597 167 l 1x58
 718 695 l 1
 858 695 l 1
 698 0 l 1
 495 0 l 1
 345 527 l 1xa8
 223 0 l 1
 84 0 l 1x98
EndSplineSet
EndChar

StartChar: O
Encoding: 79 79 48
Width: 794
Flags: MW
HStem: -21 98<381.5 446 381.5 520> 621 95<473 556>
VStem: 117 162 666 158
LayerCount: 2
Fore
SplineSet
134 345 m 0
 142 380 152 412 163 442 c 0
 241 647 392 716 554 716 c 0
 757 716 869 615 806 343 c 0
 761 151 654 -21 386 -21 c 0
 109 -21 92 160 134 345 c 0
302 369 m 0
 298 354 294 339 291 323 c 0
 278 261 271 198 290 145 c 0
 310 100 355 77 408 77 c 0
 484 77 596 124 650 377 c 0
 667 452 680 531 636 584 c 1
 636 584 636 583 636 583 c 1
 615 606 579 621 533 621 c 0
 383 621 327 480 302 369 c 0
EndSplineSet
EndChar

StartChar: P
Encoding: 80 80 49
Width: 703
Flags: MW
HStem: 0 21G<84 84 84 247> 260 97<326 426 426 441 307 426> 591 104<380 480 380 380>
VStem: 598 156
LayerCount: 2
Fore
SplineSet
84 0 m 1
 244 695 l 1
 526 695 l 2
 715 695 777 606 747 474 c 0
 699 271 518 260 441 260 c 2
 307 260 l 1
 247 0 l 1
 84 0 l 1
326 357 m 1
 426 357 l 2
 514 357 567 372 591 473 c 0
 616 574 568 591 480 591 c 2
 380 591 l 1
 326 357 l 1
EndSplineSet
EndChar

StartChar: Q
Encoding: 81 81 50
Width: 794
Flags: MW
HStem: -21 230<351 398> 621 95<558 568>
VStem: 116 159 664 159
LayerCount: 2
Fore
SplineSet
133 342 m 0
 139 367 145 390 152 412 c 0
 217 612 346 714 558 716 c 0
 827 716 849 533 806 343 c 0
 770 192 708 92 607 33 c 1
 681 -108 l 1
 488 -108 l 1
 450 -17 l 1
 420 -17 411 -21 385 -21 c 0
 115 -21 90 155 133 342 c 0
293 339 m 0
 290 326 287 312 284 298 c 0
 265 200 260 94 408 73 c 0
 409 74 409 74 410 74 c 2
 351 209 l 1
 513 209 l 1
 554 134 l 1
 601 185 621 243 645 342 c 0
 662 416 673 495 653 549 c 0
 637 593 602 621 534 621 c 0
 337 621 300 367 293 339 c 0
EndSplineSet
EndChar

StartChar: R
Encoding: 82 82 51
Width: 703
Flags: MW
HStem: 0 21G<84 84 84 244 508 508 508 675> 302 91<335 406 314 441> 591 104<380 487 380 380>
VStem: 601 156
LayerCount: 2
Fore
SplineSet
84 0 m 1
 244 695 l 1
 498 695 l 2
 685 695 750 627 757 549 c 0
 758 530 756 511 752 493 c 0
 730 395 660 335 563 315 c 1
 598 212 640 101 675 0 c 1
 508 0 l 1
 406 302 l 1
 314 302 l 1
 244 0 l 1
 84 0 l 1
335 393 m 1
 441 393 l 2
 523 393 577 407 597 492 c 0
 616 575 570 591 487 591 c 2
 380 591 l 1
 335 393 l 1
EndSplineSet
EndChar

StartChar: S
Encoding: 83 83 52
Width: 611
Flags: MW
HStem: -21 125<276.5 368.5 276.5 392> 596 120<393 462.5>
VStem: 164 13 450 150
LayerCount: 2
Fore
SplineSet
52 51 m 1
 113 202 l 1
 173 144 229 104 324 104 c 0
 413 104 442 154 450 189 c 0
 452 200 453 210 451 219 c 0
 445 245 422 262 403 270 c 1
 403 270 404 270 404 270 c 1
 392 274 376 277 359 281 c 0
 297 293 213 312 177 396 c 1
 177 396 177 395 177 395 c 1
 165 424 158 459 169 504 c 0
 196 614 272 716 461 716 c 0
 473 716 484 716 495 715 c 0
 559 712 606 699 669 665 c 1
 609 515 l 1
 604 519 597 528 588 538 c 2
 572 553 l 2
 566 558 558 564 550 569 c 0
 523 586 488 596 437 596 c 0
 349 596 324 553 316 522 c 0
 306 484 332 463 366 452 c 0
 409 437 453 434 495 416 c 0
 566 385 618 310 594 203 c 0
 568 86 489 -21 295 -21 c 0
 203 -21 123 5 52 51 c 1
EndSplineSet
EndChar

StartChar: T
Encoding: 84 84 53
Width: 733
Flags: MW
HStem: 0 21G<279 442 279 279> 569 119
VStem: 164 683<568 689>
LayerCount: 2
Fore
SplineSet
164 568 m 1
 192 689 l 1
 847 689 l 1
 819 568 l 1
 574 571 l 1
 442 0 l 1
 279 0 l 1
 411 571 l 1
 164 568 l 1
EndSplineSet
EndChar

StartChar: U
Encoding: 85 85 54
Width: 764
Flags: MW
HStem: -21 103<398 398 398 464 398 491.5> 675 20G<244 407 407 407 675 827 827 827>
VStem: 129 162
LayerCount: 2
Fore
SplineSet
141 249 m 2
 244 695 l 1
 407 695 l 1
 301 233 l 2
 296 212 292 192 291 174 c 0
 287 120 307 82 398 82 c 1
 398 82 398 82 398 82 c 1
 530 82 553 166 569 235 c 2
 675 695 l 1
 827 695 l 1
 724 245 l 2
 690 100 608 -21 375 -21 c 0
 124 -21 109 108 141 249 c 2
EndSplineSet
EndChar

StartChar: V
Encoding: 86 86 55
Width: 733
Flags: MW
HStem: 0 21G<263 459 263 263> 675 20G<166 336 307.5 336 720 876 876 876>
VStem: 166 710<695 695>
LayerCount: 2
Fore
SplineSet
166 695 m 1
 223 695 279 695 336 695 c 1
 379 382 l 1
 379 382 379 383 379 383 c 1
 402 234 406 214 407 166 c 1
 462 261 l 2
 473 282 487 303 498 324 c 2
 535 386 l 1
 720 695 l 1
 876 695 l 1
 459 0 l 1
 263 0 l 1
 166 695 l 1
EndSplineSet
EndChar

StartChar: W
Encoding: 87 87 56
Width: 1039
Flags: MW
HStem: 0 21G<197 371 197 197 647 827 647 647> 518 177 675 20G<169 318 318 318 588 763 763 763 1038 1174 1174 1174>
VStem: 183 152 629 141 640 142
LayerCount: 2
Fore
SplineSet
169 695 m 1xb8
 318 695 l 1
 323 664 335 210 335 181 c 1
 339 191 345 204 354 223 c 1
 354 223 354 222 354 222 c 1
 370 256 386 290 404 324 c 2
 435 386 l 1
 588 695 l 1
 763 695 l 1xb8
 778 282 l 2
 780 235 781 225 782 176 c 1
 790 193 798 209 806 226 c 2
 1038 695 l 1
 1174 695 l 1
 827 0 l 1
 647 0 l 1xb4
 642 125 638 250 633 375 c 0
 629 456 627 469 629 518 c 1xd8
 612 483 591 441 572 403 c 2
 371 0 l 1
 197 0 l 1
 169 695 l 1xb8
EndSplineSet
EndChar

StartChar: X
Encoding: 88 88 57
Width: 733
Flags: MW
HStem: 0 21G<0 0 0 187 525 525 525 721> 675 20G<176 371 371 371 650 837 837 837>
VStem: 0 837<0 695>
LayerCount: 2
Fore
SplineSet
0 0 m 1
 353 368 l 1
 328 413 l 2
 277 505 222 604 176 695 c 1
 371 695 l 1
 468 500 l 1
 527 564 591 631 650 695 c 1
 837 695 l 1
 793 648 l 2
 704 554 614 461 525 367 c 1
 549 323 l 2
 606 218 666 104 721 0 c 1
 525 0 l 1
 410 246 l 1
 387 221 l 2
 379 213 372 205 365 197 c 2
 294 118 l 2
 258 79 222 40 187 0 c 1
 0 0 l 1
EndSplineSet
EndChar

StartChar: Y
Encoding: 89 89 58
Width: 733
Flags: MW
HStem: 0 21G<280 441 280 280> 658 37<149 361>
VStem: 149 742<695 695>
LayerCount: 2
Fore
SplineSet
149 695 m 1
 344 695 l 1
 361 657 l 1
 361 657 361 658 361 658 c 1
 380 615 396 581 409 553 c 2
 440 487 l 2
 455 453 462 436 466 422 c 1
 514 483 669 640 713 695 c 1
 891 695 l 1
 505 277 l 1
 441 0 l 1
 280 0 l 1
 344 277 l 1
 149 695 l 1
EndSplineSet
EndChar

StartChar: Z
Encoding: 90 90 59
Width: 672
Flags: MW
HStem: 0 119 580 115
VStem: 53 714<0 695>
LayerCount: 2
Fore
SplineSet
53 0 m 1
 71 78 l 1
 534 582 l 1
 201 578 l 1
 228 695 l 1
 767 695 l 1
 750 620 l 1
 288 118 l 1
 641 121 l 1
 613 0 l 1
 53 0 l 1
EndSplineSet
EndChar

StartChar: bracketleft
Encoding: 91 91 60
Width: 343
Flags: MW
HStem: -216 90<195 271> 659 89<376 473 376 376>
VStem: 25 469
LayerCount: 2
Fore
SplineSet
25 -216 m 1
 248 748 l 1
 494 748 l 1
 473 659 l 1
 376 659 l 1
 195 -126 l 1
 292 -126 l 1
 271 -216 l 1
 25 -216 l 1
EndSplineSet
EndChar

StartChar: backslash
Encoding: 92 92 61
Width: 550
Flags: MW
HStem: -168 21G<355 355>
VStem: 214 235
LayerCount: 2
Fore
SplineSet
216 674 m 1
 215 676 216 678 215 680 c 1
 215 679 215 677 215 676 c 1
 206 713 240 748 270 748 c 0
 295 748 313 721 309 704 c 1
 309 704 309 704 309 704 c 1
 355 416 402 130 449 -157 c 0
 450 -163 449 -167 448 -171 c 0
 443 -194 416 -216 392 -216 c 0
 362 -216 357 -189 355 -168 c 2
 355 -168 355 -169 355 -169 c 2
 353 -157 351 -144 349 -132 c 1
 349 -132 349 -132 349 -132 c 1
 349 -132 349 -132 349 -132 c 1
 216 674 l 1
 216 674 216 674 216 674 c 1
EndSplineSet
EndChar

StartChar: bracketright
Encoding: 93 93 62
Width: 343
Flags: MW
HStem: -216 90<-13 84 -13 211 -34 84> 659 89<189 265 168 434>
VStem: -34 468
LayerCount: 2
Fore
SplineSet
-13 -126 m 1
 84 -126 l 1
 265 659 l 1
 168 659 l 1
 189 748 l 1
 434 748 l 1
 211 -216 l 1
 -34 -216 l 1
 -13 -126 l 1
EndSplineSet
EndChar

StartChar: asciicircum
Encoding: 94 94 63
Width: 672
Flags: MW
HStem: 459 163<256 533 256 533 524 524 524 533 417 618>
VStem: 256 362<459 459>
LayerCount: 2
Fore
SplineSet
256 459 m 1
 417 622 l 1
 533 622 l 1
 618 459 l 1
 524 459 l 1
 454 539 l 1
 420 513 384 483 350 459 c 1
 256 459 l 1
EndSplineSet
EndChar

StartChar: underscore
Encoding: 95 95 64
Width: 856
Flags: MW
HStem: -329 101<42 641 90 97 97 620>
VStem: 20 673
LayerCount: 2
Fore
SplineSet
68 -329 m 0
 16 -329 18 -295 22 -279 c 0
 27 -259 42 -228 90 -228 c 2
 641 -228 l 1
 641 -228 641 -228 641 -228 c 1
 641 -228 641 -228 641 -228 c 1
 641 -228 641 -228 641 -228 c 1
 641 -228 641 -228 641 -228 c 1
 641 -228 641 -228 641 -228 c 1
 693 -228 697 -257 692 -279 c 0
 688 -298 673 -329 620 -329 c 2
 97 -329 l 2
 87 -329 78 -329 68 -329 c 0
EndSplineSet
EndChar

StartChar: grave
Encoding: 96 96 65
Width: 550
Flags: MW
HStem: 527 154<396.5 401 237 428 237 475>
VStem: 237 238<527 681>
LayerCount: 2
Fore
SplineSet
324 589 m 2
 237 681 l 1
 292 681 346 681 401 681 c 1
 475 527 l 1
 428 527 l 2
 365 527 357 554 324 589 c 2
EndSplineSet
EndChar

StartChar: a
Encoding: 97 97 66
Width: 561
Flags: MW
HStem: -11 89<184.5 331> 0 21G<343 494 343 343> 394 89<324.5 335 306.5 382> 452 20G<603 603>
LayerCount: 2
Fore
SplineSet
85 238 m 0xa0
 104 317 136 394 202 444 c 0
 240 471 285 483 328 483 c 0xa0
 342 483 354 482 366 480 c 0
 401 474 426 460 448 441 c 1
 525 456 l 1
 603 472 l 1
 494 0 l 1
 343 0 l 1x50
 347 18 347 18 352 37 c 1
 311 7 269 -11 213 -11 c 0
 156 -11 31 11 85 238 c 0xa0
238 249 m 0
 230 215 221 178 221 140 c 0
 221 93 244 78 285 78 c 0
 377 78 374 133 379 155 c 0
 392 209 404 263 416 317 c 0
 420 335 425 353 429 371 c 1
 413 387 394 394 370 394 c 0
 279 394 254 318 238 249 c 0
EndSplineSet
EndChar

StartChar: b
Encoding: 98 98 67
Width: 561
Flags: MW
HStem: -11 90<289.5 341 249.5 408> 0 79<54 341> 393 90<355 506.5>
VStem: 435 150
LayerCount: 2
Fore
SplineSet
54 0 m 1x70
 212 686 l 1
 360 686 l 1
 303 437 l 1
 345 463 397 483 458 483 c 0
 555 483 591 418 585 324 c 0
 574 173 501 -11 315 -11 c 0
 264 -11 235 4 211 30 c 1xb0
 204 0 l 1
 54 0 l 1x70
277 318 m 2
 243 171 l 2
 229 126 212 79 287 79 c 0
 395 79 425 205 435 298 c 0
 442 362 429 393 355 393 c 1
 315 388 288 379 277 318 c 2
EndSplineSet
EndChar

StartChar: c
Encoding: 99 99 68
Width: 489
Flags: MW
HStem: -11 94<269.5 302> 394 94<320.5 403>
VStem: 74 151
LayerCount: 2
Fore
SplineSet
85 237 m 0
 120 388 216 488 386 488 c 0
 461 488 493 479 550 443 c 1
 506 330 l 1
 481 357 441 394 365 394 c 0
 276 394 256 320 240 256 c 0
 228 205 220 163 225 132 c 0
 230 101 248 83 291 83 c 0
 319 83 346 89 370 97 c 0
 416 112 458 140 480 156 c 1
 462 37 l 1
 395 5 338 -11 266 -11 c 0
 75 -11 55 106 85 237 c 0
EndSplineSet
EndChar

StartChar: d
Encoding: 100 100 69
Width: 561
Flags: MW
HStem: -11 89<191 320> 0 78<257.5 494 257.5 343> 394 89
VStem: 73 148
LayerCount: 2
Fore
SplineSet
73 124 m 0x70
 63 283 175 519 378 478 c 0
 407 471 429 458 448 441 c 1
 504 686 l 1
 652 686 l 1
 494 0 l 1
 343 0 l 1x70
 352 37 l 1
 311 7 269 -11 213 -11 c 0xb0
 169 -11 80 3 73 124 c 0x70
370 394 m 0
 255 394 224 251 221 157 c 0
 221 113 230 78 285 78 c 0
 355 78 374 133 379 155 c 2
 429 371 l 1
 413 387 394 394 370 394 c 0
EndSplineSet
EndChar

StartChar: e
Encoding: 101 101 70
Width: 511
Flags: MW
HStem: -11 90<251.5 320.5> 240 71<244 417 244 529 221 417> 399 89<322 372>
VStem: 69 141 417 126
LayerCount: 2
Fore
SplineSet
79 240 m 0
 82 253 85 266 89 278 c 0
 126 391 206 488 376 488 c 0
 497 488 539 431 543 355 c 0
 545 318 538 278 529 240 c 1
 221 240 l 1
 218 226 215 212 213 198 c 0
 207 154 203 79 300 79 c 0
 378 79 452 124 496 153 c 1
 478 40 l 1
 438 20 368 -11 273 -11 c 0
 143 -11 34 42 79 240 c 0
244 311 m 1
 417 311 l 1
 425 389 388 399 356 399 c 0
 288 399 257 341 244 311 c 1
EndSplineSet
EndChar

StartChar: f
Encoding: 102 102 71
Width: 336
Flags: MW
HStem: 0 21G<77 224 77 77> 384 88<112 186 132 166 330 405> 607 89<394 426.5>
VStem: 77 460
LayerCount: 2
Fore
SplineSet
112 384 m 1
 132 472 l 1
 186 472 l 1
 199 528 l 2
 205 554 213 575 224 594 c 0
 269 672 347 696 441 696 c 0
 475 696 497 693 537 684 c 1
 508 558 l 1
 491 578 475 593 455 601 c 0
 445 605 433 607 420 607 c 0
 352 607 351 560 343 527 c 2
 330 472 l 1
 425 472 l 1
 405 384 l 1
 313 384 l 1
 224 0 l 1
 77 0 l 1
 166 384 l 1
 112 384 l 1
EndSplineSet
EndChar

StartChar: g
Encoding: 103 103 72
Width: 561
Flags: MW
HStem: -182 89<199 284.5 199 304> 23 88 394 93 463 20G<458 606 606 606>
VStem: 74 155
LayerCount: 2
Fore
SplineSet
230 23 m 0xe8
 75 23 50 140 93 270 c 0xe8
 121 357 228 531 390 477 c 0
 415 469 432 453 446 434 c 1
 458 483 l 1
 606 483 l 1xd8
 502 33 l 2
 475 -92 381 -182 227 -182 c 0
 145 -182 96 -165 39 -130 c 1
 65 -16 l 1
 111 -58 155 -93 243 -93 c 0
 326 -93 338 -17 349 26 c 2
 363 88 l 1
 331 52 286 23 230 23 c 0xe8
370 394 m 0
 283 394 243 291 232 217 c 0
 221 160 238 93 313 115 c 0
 364 131 395 213 403 249 c 2
 418 310 l 2
 419 316 427 338 424 357 c 0
 421 376 408 394 370 394 c 0
EndSplineSet
EndChar

StartChar: h
Encoding: 104 104 73
Width: 561
Flags: MW
HStem: 0 21G<53 53 53 203 345 345 345 495> 394 89<353 504>
VStem: 424 156
LayerCount: 2
Fore
SplineSet
53 0 m 1
 211 686 l 1
 358 686 l 1
 310 478 l 1
 310 478 310 478 310 478 c 1
 294 409 l 1
 327 446 383 483 457 483 c 0
 551 483 580 448 580 396 c 0
 581 369 575 333 564 301 c 2
 495 0 l 1
 345 0 l 1
 420 323 l 2
 429 363 429 394 381 394 c 0
 325 394 281 334 269 288 c 2
 203 0 l 1
 53 0 l 1
EndSplineSet
EndChar

StartChar: i
Encoding: 105 105 74
Width: 256
Flags: MW
HStem: 0 21G<51 51 51 198> 452 20G<160 307 307 307> 550 136<178 356 209 325>
VStem: 51 305
LayerCount: 2
Fore
SplineSet
51 0 m 1
 160 472 l 1
 307 472 l 1
 198 0 l 1
 51 0 l 1
178 550 m 1
 209 686 l 1
 356 686 l 1
 325 550 l 1
 178 550 l 1
EndSplineSet
EndChar

StartChar: j
Encoding: 106 106 75
Width: 286
Flags: MW
HStem: -171 101<9.5 33.5 -2.5 110> 452 20G<189 337 337 337> 550 136<207 386 238 355>
VStem: -109 495
LayerCount: 2
Fore
SplineSet
-109 -137 m 1
 -64 -50 l 1
 -35 -64 -16 -70 11 -70 c 0
 56 -70 66 -59 70 -43 c 2
 189 472 l 1
 337 472 l 1
 223 -23 l 1
 202 -94 182 -171 38 -171 c 0
 -19 -171 -67 -156 -109 -137 c 1
207 550 m 1
 238 686 l 1
 386 686 l 1
 355 550 l 1
 207 550 l 1
EndSplineSet
EndChar

StartChar: k
Encoding: 107 107 76
Width: 531
Flags: MW
HStem: 0 21G<62 62 62 191 362 362 362 514> 452 20G<433 604 604 604>
LayerCount: 2
Fore
SplineSet
62 0 m 1
 220 686 l 1
 352 686 l 1
 272 338 l 1
 433 472 l 1
 604 472 l 1
 388 290 l 1
 514 0 l 1
 362 0 l 1
 275 195 l 1
 227 154 l 1
 191 0 l 1
 62 0 l 1
EndSplineSet
EndChar

StartChar: l
Encoding: 108 108 77
Width: 256
Flags: MW
HStem: 0 21G<51 51 51 198>
VStem: 51 305
LayerCount: 2
Fore
SplineSet
51 0 m 1
 209 686 l 1
 356 686 l 1
 198 0 l 1
 51 0 l 1
EndSplineSet
EndChar

StartChar: m
Encoding: 109 109 78
Width: 867
Flags: MW
HStem: 0 21G<56 56 56 206 348 348 348 499 642 642 642 792> 394 84<166 408> 394 89<355 511> 394 90<648 799>
VStem: 427 155 721 157
LayerCount: 2
Fore
SplineSet
56 0 m 1xcc
 166 478 l 1
 311 478 l 1
 294 403 l 1
 325 434 363 466 417 478 c 0xcc
 430 481 445 483 460 483 c 0
 562 483 578 442 582 399 c 1xac
 615 437 672 484 753 484 c 0
 845 484 878 447 878 396 c 0
 878 364 859 319 859 291 c 1x9c
 792 0 l 1
 642 0 l 1
 717 323 l 2
 726 364 724 394 677 394 c 0
 619 394 580 332 565 288 c 1
 499 0 l 1
 348 0 l 1
 423 323 l 2
 432 364 432 394 384 394 c 0
 326 394 287 332 272 288 c 1
 272 288 272 288 272 288 c 1
 206 0 l 1
 56 0 l 1xcc
EndSplineSet
EndChar

StartChar: n
Encoding: 110 110 79
Width: 561
Flags: MW
HStem: 0 21G<53 53 53 203 345 345 345 495> 394 84<163 397> 394 89<351.5 504>
VStem: 53 527<0 422> 425 155<353.5 422>
LayerCount: 2
Fore
SplineSet
53 0 m 1xd0
 163 478 l 1
 308 478 l 1
 291 404 l 1xd0
 327 442 383 483 457 483 c 0
 551 483 580 448 580 396 c 0
 580 366 565 331 565 302 c 1xa8
 542 201 518 101 495 0 c 1
 345 0 l 1
 420 323 l 1
 420 323 420 323 420 323 c 1
 423 336 425 348 425 359 c 0
 424 380 413 394 381 394 c 0xc8
 322 394 283 331 269 288 c 1
 203 0 l 1
 53 0 l 1xd0
EndSplineSet
EndChar

StartChar: o
Encoding: 111 111 80
Width: 550
Flags: MW
HStem: -11 94<259.5 327.5> 399 89<326 377>
VStem: 68 149 432 145
LayerCount: 2
Fore
SplineSet
80 239 m 0
 86 264 93 286 101 306 c 0
 159 447 271 488 381 488 c 0
 505 488 612 437 567 239 c 0
 519 30 390 -11 265 -11 c 0
 141 -11 31 31 80 239 c 0
230 241 m 0
 229 235 227 229 226 222 c 0
 222 202 218 182 217 163 c 0
 215 116 231 83 288 83 c 0
 383 83 403 176 418 241 c 0
 429 288 440 339 423 370 c 0
 413 388 394 399 360 399 c 0
 263 399 247 311 230 241 c 0
EndSplineSet
EndChar

StartChar: p
Encoding: 112 112 81
Width: 561
Flags: MW
HStem: -160 21G<17 17 17 167> -11 90<292.5 339.5 268.5 376> 389 83<163 404> 389 94<350 517.5>
VStem: 432 155
LayerCount: 2
Fore
SplineSet
17 -160 m 1xe8
 163 472 l 1
 311 472 l 1xe8
 302 434 l 1
 346 460 403 483 467 483 c 0xd8
 568 483 612 413 572 238 c 0
 531 61 436 -11 316 -11 c 0
 269 -11 235 4 211 30 c 1
 167 -160 l 1
 17 -160 l 1xe8
288 365 m 1
 284 346 279 327 275 308 c 1
 275 308 275 308 275 308 c 1
 275 308 275 308 275 308 c 1
 237 146 l 2
 234 133 231 119 228 106 c 1
 232 98 251 79 286 79 c 0
 393 79 416 215 428 270 c 0
 435 308 441 389 367 389 c 0
 333 389 301 374 288 365 c 1
EndSplineSet
EndChar

StartChar: q
Encoding: 113 113 82
Width: 561
Flags: MW
HStem: -160 21G<306 457 306 306> -11 90<138 291.5> 389 94<345 360.5 287 385.5>
VStem: 73 151
LayerCount: 2
Fore
SplineSet
84 235 m 0
 88 253 93 269 98 285 c 0
 145 426 232 483 342 483 c 0
 379 483 405 470 424 455 c 0
 433 447 441 439 446 432 c 1
 458 483 l 1
 606 483 l 1
 457 -160 l 1
 306 -160 l 1
 336 -29 l 1
 336 -29 336 -29 336 -29 c 1
 351 36 l 1
 312 9 261 -11 215 -11 c 0
 61 -11 60 135 84 235 c 0
235 235 m 2
 229 206 l 2
 217 140 221 79 287 79 c 0
 296 79 304 79 312 81 c 0
 364 92 376 133 389 184 c 2
 416 306 l 2
 418 314 420 322 422 330 c 0
 428 362 403 389 368 389 c 0
 322 389 261 354 235 235 c 2
EndSplineSet
EndChar

StartChar: r
Encoding: 114 114 83
Width: 372
Flags: MW
HStem: 0 21G<52 52 52 200> 366 117<439 467> 458 20G<162 304 304 304>
VStem: 52 415
LayerCount: 2
Fore
SplineSet
52 0 m 1xb0
 162 478 l 1
 304 478 l 1
 294 434 l 1
 294 434 294 434 294 434 c 1xb0
 284 390 l 1
 321 437 387 481 467 483 c 1
 439 366 l 1xd0
 332 364 273 300 260 258 c 2
 200 0 l 1
 52 0 l 1xb0
EndSplineSet
EndChar

StartChar: s
Encoding: 115 115 84
Width: 422
Flags: MW
HStem: -11 95<175 258 175 260.5> 400 88<276.5 323>
VStem: 32 452<38 453> 103 125
LayerCount: 2
Fore
SplineSet
32 38 m 1xe0
 84 170 l 2
 83 172 83 171 83 170 c 0
 85 160 119 84 231 84 c 0
 285 84 303 107 309 129 c 0
 313 150 296 165 279 171 c 1
 224 171 103 204 103 299 c 0
 103 311 104 324 107 338 c 0
 137 463 230 488 323 488 c 0
 385 488 422 481 484 453 c 1
 437 338 l 1
 390 380 356 400 290 400 c 0
 242 400 230 377 228 362 c 0
 224 345 230 334 243 327 c 0xd0
 327 271 463 309 428 147 c 0
 400 22 311 -11 210 -11 c 0
 139 -11 86 6 32 38 c 1xe0
EndSplineSet
EndChar

StartChar: t
Encoding: 116 116 85
Width: 404
Flags: MW
HStem: -11 21G<128.5 216> -11 94<128.5 291.5> 384 88<103 190 123 167 332 443>
VStem: 101 152
LayerCount: 2
Fore
SplineSet
103 384 m 1xb0
 123 472 l 1
 190 472 l 1
 220 602 l 1
 362 602 l 1
 332 472 l 1
 463 472 l 1
 443 384 l 1
 312 384 l 1
 260 161 l 2
 249 112 249 83 282 83 c 0
 301 83 315 87 327 92 c 0
 350 102 362 118 379 118 c 1x70
 380 91 380 63 381 36 c 1
 317 9 252 -11 180 -11 c 0
 77 -11 100 92 112 146 c 2
 167 384 l 1
 103 384 l 1xb0
EndSplineSet
EndChar

StartChar: u
Encoding: 117 117 86
Width: 561
Flags: MW
HStem: -11 78<156.5 289> 0 67<252.5 495 252.5 348> 452 20G<162 312 312 312 454 604 604 604>
VStem: 75 529
LayerCount: 2
Fore
SplineSet
84 134 m 2x70
 162 472 l 1
 312 472 l 1
 232 125 l 1
 232 125 232 125 232 125 c 1
 229 111 226 100 226 91 c 0
 226 74 236 67 269 67 c 0
 309 67 366 95 386 177 c 2
 454 472 l 1
 604 472 l 1
 495 0 l 1
 348 0 l 1x70
 361 55 l 1
 325 22 273 -11 200 -11 c 0
 113 -11 79 16 75 59 c 0xb0
 73 82 78 107 84 134 c 2x70
EndSplineSet
EndChar

StartChar: v
Encoding: 118 118 87
Width: 500
Flags: MW
HStem: 0 21G<155 334 155 155> 452 20G<115 255 255 255 455 592 592 592>
LayerCount: 2
Fore
SplineSet
115 472 m 1
 255 472 l 1
 282 156 l 1
 455 472 l 1
 592 472 l 1
 334 0 l 1
 155 0 l 1
 115 472 l 1
EndSplineSet
EndChar

StartChar: w
Encoding: 119 119 88
Width: 744
Flags: MW
HStem: 0 21G<137 277 137 137 413 591 413 413> 452 20G<118 256 256 256 417 523 523 523 693 829 829 829>
VStem: 118 138<472 472>
LayerCount: 2
Fore
SplineSet
118 472 m 1
 256 472 l 1
 260 373 265 275 269 176 c 1
 317 275 367 373 417 472 c 1
 523 472 l 1
 528 368 532 264 537 160 c 1
 568 222 l 1
 568 222 568 222 568 222 c 1
 693 472 l 1
 829 472 l 1
 591 0 l 1
 413 0 l 1
 408 127 396 201 407 268 c 1
 373 191 315 77 277 0 c 1
 137 0 l 1
 118 472 l 1
EndSplineSet
EndChar

StartChar: x
Encoding: 120 120 89
Width: 500
Flags: MW
HStem: 0 21G<-15 -15 -15 140 348 348 348 505> 452 20G<100 256 256 256 440 596 596 596>
LayerCount: 2
Fore
SplineSet
-15 0 m 1
 234 245 l 1
 234 245 234 245 234 245 c 1
 100 472 l 1
 256 472 l 1
 323 349 l 1
 440 472 l 1
 596 472 l 1
 362 244 l 1
 408 167 461 77 505 0 c 1
 348 0 l 1
 278 156 l 1
 278 156 278 156 278 156 c 1
 140 0 l 1
 -15 0 l 1
EndSplineSet
EndChar

StartChar: y
Encoding: 121 121 90
Width: 500
Flags: MW
HStem: -171 101<101.5 120.5> -23 20G<204 204> 452 20G<114 258 234 258 456 591 591 591>
LayerCount: 2
Fore
SplineSet
114 472 m 1
 162 472 210 472 258 472 c 1
 283 350 l 2
 299 273 304 223 306 194 c 1
 347 276 418 405 456 472 c 1
 591 472 l 1
 307 -31 l 2
 251 -133 156 -171 85 -171 c 0
 53 -171 19 -166 2 -163 c 1
 19 -40 l 1
 34 -50 49 -59 68 -64 c 0
 80 -68 93 -70 110 -70 c 0
 167 -70 185 -36 204 -3 c 1
 204 -3 204 -4 204 -4 c 2
 206 1 208 5 210 10 c 0
 207 27 203 43 200 60 c 2
 114 472 l 1
EndSplineSet
EndChar

StartChar: z
Encoding: 122 122 91
Width: 476
Flags: MW
HStem: 0 90<222 260 222 438> 388 84<313.5 351>
VStem: 24 521<0 472>
LayerCount: 2
Fore
SplineSet
24 0 m 1
 38 59 l 1
 351 388 l 1
 276 388 201 386 127 386 c 1
 147 472 l 1
 545 472 l 1
 532 416 l 1
 222 90 l 1
 298 90 384 92 459 92 c 1
 438 0 l 1
 24 0 l 1
EndSplineSet
EndChar

StartChar: braceleft
Encoding: 123 123 92
Width: 550
Flags: MW
HStem: -216 90<337.5 466 409 445> 221 90<120 133.5> 659 89<551 668 625 647>
VStem: 223 153
LayerCount: 2
Fore
SplineSet
99 221 m 1
 120 311 l 1
 218 311 280 365 293 424 c 2
 338 621 l 1
 350 695 428 748 625 748 c 2
 668 748 l 1
 647 659 l 1
 618 659 l 2
 484 659 493 634 484 595 c 2
 445 424 l 2
 443 415 441 407 438 399 c 0
 412 329 342 283 271 266 c 1
 356 243 390 185 372 108 c 2
 327 -86 l 2
 320 -123 352 -126 466 -126 c 1
 445 -216 l 1
 380 -216 l 2
 295 -216 160 -208 170 -108 c 1
 222 118 l 1
 222 118 222 118 222 118 c 1
 223 128 224 137 223 145 c 0
 217 196 168 221 99 221 c 1
EndSplineSet
EndChar

StartChar: bar
Encoding: 124 124 93
Width: 306
Flags: MW
HStem: -216 964<90.5 332.5>
VStem: 61 299
LayerCount: 2
Fore
SplineSet
63 -158 m 2
 259 691 l 2
 271 741 309 748 323 748 c 0
 342 748 369 740 357 686 c 2
 160 -170 l 2
 152 -196 124 -216 100 -216 c 0
 81 -216 52 -205 63 -158 c 2
EndSplineSet
EndChar

StartChar: braceright
Encoding: 125 125 94
Width: 550
Flags: MW
HStem: -216 90<19 41 -2 48> 221 90<519 546> 659 89<221 226.5>
VStem: 293 149 338 154
LayerCount: 2
Fore
SplineSet
19 -126 m 1xe8
 48 -126 l 2
 195 -126 173 -94 185 -43 c 2
 220 109 l 2
 224 126 228 145 241 165 c 1
 241 165 241 164 241 164 c 1
 267 210 317 243 369 260 c 1
 369 260 369 260 369 260 c 1
 369 260 369 260 369 260 c 1
 369 260 369 260 369 260 c 1
 392 266 l 1
 337 280 295 317 288 368 c 1
 288 368 288 367 288 367 c 2
 285 387 288 403 293 424 c 2xf0
 329 580 l 2
 332 594 336 605 338 615 c 0
 343 638 334 645 311 652 c 0
 290 658 253 659 200 659 c 1
 221 748 l 1
 287 748 l 2xe8
 354 748 519 748 489 616 c 2
 443 415 l 2
 441 401 439 392 442 380 c 0xf0
 444 359 471 311 567 311 c 1
 546 221 l 1
 479 221 438 204 413 183 c 0
 349 131 370 97 369 94 c 2
 326 -89 l 2
 324 -99 321 -109 316 -118 c 0
 285 -180 206 -216 41 -216 c 2
 -2 -216 l 1
 19 -126 l 1xe8
EndSplineSet
EndChar

StartChar: asciitilde
Encoding: 126 126 95
Width: 672
Flags: MW
HStem: 550 10 550 90<551 558.5> 604 91<361.5 397.5>
VStem: 212 525
LayerCount: 2
Fore
SplineSet
220 550 m 2xb0
 217 553 215 557 212 560 c 0xb0
 234 643 313 695 392 695 c 0x50
 488 695 523 640 579 640 c 0
 593 640 632 647 649 695 c 1xb0
 737 695 l 1
 715 612 647 559 576 551 c 0x50
 569 550 562 550 555 550 c 0
 461 550 426 604 369 604 c 0
 354 604 315 596 300 550 c 1
 220 550 l 2xb0
EndSplineSet
EndChar

StartChar: exclamdown
Encoding: 257 161 97
Width: 367
Flags: MW
HStem: -162 21G<70 70 70 216> 386 147<196 376 230 342>
VStem: 70 306
LayerCount: 2
Fore
SplineSet
70 -162 m 1
 173 241 l 1
 183 281 l 2
 186 294 189 308 193 322 c 1
 315 322 l 1
 216 -162 l 1
 70 -162 l 1
196 386 m 1
 230 533 l 1
 376 533 l 1
 342 386 l 1
 196 386 l 1
EndSplineSet
EndChar

StartChar: cent
Encoding: 258 162 98
Width: 550
Flags: MW
HStem: -9 21G<254 254 343 343> 398 167<437 437>
VStem: 74 154
LayerCount: 2
Fore
SplineSet
84 239 m 0
 88 256 93 272 98 287 c 0
 152 435 279 482 370 494 c 1
 386 565 l 1
 475 565 l 1
 459 495 l 1
 524 490 551 480 617 449 c 1
 571 335 l 1
 515 378 495 394 437 398 c 1
 365 86 l 1
 423 97 468 113 544 156 c 1
 526 38 l 1
 435 1 385 -5 343 -9 c 1
 326 -81 l 1
 237 -81 l 1
 254 -9 l 1
 150 4 39 50 84 239 c 0
234 224 m 1
 232 213 229 201 228 190 c 0
 224 147 231 106 277 90 c 1
 347 394 l 1
 240 360 233 221 234 224 c 1
EndSplineSet
EndChar

StartChar: sterling
Encoding: 259 163 99
Width: 703
Flags: MW
HStem: -11 70<123.5 219.5> -11 166<123.5 261> 92 63<219 261> 302 91<263 295 242 316 468 530> 650 91<561.5 611>
VStem: 627 131
LayerCount: 2
Fore
SplineSet
68 61 m 0xbc
 69 67 72 72 74 77 c 0
 94 123 146 148 216 154 c 0
 231 156 246 155 261 155 c 1
 265 174 270 192 274 211 c 2
 295 302 l 1
 242 302 l 1xbc
 263 393 l 1
 316 393 l 1
 342 507 l 2
 345 519 348 532 352 544 c 0
 385 654 457 741 616 741 c 0
 702 741 744 690 758 624 c 0
 764 596 765 567 761 540 c 0
 750 464 701 455 677 452 c 1
 654 456 634 464 628 483 c 0
 626 489 626 497 627 506 c 0
 627 618 627 650 595 650 c 0
 528 650 500 530 499 527 c 0
 498 521 496 514 495 508 c 2
 468 393 l 1
 551 393 l 1
 530 302 l 1
 447 302 l 1
 425 206 l 1
 425 206 425 206 425 206 c 1
 425 206 425 206 425 206 c 1
 415 166 l 2
 412 154 408 139 406 127 c 1
 426 122 l 2
 439 119 452 115 465 112 c 0
 491 106 516 101 543 99 c 0
 575 97 585 125 593 155 c 1
 703 155 l 1x5c
 676 55 586 -3 497 -10 c 0
 490 -11 484 -11 477 -11 c 0
 436 -11 386 0 350 9 c 2
 305 21 l 1
 282 10 236 -11 155 -11 c 0
 92 -11 58 18 68 61 c 0xbc
185 71 m 0
 182 60 196 59 215 59 c 0
 224 59 255 67 277 77 c 2
 293 85 l 1
 268 88 243 91 228 92 c 0
 210 92 191 88 185 71 c 0
EndSplineSet
EndChar

StartChar: currency
Encoding: 260 164 100
Width: 808
Flags: MW
HStem: -11 100<345.5 421.5> 520 101<514 598 514 601.5>
VStem: 139 106 693 103
LayerCount: 2
Fore
SplineSet
26 -14 m 0
 31 8 44 17 65 35 c 1
 65 35 65 35 65 35 c 1
 65 35 65 35 65 35 c 1
 142 99 l 2
 146 103 151 106 156 110 c 1
 145 138 127 195 152 305 c 0
 177 414 222 471 246 500 c 1
 214 534 196 559 185 577 c 0
 172 599 171 611 173 623 c 0
 177 645 197 663 215 669 c 0
 221 671 228 673 235 673 c 0
 249 673 257 668 268 657 c 2
 280 643 l 2
 289 632 299 618 312 601 c 2
 335 571 l 1
 409 614 485 621 543 621 c 0
 653 621 704 586 725 570 c 1
 769 606 832 673 871 673 c 0
 877 673 884 671 889 669 c 0
 907 662 915 644 911 623 c 0
 910 619 909 615 907 612 c 0
 895 586 860 571 779 500 c 1
 790 473 809 417 783 304 c 0
 757 192 712 136 689 109 c 1
 749 37 770 10 764 -14 c 0
 756 -43 729 -63 701 -63 c 0
 687 -63 675 -58 667 -47 c 2
 643 -14 l 2
 638 -7 633 0 626 9 c 2
 603 38 l 1
 529 -4 448 -11 395 -11 c 0
 284 -11 234 20 211 38 c 1
 167 2 l 1
 92 -54 90 -63 65 -63 c 0
 36 -63 20 -41 26 -14 c 0
253 304 m 0
 249 287 247 270 245 254 c 0
 235 157 276 89 415 89 c 0
 532 89 641 124 683 305 c 0
 713 430 682 520 521 520 c 0
 403 520 295 484 253 304 c 0
EndSplineSet
EndChar

StartChar: yen
Encoding: 261 165 101
Width: 733
Flags: MW
HStem: 0 262<281 341 79 441 281 281> 173 89<84.5 91 91 321 501 745 745 745> 402 91<99 244 136 244 136 287 438 496 706 806> 675 20G<151 345 345 345 714 892 892 892>
VStem: 12 880
LayerCount: 2
Fore
SplineSet
13 218 m 0x78
 14 224 17 230 22 237 c 0
 31 250 48 262 79 262 c 2
 341 262 l 1
 341 268 343 270 342 278 c 0
 340 288 332 303 315 339 c 2
 287 402 l 1
 113 402 l 2
 85 402 72 413 67 426 c 0
 65 433 64 440 66 447 c 0
 72 476 102 493 136 493 c 2
 244 493 l 1
 214 556 181 634 151 695 c 1
 345 695 l 1
 438 493 l 1
 529 493 l 1
 714 695 l 1
 892 695 l 1
 706 493 l 1
 815 493 l 2
 846 493 870 478 862 447 c 0
 859 432 841 402 806 402 c 2
 622 402 l 1
 505 277 l 1
 501 262 l 1
 769 262 l 2
 806 262 813 235 809 217 c 0
 805 199 790 173 745 173 c 1
 745 173 745 173 745 173 c 1
 481 173 l 1x78
 441 0 l 1
 281 0 l 1xb8
 321 173 l 1
 91 173 l 2
 78 173 65 172 52 172 c 0
 17 172 9 199 13 218 c 0x78
431 402 m 1
 455 355 l 1
 496 402 l 1
 431 402 l 1
EndSplineSet
EndChar

StartChar: brokenbar
Encoding: 262 166 102
Width: 183
Flags: MW
HStem: -216 964<30.5 274.5>
VStem: 1 299
LayerCount: 2
Fore
SplineSet
72 142 m 2
 84 194 120 200 136 200 c 0
 142 200 149 199 156 196 c 0
 169 190 179 174 172 143 c 1
 172 143 172 143 172 143 c 1
 103 -155 l 2
 92 -206 57 -216 40 -216 c 0
 21 -216 -7 -206 3 -158 c 1
 3 -158 3 -158 3 -158 c 1
 3 -158 3 -158 3 -158 c 1
 72 142 l 2
129 390 m 0
 152 489 175 589 198 688 c 0
 210 740 245 748 263 748 c 0
 286 748 308 736 298 690 c 1
 298 690 298 690 298 690 c 1
 230 392 l 2
 218 337 181 331 166 331 c 0
 144 331 117 340 129 390 c 0
EndSplineSet
EndChar

StartChar: section
Encoding: 253 167 103
Width: 533
Flags: MW
HStem: -173 90<233.5 260 233.5 279> 615 91<385 414>
VStem: 125 146 376 140<260 260 260 266>
LayerCount: 2
Fore
SplineSet
16 -100 m 1
 71 34 l 1
 76 24 83 12 91 -1 c 0
 118 -41 154 -74 212 -81 c 0
 220 -82 229 -83 238 -83 c 0
 282 -83 307 -34 314 -5 c 0
 323 30 289 48 261 63 c 1
 281 53 89 95 130 271 c 0
 139 297 153 350 221 397 c 1
 195 430 176 475 190 534 c 0
 216 626 308 706 428 706 c 0
 438 706 448 706 457 705 c 0
 521 700 562 676 602 645 c 1
 552 519 l 1
 536 539 515 602 436 613 c 0
 428 614 419 615 409 615 c 0
 361 615 340 563 333 537 c 0
 325 497 357 485 389 469 c 2
 415 456 l 1
 471 422 510 386 519 327 c 0
 522 307 522 285 516 260 c 1
 516 260 516 260 516 260 c 1
 510 239 l 2
 495 198 465 162 425 134 c 1
 454 99 468 52 456 -1 c 0
 430 -92 339 -173 219 -173 c 0
 210 -173 201 -173 192 -172 c 0
 121 -168 72 -146 16 -100 c 1
272 274 m 0
 271 271 271 269 271 266 c 0
 268 230 302 217 345 200 c 1
 350 206 376 235 376 266 c 1
 381 302 335 316 303 333 c 1
 293 319 278 302 272 274 c 0
EndSplineSet
EndChar

StartChar: uniF24D
Encoding: 263 62029 104
AltUni2: 0000a8.ffffffff.0
Width: 550
Flags: MW
HStem: 550 128<230 388 260 358 260 438 468 566>
VStem: 230 366<550 678>
LayerCount: 2
Fore
SplineSet
438 550 m 1
 468 678 l 1
 596 678 l 1
 566 550 l 1
 438 550 l 1
230 550 m 1
 260 678 l 1
 388 678 l 1
 358 550 l 1
 230 550 l 1
EndSplineSet
EndChar

StartChar: copyright
Encoding: 264 169 105
Width: 1143
Flags: MW
HStem: -238 100<420.5 632.5> -22 117<628 675.5> 396 118<680 723 723 723> 467 20G<917 917> 670 101<624.5 802>
VStem: 98 103 304 167 1046 103
LayerCount: 2
Fore
SplineSet
312 247 m 0xdf
 315 260 319 273 323 285 c 0xdf
 392 479 607 514 753 514 c 0
 814 514 851 508 917 487 c 1xef
 855 332 l 1xdf
 850 339 843 345 838 352 c 0
 816 372 788 396 723 396 c 1
 723 396 723 396 723 396 c 1xef
 540 396 491 309 475 246 c 0
 448 122 548 95 660 95 c 0
 741 95 779 119 840 151 c 1
 821 20 l 1
 756 -6 717 -22 634 -22 c 0
 622 -22 611 -21 599 -21 c 0
 432 -14 265 39 312 247 c 0xdf
118 266 m 0
 126 303 137 337 148 369 c 0
 262 687 510 771 739 771 c 0
 979 771 1094 683 1133 553 c 0
 1159 468 1151 367 1128 266 c 0
 1037 -135 757 -238 508 -238 c 0
 265 -238 152 -148 114 -20 c 0
 88 65 95 165 118 266 c 0
218 266 m 0
 213 245 209 225 206 205 c 0
 200 166 199 130 201 97 c 0
 213 -55 312 -138 529 -138 c 0
 827 -138 970 15 1028 266 c 0
 1050 362 1052 439 1034 499 c 0
 998 619 887 670 717 670 c 0
 495 670 291 587 218 266 c 0
EndSplineSet
EndChar

StartChar: ordfeminine
Encoding: 265 170 106
Width: 489
Flags: MW
HStem: 213 90<103.5 481 147 460> 364 80<294 489 294 339> 465 60 681 84<373 381.5>
VStem: 397 149
LayerCount: 2
Fore
SplineSet
77 258 m 0
 79 267 82 274 87 280 c 0
 100 298 126 303 147 303 c 2
 481 303 l 2
 526 303 525 272 522 258 c 0
 517 239 502 213 460 213 c 2
 119 213 l 2
 88 213 78 228 76 241 c 0
 75 248 76 254 77 258 c 0
129 457 m 0
 131 466 136 474 143 481 c 0
 191 529 341 525 373 525 c 1
 388 587 l 2
 393 608 396 625 397 638 c 0
 400 677 388 681 375 681 c 0
 349 681 323 670 299 654 c 0
 253 623 216 576 216 576 c 1
 238 713 l 1
 295 748 341 765 405 765 c 0
 555 765 553 665 541 593 c 0
 539 581 537 572 535 561 c 2
 527 528 l 2
 514 473 501 419 489 364 c 1
 339 364 l 1
 349 408 l 1
 297 363 242 354 221 354 c 0
 144 354 119 416 129 457 c 0
277 460 m 0
 276 457 277 454 279 451 c 0
 282 447 289 444 299 444 c 0xf8
 316 444 331 454 344 465 c 1
 300 463 280 463 277 460 c 0
EndSplineSet
EndChar

StartChar: guillemotleft
Encoding: 266 171 107
Width: 733
Flags: MW
HStem: 0 21G<277 407 277 277 503 503 503 633> 459 20G<388 517 517 517 614 743 743 743>
VStem: 118 625<240 479>
LayerCount: 2
Fore
SplineSet
118 240 m 1
 388 479 l 1
 517 479 l 1
 255 239 l 1
 301 163 361 75 407 0 c 1
 277 0 l 1
 118 240 l 1
344 240 m 1
 614 479 l 1
 743 479 l 1
 481 239 l 1
 527 163 587 75 633 0 c 1
 503 0 l 1
 344 240 l 1
EndSplineSet
Substitution2: "'salt' Stylistic Alternatives in Latin lookup 22 subtable" uniF100
Substitution2: "'salt' Stylistic Alternatives in Greek lookup 20 subtable" uniF13B
Substitution2: "'locl' Localized Forms in Latin lookup 5 subtable" uniF100
Substitution2: "'locl' Localized Forms in Greek lookup 2 subtable" uniF13B
AlternateSubs2: "'aalt' Access All Alternates lookup 1 subtable" uniF13B uniF100
EndChar

StartChar: logicalnot
Encoding: 267 172 108
Width: 672
Flags: MW
HStem: 311 100<189 206 206 206 206 578>
VStem: 135 556
LayerCount: 2
Fore
SplineSet
184 310 m 0
 131 310 133 349 136 361 c 0
 139 381 160 411 206 411 c 1
 206 411 206 411 206 411 c 1
 206 411 206 411 206 411 c 1
 644 411 l 2
 677 411 699 398 689 354 c 1
 689 354 689 354 689 354 c 1
 633 112 l 2
 621 58 585 52 569 52 c 0
 532 52 524 79 535 126 c 2
 578 311 l 1
 190 311 l 2
 188 311 187 310 184 310 c 0
EndSplineSet
EndChar

StartChar: uni00AD
Encoding: 173 173 109
Width: 183
Flags: MW
HStem: 194 91<49 374 70 353>
VStem: 49 325<194 285>
LayerCount: 2
Fore
SplineSet
49 194 m 1
 70 285 l 1
 374 285 l 1
 353 194 l 1
 49 194 l 1
EndSplineSet
EndChar

StartChar: registered
Encoding: 268 174 110
Width: 1143
Flags: MW
HStem: -238 100<420.5 636.5> 0 21G<314 314 314 474 740 740 740 899> 201 90<520 673.5> 389 103<565 664 565 565> 670 101<611 802>
VStem: 97 104 792 158 1046 104
LayerCount: 2
Fore
SplineSet
314 0 m 1
 428 492 l 1
 692 492 l 2
 797 492 979 486 946 340 c 0
 924 259 858 225 782 212 c 1
 822 142 861 72 899 0 c 1
 740 0 l 1
 623 201 l 1
 520 201 l 1
 474 0 l 1
 314 0 l 1
541 292 m 1
 579 292 616 291 654 291 c 0
 693 291 725 293 749 300 c 0
 771 307 787 317 792 340 c 1
 792 340 792 340 792 340 c 1
 801 382 758 389 664 389 c 2
 565 389 l 1
 558 357 548 324 541 292 c 1
97 101 m 0
 97 154 105 210 118 266 c 0
 211 666 483 771 739 771 c 0
 1006 771 1119 661 1144 509 c 0
 1157 434 1147 350 1128 266 c 0
 1035 -134 765 -238 508 -238 c 0
 193 -238 97 -85 97 101 c 0
218 266 m 0
 213 245 209 225 206 205 c 0
 200 166 199 130 201 97 c 0
 213 -55 312 -138 529 -138 c 0
 824 -138 970 17 1028 266 c 0
 1050 362 1052 439 1034 499 c 0
 998 619 887 670 717 670 c 0
 495 670 291 587 218 266 c 0
EndSplineSet
EndChar

StartChar: macron
Encoding: 269 175 111
Width: 550
Flags: MW
HStem: 598 102<206 635 230 611>
VStem: 206 429<598 700>
LayerCount: 2
Fore
SplineSet
206 598 m 1
 230 700 l 1
 635 700 l 1
 611 598 l 1
 206 598 l 1
EndSplineSet
EndChar

StartChar: degree
Encoding: 270 176 112
Width: 367
Flags: MW
HStem: 437 101<297.5 315.5 297.5 319> 594 101<309.5 327.5>
VStem: 178 102 339 104
LayerCount: 2
Fore
SplineSet
182 566 m 0
 197 647 264 695 339 695 c 0
 418 695 457 647 439 567 c 0
 420 482 358 437 280 437 c 0
 196 437 165 491 182 566 c 0
282 566 m 0
 281 563 280 560 280 557 c 0
 280 541 290 538 305 538 c 0
 326 538 335 548 339 567 c 0
 343 586 337 594 318 594 c 0
 301 594 287 590 282 566 c 0
EndSplineSet
EndChar

StartChar: plusminus
Encoding: 271 177 113
Width: 672
Flags: MW
HStem: 78 100<111.5 321 145 156 156 321 422 566> 305 100<196 350 172 374 196 451 475 629>
VStem: 83 606
LayerCount: 2
Fore
SplineSet
132 78 m 0
 91 78 83 98 83 114 c 0
 83 148 108 171 133 177 c 1
 133 177 132 176 132 176 c 2
 138 178 142 178 145 178 c 2
 321 178 l 1
 350 305 l 1
 172 305 l 2
 153 306 141 316 136 331 c 0
 134 338 133 346 135 355 c 0
 140 382 168 405 196 405 c 2
 374 405 l 1
 409 560 l 2
 419 601 438 632 477 632 c 0
 506 632 514 611 514 587 c 0
 514 572 509 552 505 537 c 2
 475 405 l 1
 637 405 l 2
 653 405 661 405 671 399 c 1
 671 399 670 399 670 399 c 1
 685 390 692 374 688 355 c 0
 682 329 656 305 629 305 c 2
 451 305 l 1
 422 178 l 1
 584 178 l 2
 603 178 646 176 636 128 c 0
 626 83 582 78 566 78 c 2
 156 78 l 2
 148 78 140 78 132 78 c 0
EndSplineSet
EndChar

StartChar: uni00B2
Encoding: 272 178 114
Width: 489
Flags: MW
HStem: 337 124<296 381 381 384.5 296 511> 653 118<364 378.5>
VStem: 124 453
LayerCount: 2
Fore
SplineSet
202 704 m 0
 204 709 206 713 208 718 c 0
 273 751 327 771 401 771 c 0
 513 771 584 715 577 629 c 1
 567 559 530 537 473 520 c 2
 431 508 l 2
 425 506 419 505 415 504 c 0
 392 499 388 498 336 477 c 2
 296 461 l 1
 381 461 l 2
 388 461 397 462 404 462 c 2
 540 462 l 1
 511 337 l 1
 124 337 l 1
 151 456 l 1
 188 474 225 491 262 509 c 1
 312 524 406 553 415 604 c 1
 415 604 415 604 415 604 c 1
 421 634 398 653 359 653 c 0
 318 653 283 631 260 614 c 2
 250 606 l 1
 221 665 l 2
 215 678 208 691 202 704 c 0
EndSplineSet
EndChar

StartChar: uni00B3
Encoding: 273 179 115
Width: 489
Flags: MW
HStem: 326 111 664 107<376 389.5>
VStem: 110 454
LayerCount: 2
Fore
SplineSet
110 326 m 1
 153 435 l 1
 207 436 263 438 317 438 c 0
 354 438 380 439 388 473 c 0
 396 508 369 508 329 508 c 2
 288 508 l 1
 309 597 l 1
 348 605 395 601 405 643 c 0
 409 661 397 664 382 664 c 0
 334 664 299 654 253 637 c 1
 215 729 l 1
 284 756 345 771 407 771 c 0
 524 771 570 730 564 662 c 0
 558 618 541 590 513 567 c 1
 513 567 513 567 513 567 c 1
 499 557 l 1
 530 544 562 519 551 471 c 0
 533 361 396 330 307 327 c 0
 241 327 176 326 110 326 c 1
EndSplineSet
EndChar

StartChar: acute
Encoding: 274 180 116
Width: 550
Flags: MW
HStem: 527 154<309 617 309 617>
VStem: 309 308<527 681>
LayerCount: 2
Fore
SplineSet
309 527 m 1
 454 681 l 1
 617 681 l 1
 480 583 l 2
 387 518 408 527 372 527 c 2
 309 527 l 1
EndSplineSet
EndChar

StartChar: mu
Encoding: 275 181 117
Width: 561
Flags: MW
HStem: -162 21G<15 15 15 167> -11 21G<201 203.5> 0 68<246.5 500 246.5 351> 458 20G<162 314 314 314 458 610 610 610>
VStem: 15 595
LayerCount: 2
Fore
SplineSet
15 -162 m 1xb8
 162 478 l 1
 314 478 l 1
 233 126 l 1
 233 126 233 126 233 126 c 1
 224 83 221 68 272 68 c 0
 312 68 371 96 390 180 c 2
 458 478 l 1
 610 478 l 1
 500 0 l 1
 351 0 l 1
 364 56 l 1xb8
 312 4 259 -5 219 -10 c 0
 212 -11 206 -11 201 -11 c 1xd8
 167 -162 l 1
 15 -162 l 1xb8
EndSplineSet
EndChar

StartChar: paragraph
Encoding: 276 182 118
Width: 672
Flags: MW
HStem: -161 21G<296 312 447 476> 594 101<529 584 529 529 684 711 684 684>
VStem: 154 633
LayerCount: 2
Fore
SplineSet
159 455 m 0
 189 579 317 695 502 695 c 2
 737 695 l 2
 789 695 789 659 786 644 c 0
 779 612 746 594 711 594 c 2
 684 594 l 1
 523 -104 l 2
 515 -137 491 -161 461 -161 c 0
 433 -161 414 -140 421 -111 c 2
 584 594 l 1
 529 594 l 1
 368 -104 l 2
 356 -155 319 -161 305 -161 c 0
 287 -161 258 -152 267 -108 c 2
 343 219 l 1
 193 242 135 346 159 455 c 0
EndSplineSet
EndChar

StartChar: periodcentered
Encoding: 277 183 119
Width: 219
Flags: MW
HStem: 189 128<87 245 116 216>
VStem: 87 158<189 317>
LayerCount: 2
Fore
SplineSet
87 189 m 1
 116 317 l 1
 245 317 l 1
 216 189 l 1
 87 189 l 1
EndSplineSet
EndChar

StartChar: cedilla
Encoding: 278 184 120
Width: 489
Flags: MW
HStem: -163 160<59 288 59 288>
VStem: 59 229<-163 -3>
LayerCount: 2
Fore
SplineSet
59 -163 m 1
 198 -3 l 1
 288 -3 l 1
 183 -163 l 1
 59 -163 l 1
EndSplineSet
EndChar

StartChar: uni00B9
Encoding: 279 185 121
Width: 489
Flags: MW
HStem: 337 91<182 274 428 492 161 274> 607 91<229 229 229 233>
VStem: 161 352<337 428>
LayerCount: 2
Fore
SplineSet
208 607 m 1
 229 698 l 1
 360 699 420 739 460 771 c 1
 507 771 l 1
 428 428 l 1
 513 428 l 1
 492 337 l 1
 161 337 l 1
 182 428 l 1
 274 428 l 1
 318 618 l 1
 290 612 258 607 208 607 c 1
EndSplineSet
EndChar

StartChar: ordmasculine
Encoding: 280 186 122
Width: 489
Flags: MW
HStem: 213 90<103.5 481 147 460> 354 95<326 338> 674 91<369 423.5>
VStem: 142 151 446 147
LayerCount: 2
Fore
SplineSet
77 258 m 0
 79 267 82 274 87 280 c 0
 100 298 126 303 147 303 c 2
 481 303 l 2
 526 303 525 272 522 258 c 0
 517 239 502 213 460 213 c 2
 119 213 l 2
 88 213 78 228 76 241 c 0
 75 248 76 254 77 258 c 0
150 552 m 0
 155 573 161 593 168 610 c 0
 217 731 319 765 419 765 c 0
 527 765 624 722 584 552 c 0
 550 399 441 358 338 354 c 1
 231 354 108 376 150 552 c 0
302 554 m 0
 300 546 298 539 297 532 c 0
 294 518 293 506 293 496 c 0
 293 465 308 449 344 449 c 0
 407 449 418 494 437 573 c 0
 453 643 451 674 396 674 c 0
 328 674 316 618 302 554 c 0
EndSplineSet
EndChar

StartChar: guillemotright
Encoding: 281 187 123
Width: 733
Flags: MW
HStem: 0 21G<89 89 89 218 314 445 314 314> 0 239<89 351 351 351 351 445 314 351> 459 20G<200 329 329 329 425 556 556 556>
VStem: 89 624<0 239>
LayerCount: 2
Fore
SplineSet
89 0 m 1xb0
 351 239 l 1
 200 479 l 1
 329 479 l 1
 488 239 l 1x70
 218 0 l 1
 89 0 l 1xb0
314 0 m 1
 576 239 l 1
 425 479 l 1
 556 479 l 1
 713 239 l 1
 445 0 l 1
 314 0 l 1
EndSplineSet
Substitution2: "'salt' Stylistic Alternatives in Latin lookup 22 subtable" uniF101
Substitution2: "'salt' Stylistic Alternatives in Greek lookup 20 subtable" uniF13C
Substitution2: "'locl' Localized Forms in Latin lookup 5 subtable" uniF101
Substitution2: "'locl' Localized Forms in Greek lookup 2 subtable" uniF13C
AlternateSubs2: "'aalt' Access All Alternates lookup 1 subtable" uniF13C uniF101
EndChar

StartChar: onequarter
Encoding: 282 188 124
Width: 489
Flags: MW
HStem: -162 137<194 230 162 334 194 194> -137 112<162 199 365 426 162 339> 243 101<79 510 137 497> 405 91<198 291 445 509 177 291> 648 91<219 358.5>
VStem: -8 575
LayerCount: 2
Fore
SplineSet
52 293 m 0x7c
 54 300 56 307 59 312 c 0
 73 336 96 339 119 343 c 0
 125 344 131 344 137 344 c 2
 510 344 l 2x7c
 533 344 563 341 567 316 c 0
 568 310 572 243 497 243 c 2xbc
 97 243 l 2
 61 243 51 262 51 279 c 0
 51 284 51 289 52 293 c 0x7c
17 -32 m 1
 236 182 l 1
 413 182 l 1
 365 -25 l 1
 452 -25 l 1
 426 -137 l 1
 339 -137 l 1
 334 -162 l 1
 194 -162 l 1
 199 -137 l 1
 -8 -137 l 1
 17 -32 l 1
219 648 m 1
 240 739 l 1
 477 739 430 771 508 771 c 1
 445 496 l 1
 530 496 l 1
 509 405 l 1
 177 405 l 1
 198 496 l 1
 291 496 l 1
 327 652 l 1
 271 647 243 648 219 648 c 1
162 -25 m 1
 230 -25 l 1
 250 59 l 1
 220 31 l 1
 162 -25 l 1
EndSplineSet
Ligature2: "'frac' Diagonal Fractions in Latin lookup 16 subtable" one fraction four
Ligature2: "'frac' Diagonal Fractions in Latin lookup 16 subtable" one slash four
Ligature2: "'frac' Diagonal Fractions in Greek lookup 15 subtable" one fraction four
Ligature2: "'frac' Diagonal Fractions in Greek lookup 15 subtable" one slash four
Ligature2: "'frac' Diagonal Fractions in Thai lookup 14 subtable" one fraction four
Ligature2: "'frac' Diagonal Fractions in Thai lookup 14 subtable" one slash four
EndChar

StartChar: onehalf
Encoding: 283 189 125
Width: 489
Flags: MW
HStem: -162 21G<11 398 11 11> 113 90<236 262.5> 243 101<79 510 137 497> 405 91<198 291 445 509 177 291> 648 91<219 358.5>
VStem: 294 160
LayerCount: 2
Fore
SplineSet
52 293 m 0
 54 300 56 307 59 312 c 0
 73 336 96 339 119 343 c 0
 125 344 131 344 137 344 c 2
 510 344 l 2
 533 344 563 341 567 316 c 0
 568 310 572 243 497 243 c 2
 97 243 l 2
 61 243 51 262 51 279 c 0
 51 284 51 289 52 293 c 0
81 172 m 1
 84 177 87 183 90 188 c 1
 162 199 203 203 269 203 c 0
 429 203 460 139 454 87 c 1
 454 -2 307 -27 217 -53 c 1
 182 -66 l 1
 261 -66 l 2
 268 -66 275 -65 282 -65 c 2
 420 -65 l 1
 398 -162 l 1
 11 -162 l 1
 30 -76 l 1
 142 -20 l 1
 194 1 282 17 294 71 c 0
 298 87 291 113 234 113 c 0
 207 113 179 106 159 94 c 2
 127 77 l 1
 81 172 l 1
219 648 m 1
 240 739 l 1
 477 739 430 771 508 771 c 1
 445 496 l 1
 530 496 l 1
 509 405 l 1
 177 405 l 1
 198 496 l 1
 291 496 l 1
 327 652 l 1
 271 647 243 648 219 648 c 1
EndSplineSet
Ligature2: "'frac' Diagonal Fractions in Latin lookup 16 subtable" one fraction two
Ligature2: "'frac' Diagonal Fractions in Latin lookup 16 subtable" one slash two
Ligature2: "'frac' Diagonal Fractions in Greek lookup 15 subtable" one fraction two
Ligature2: "'frac' Diagonal Fractions in Greek lookup 15 subtable" one slash two
Ligature2: "'frac' Diagonal Fractions in Thai lookup 14 subtable" one fraction two
Ligature2: "'frac' Diagonal Fractions in Thai lookup 14 subtable" one slash two
EndChar

StartChar: threequarters
Encoding: 284 190 126
Width: 489
Flags: MW
HStem: -162 137<194 230 162 334 194 194> -137 112<162 199 365 426 162 339> 243 101<79 510 137 497> 534 91<317 322 317 340 296 322> 664 107<377.5 388.5>
VStem: -8 577 409 160
LayerCount: 2
Fore
SplineSet
52 293 m 0x7c
 54 300 56 307 59 312 c 0
 73 336 96 339 119 343 c 0
 125 344 131 344 137 344 c 2
 510 344 l 2x7c
 533 344 563 341 567 316 c 0
 568 310 572 243 497 243 c 2xbc
 97 243 l 2
 61 243 51 262 51 279 c 0
 51 284 51 289 52 293 c 0x7c
17 -32 m 1
 236 182 l 1
 413 182 l 1
 365 -25 l 1
 452 -25 l 1
 426 -137 l 1
 339 -137 l 1
 334 -162 l 1
 194 -162 l 1
 199 -137 l 1
 -8 -137 l 1
 17 -32 l 1
117 353 m 1
 162 465 l 1
 224 485 273 492 310 495 c 0
 362 499 393 493 399 515 c 0
 405 538 363 534 340 534 c 2
 296 534 l 1
 317 625 l 1
 327 625 403 626 409 652 c 0
 412 665 397 664 380 664 c 0
 340 664 301 665 261 665 c 1
 223 757 l 1
 288 766 350 771 405 771 c 0x7a
 474 771 569 754 569 677 c 0
 569 629 543 600 517 583 c 1
 542 572 571 553 562 513 c 0
 560 503 557 493 552 483 c 0
 508 397 408 386 334 384 c 0
 288 384 225 380 117 353 c 1
162 -25 m 1
 230 -25 l 1
 250 59 l 1
 220 31 l 1
 162 -25 l 1
EndSplineSet
Ligature2: "'frac' Diagonal Fractions in Latin lookup 16 subtable" three fraction four
Ligature2: "'frac' Diagonal Fractions in Latin lookup 16 subtable" three slash four
Ligature2: "'frac' Diagonal Fractions in Greek lookup 15 subtable" three fraction four
Ligature2: "'frac' Diagonal Fractions in Greek lookup 15 subtable" three slash four
Ligature2: "'frac' Diagonal Fractions in Thai lookup 14 subtable" three fraction four
Ligature2: "'frac' Diagonal Fractions in Thai lookup 14 subtable" three slash four
EndChar

StartChar: questiondown
Encoding: 285 191 127
Width: 519
Flags: MW
HStem: -173 90<205 223.5> 386 147<256 437 290 403>
VStem: 42 151
LayerCount: 2
Fore
SplineSet
48 -18 m 2
 57 12 l 2
 74 62 106 88 131 107 c 1
 131 107 130 106 130 106 c 1
 189 172 226 198 245 280 c 2
 254 322 l 1
 375 322 l 1
 366 280 l 2
 365 276 364 272 363 268 c 0
 351 221 329 155 236 51 c 1
 236 51 236 52 236 52 c 1
 217 29 209 20 200 -20 c 0
 189 -68 188 -83 222 -83 c 0
 352 -83 391 -15 419 -15 c 1
 431 -121 l 1
 310 -171 237 -173 210 -173 c 0
 131 -173 46 -164 42 -74 c 0
 41 -58 43 -40 48 -18 c 2
256 386 m 1
 290 533 l 1
 437 533 l 1
 403 386 l 1
 256 386 l 1
EndSplineSet
EndChar

StartChar: Agrave
Encoding: 286 192 128
Width: 733
Flags: MW
HStem: 0 21G<21 21 21 173 531 531 531 700> 146 104<318 502 318 513 258 502> 675 20G<423 618 618 618> 742 116<569.5 579 384 610 384 694>
VStem: 21 679<0 0>
LayerCount: 2
Fore
SplineSet
384 858 m 1
 449 858 514 858 579 858 c 1
 618 819 657 782 694 742 c 1
 610 742 l 2
 529 742 449 802 376 842 c 1
 384 858 l 1
21 0 m 1
 423 695 l 1
 618 695 l 1
 700 0 l 1
 531 0 l 1
 513 146 l 1
 258 146 l 1
 173 0 l 1
 21 0 l 1
318 250 m 1
 502 250 l 1
 493 336 468 446 474 527 c 1
 449 478 410 414 318 250 c 1
EndSplineSet
Substitution2: "'ss01' Style Set 1 in Latin lookup 24 subtable" uniF25E
Substitution2: "'salt' Stylistic Alternatives in Latin lookup 22 subtable" uniF25E
Substitution2: "'locl' Localized Forms in Latin lookup 6 subtable" uniF25E
Substitution2: "'aalt' Access All Alternates lookup 0 subtable" uniF25E
EndChar

StartChar: Aacute
Encoding: 287 193 129
Width: 733
Flags: MW
HStem: 0 21G<21 21 21 173 531 531 531 700> 146 104<318 502 318 513 258 502> 675 20G<423 618 618 618> 842 16<734 734>
VStem: 21 713
LayerCount: 2
Fore
SplineSet
371 743 m 1
 514 842 l 1
 538 858 l 1
 547 858 555 858 564 858 c 2
 616 858 l 2
 626 858 635 858 645 858 c 2
 734 858 l 1
 734 842 l 1
 515 751 512 742 483 742 c 0
 445 742 409 743 371 743 c 1
21 0 m 1
 423 695 l 1
 618 695 l 1
 700 0 l 1
 531 0 l 1
 513 146 l 1
 258 146 l 1
 173 0 l 1
 21 0 l 1
318 250 m 1
 502 250 l 1
 493 336 468 446 474 527 c 1
 449 478 410 414 318 250 c 1
EndSplineSet
Substitution2: "'ss01' Style Set 1 in Latin lookup 24 subtable" uniF25F
Substitution2: "'salt' Stylistic Alternatives in Latin lookup 22 subtable" uniF25F
Substitution2: "'locl' Localized Forms in Latin lookup 6 subtable" uniF25F
Substitution2: "'aalt' Access All Alternates lookup 0 subtable" uniF25F
EndChar

StartChar: Acircumflex
Encoding: 288 194 130
Width: 733
Flags: MW
HStem: 0 21G<21 21 21 173 531 531 531 700> 146 104<318 502 318 513 258 502> 675 20G<423 618 618 618> 708 200<313 654 313 654 594 594 594 654 488 681>
VStem: 21 679<0 0>
LayerCount: 2
Fore
SplineSet
313 708 m 1
 488 908 l 1
 654 908 l 1
 681 708 l 1
 594 708 l 1
 523 811 l 1
 463 759 l 2
 443 741 422 724 404 708 c 1
 313 708 l 1
21 0 m 1
 423 695 l 1
 618 695 l 1xe8
 700 0 l 1
 531 0 l 1
 513 146 l 1
 258 146 l 1
 173 0 l 1
 21 0 l 1
318 250 m 1
 502 250 l 1
 493 336 468 446 474 527 c 1
 449 478 410 414 318 250 c 1
EndSplineSet
Substitution2: "'ss01' Style Set 1 in Latin lookup 24 subtable" uniF261
Substitution2: "'salt' Stylistic Alternatives in Latin lookup 22 subtable" uniF261
Substitution2: "'locl' Localized Forms in Latin lookup 6 subtable" uniF261
Substitution2: "'aalt' Access All Alternates lookup 0 subtable" uniF261
EndChar

StartChar: Atilde
Encoding: 289 195 131
Width: 733
Flags: MW
HStem: 0 21G<21 21 21 173 531 531 531 700> 146 104<318 502 318 513 258 502> 675 20G<423 618 618 618> 709 91<592 632.5 592 640> 807 90<472.5 477 477 477>
VStem: 21 734
LayerCount: 2
Fore
SplineSet
21 0 m 1
 423 695 l 1
 618 695 l 1
 700 0 l 1
 531 0 l 1
 513 146 l 1
 258 146 l 1
 173 0 l 1
 21 0 l 1
318 250 m 1
 502 250 l 1
 493 336 468 446 474 527 c 1
 449 478 410 414 318 250 c 1
342 708 m 2
 341 709 340 711 339 712 c 0
 339 715 338 717 338 720 c 0xec
 377 866 450 897 495 897 c 0
 568 897 568 800 616 800 c 0xf4
 649 800 661 878 665 897 c 1
 755 897 l 1xec
 725 799 683 709 597 709 c 0
 523 709 528 807 477 807 c 1xf4
 477 807 477 807 477 807 c 1
 442 807 430 721 426 708 c 1
 342 708 l 2
EndSplineSet
Substitution2: "'ss01' Style Set 1 in Latin lookup 24 subtable" uniF260
Substitution2: "'salt' Stylistic Alternatives in Latin lookup 22 subtable" uniF260
Substitution2: "'locl' Localized Forms in Latin lookup 6 subtable" uniF260
Substitution2: "'aalt' Access All Alternates lookup 0 subtable" uniF260
EndChar

StartChar: Adieresis
Encoding: 290 196 132
Width: 733
Flags: MW
HStem: 0 21G<21 21 21 173 531 531 531 700> 146 104<318 502 318 513 258 502> 675 20G<423 618 618 618> 766 128<370 527 399 498 607 706 399 578>
VStem: 21 714
LayerCount: 2
Fore
SplineSet
370 766 m 1
 399 894 l 1
 527 894 l 1
 498 766 l 1
 370 766 l 1
578 766 m 1
 607 894 l 1
 735 894 l 1
 706 766 l 1
 578 766 l 1
21 0 m 1
 423 695 l 1
 618 695 l 1
 700 0 l 1
 531 0 l 1
 513 146 l 1
 258 146 l 1
 173 0 l 1
 21 0 l 1
318 250 m 1
 502 250 l 1
 493 336 468 446 474 527 c 1
 449 478 410 414 318 250 c 1
EndSplineSet
EndChar

StartChar: Aring
Encoding: 291 197 133
Width: 733
Flags: MW
HStem: 0 21G<21 21 21 173 531 531 531 700> 146 104<318 502 318 513 258 502> 674 20G<618 618> 675 20G<479 493> 807 90<508 539>
VStem: 374 82
LayerCount: 2
Fore
SplineSet
21 0 m 1xdc
 391 637 l 1
 372 663 369 701 380 748 c 0
 396 824 440 897 544 897 c 0
 613 896 640 865 645 821 c 0
 651 777 627 709 618 694 c 1xec
 700 0 l 1
 531 0 l 1
 513 146 l 1
 258 146 l 1
 173 0 l 1
 21 0 l 1xdc
318 250 m 1
 502 250 l 1
 498 291 492 334 487 376 c 2
 478 461 l 2
 477 469 476 478 475 487 c 2
 473 513 l 2
 473 518 474 522 474 527 c 1
 449 478 410 414 318 250 c 1
461 754 m 2
 458 742 l 2
 456 734 456 727 456 721 c 0
 456 705 465 695 493 695 c 0xdc
 527 696 552 695 563 770 c 0
 566 794 553 807 525 807 c 0
 491 807 472 802 461 754 c 2
EndSplineSet
EndChar

StartChar: AE
Encoding: 292 198 134
Width: 947
Flags: MW
HStem: 0 126<882 888.5 882 891> 186 104<347 487 284 511> 305 112<702 916 676 942> 574 120 577 118<516 577 516 516>
VStem: 22 1014<0 695>
LayerCount: 2
Fore
SplineSet
22 0 m 1xb4
 434 695 l 1
 1036 695 l 1
 1008 573 l 1
 739 576 l 1
 702 417 l 1
 942 417 l 1
 916 305 l 1
 676 305 l 1xb4
 634 123 l 1
 882 126 l 2
 895 126 907 127 920 127 c 1
 891 0 l 1
 444 0 l 1
 487 186 l 1
 284 186 l 1xf4
 174 0 l 1
 22 0 l 1xb4
347 290 m 1xec
 402 290 456 290 511 290 c 1
 577 577 l 1
 516 577 l 1
 456 477 407 390 347 290 c 1xec
EndSplineSet
EndChar

StartChar: Ccedilla
Encoding: 293 199 135
Width: 703
Flags: MW
HStem: -190 142<210 428> -21 116<450 457> 599 117<495.5 610>
VStem: 118 166
LayerCount: 2
Fore
SplineSet
134 346 m 0
 139 366 143 384 149 402 c 0
 228 649 402 716 589 716 c 0
 667 716 721 704 789 678 c 1
 729 529 l 1
 689 557 660 599 560 599 c 0
 403 599 330 488 298 349 c 0
 265 210 281 95 446 95 c 0
 479 95 504 98 528 103 c 0
 566 113 593 124 631 144 c 2
 671 166 l 1
 651 36 l 1
 568 -3 522 -16 457 -21 c 0
 443 -21 428 -21 414 -20 c 0
 275 -15 155 19 125 146 c 0
 113 197 115 262 134 346 c 0
210 -190 m 1xf0
 333 -47 l 1
 365 -47 396 -48 428 -48 c 1
 334 -190 l 1
 210 -190 l 1xf0
EndSplineSet
EndChar

StartChar: Egrave
Encoding: 294 200 136
Width: 642
Flags: MW
HStem: 0 125 303 112<343 618 317 644> 571 120 742 116<517 520 324 551 324 635>
VStem: 84 654
LayerCount: 2
Fore
SplineSet
324 858 m 1
 389 858 455 858 520 858 c 1
 559 819 598 782 635 742 c 1
 551 742 l 2
 483 742 394 802 316 842 c 1
 324 858 l 1
84 0 m 1
 244 692 l 1
 738 692 l 1
 710 570 l 1
 379 573 l 1
 343 415 l 1
 644 415 l 1
 618 303 l 1
 317 303 l 1
 275 123 l 1
 622 127 l 1
 593 0 l 1
 84 0 l 1
EndSplineSet
Substitution2: "'ss01' Style Set 1 in Latin lookup 24 subtable" uniF263
Substitution2: "'salt' Stylistic Alternatives in Latin lookup 22 subtable" uniF263
Substitution2: "'locl' Localized Forms in Latin lookup 6 subtable" uniF263
Substitution2: "'aalt' Access All Alternates lookup 0 subtable" uniF263
EndChar

StartChar: Eacute
Encoding: 295 201 137
Width: 642
Flags: MW
HStem: 0 125 303 112<343 618 317 644> 571 120 737 121 841 16<661 719>
VStem: 84 654
LayerCount: 2
Fore
SplineSet
355 742 m 1xf4
 523 858 l 1
 604 858 l 2
 623 858 642 857 661 857 c 2
 719 857 l 1xf4
 719 841 l 1xec
 577 781 l 2
 424 715 465 742 430 742 c 2
 355 742 l 1xf4
84 0 m 1
 244 692 l 1
 738 692 l 1
 710 570 l 1
 379 573 l 1
 343 415 l 1
 644 415 l 1
 618 303 l 1
 317 303 l 1
 275 123 l 1
 622 127 l 1
 593 0 l 1
 84 0 l 1
EndSplineSet
Substitution2: "'ss01' Style Set 1 in Latin lookup 24 subtable" uniF264
Substitution2: "'salt' Stylistic Alternatives in Latin lookup 22 subtable" uniF264
Substitution2: "'locl' Localized Forms in Latin lookup 6 subtable" uniF264
Substitution2: "'aalt' Access All Alternates lookup 0 subtable" uniF264
EndChar

StartChar: Ecircumflex
Encoding: 296 202 138
Width: 642
Flags: MW
HStem: 0 125 303 112<343 618 317 644> 571 120 708 200<278 570 278 570 558 558 558 570 453 650>
VStem: 84 654
LayerCount: 2
Fore
SplineSet
278 708 m 1
 453 908 l 1
 570 908 l 1
 650 708 l 1
 558 708 l 1
 488 811 l 1
 429 759 l 2
 409 741 388 724 370 708 c 1
 278 708 l 1
84 0 m 1
 244 692 l 1
 738 692 l 1
 710 570 l 1
 379 573 l 1xe8
 343 415 l 1
 644 415 l 1
 618 303 l 1
 317 303 l 1
 275 123 l 1
 622 127 l 1
 593 0 l 1
 84 0 l 1
EndSplineSet
Substitution2: "'ss01' Style Set 1 in Latin lookup 24 subtable" uniF265
Substitution2: "'salt' Stylistic Alternatives in Latin lookup 22 subtable" uniF265
Substitution2: "'locl' Localized Forms in Latin lookup 6 subtable" uniF265
Substitution2: "'aalt' Access All Alternates lookup 0 subtable" uniF265
EndChar

StartChar: Edieresis
Encoding: 297 203 139
Width: 642
Flags: MW
HStem: 0 125 303 112<343 618 317 644> 571 120 766 128<310 467 339 438 339 518 547 646>
VStem: 84 654
LayerCount: 2
Fore
SplineSet
518 766 m 1
 547 894 l 1
 675 894 l 1
 646 766 l 1
 518 766 l 1
310 766 m 1
 339 894 l 1
 467 894 l 1
 438 766 l 1
 310 766 l 1
84 0 m 1
 244 692 l 1
 738 692 l 1
 710 570 l 1
 379 573 l 1
 343 415 l 1
 644 415 l 1
 618 303 l 1
 317 303 l 1
 275 123 l 1
 622 127 l 1
 593 0 l 1
 84 0 l 1
EndSplineSet
EndChar

StartChar: Igrave
Encoding: 298 204 140
Width: 331
Flags: MW
HStem: 0 21G<82 82 82 245> 675 20G<242 405 405 405> 742 116<356.5 366 171 397 171 481>
VStem: 82 399
LayerCount: 2
Fore
SplineSet
171 858 m 1
 236 858 301 858 366 858 c 1
 405 819 444 782 481 742 c 1
 397 742 l 2
 316 742 236 802 163 842 c 1
 171 858 l 1
82 0 m 1
 242 695 l 1
 405 695 l 1
 245 0 l 1
 82 0 l 1
EndSplineSet
Substitution2: "'ss01' Style Set 1 in Latin lookup 24 subtable" uniF266
Substitution2: "'salt' Stylistic Alternatives in Latin lookup 22 subtable" uniF266
Substitution2: "'locl' Localized Forms in Latin lookup 6 subtable" uniF266
Substitution2: "'aalt' Access All Alternates lookup 0 subtable" uniF266
EndChar

StartChar: Iacute
Encoding: 299 205 141
Width: 331
Flags: MW
HStem: 0 21G<82 82 82 245> 675 20G<242 405 405 405> 735 123
VStem: 82 499
LayerCount: 2
Fore
SplineSet
217 742 m 1
 230 751 244 762 259 773 c 0
 345 837 386 858 469 858 c 2
 547 858 l 2
 565 858 581 864 581 841 c 1
 440 781 l 2
 276 711 342 742 281 742 c 2
 217 742 l 1
82 0 m 1
 242 695 l 1
 405 695 l 1
 245 0 l 1
 82 0 l 1
EndSplineSet
Substitution2: "'ss01' Style Set 1 in Latin lookup 24 subtable" uniF267
Substitution2: "'salt' Stylistic Alternatives in Latin lookup 22 subtable" uniF267
Substitution2: "'locl' Localized Forms in Latin lookup 6 subtable" uniF267
Substitution2: "'aalt' Access All Alternates lookup 0 subtable" uniF267
EndChar

StartChar: Icircumflex
Encoding: 300 206 142
Width: 331
Flags: MW
HStem: 0 21G<82 82 82 245> 675 20G<242 405 405 405> 708 200<140 432 140 432 421 421 421 432 315 513>
VStem: 82 431
LayerCount: 2
Fore
SplineSet
140 708 m 1
 315 908 l 1
 432 908 l 1
 513 708 l 1
 421 708 l 1
 351 811 l 1
 291 759 l 2
 271 741 251 724 232 708 c 1
 140 708 l 1
82 0 m 1
 242 695 l 1
 405 695 l 1xd0
 245 0 l 1
 82 0 l 1
EndSplineSet
EndChar

StartChar: Idieresis
Encoding: 301 207 143
Width: 331
Flags: MW
HStem: 0 21G<81 81 81 244> 675 20G<241 404 404 404> 766 128<172 329 201 300 201 380 409 508>
VStem: 81 456
LayerCount: 2
Fore
SplineSet
380 766 m 1
 409 894 l 1
 537 894 l 1
 508 766 l 1
 380 766 l 1
172 766 m 1
 201 894 l 1
 329 894 l 1
 300 766 l 1
 172 766 l 1
81 0 m 1
 241 695 l 1
 404 695 l 1
 244 0 l 1
 81 0 l 1
EndSplineSet
EndChar

StartChar: Eth
Encoding: 302 208 144
Width: 794
Flags: MW
HStem: 0 104<269 360 360 376> 296 91<63 174 84 153 334 469> 591 104<381 480 381 381>
VStem: 656 165
LayerCount: 2
Fore
SplineSet
63 296 m 1
 84 387 l 1
 174 387 l 1
 245 695 l 1
 536 695 l 1
 536 695 536 695 536 695 c 1
 730 695 871 628 805 340 c 0
 736 45 544 0 376 0 c 2
 85 0 l 1
 153 296 l 1
 63 296 l 1
269 104 m 1
 360 104 l 1
 391 104 l 2
 457 106 522 119 575 176 c 2
 575 176 574 175 574 175 c 1
 635 245 656 367 656 431 c 0
 656 570 571 591 480 591 c 2
 381 591 l 1
 334 387 l 1
 490 387 l 1
 469 296 l 1
 313 296 l 1
 269 104 l 1
EndSplineSet
EndChar

StartChar: Ntilde
Encoding: 303 209 145
Width: 794
Flags: MW
HStem: 0 21G<84 84 84 223 495 495 495 698> 0 167<495 597 597 597 597 698> 527 168<345 345> 675 20G<244 446 446 446 718 858 858 858> 708 10<369 376 369 456> 709 92<628.5 650> 807 90<502 531>
VStem: 84 774<0 695>
LayerCount: 2
Fore
SplineSet
84 0 m 1x93
 244 695 l 1
 446 695 l 1
 597 167 l 1x53
 718 695 l 1
 858 695 l 1
 698 0 l 1
 495 0 l 1
 345 527 l 1xa3
 223 0 l 1
 84 0 l 1x93
376 708 m 1x9b
 369 718 l 1
 403 856 478 897 526 897 c 0x9b
 553 897 570 886 584 868 c 0
 600 847 613 801 644 801 c 0x95
 666 801 678 821 696 897 c 1
 786 897 l 1x93
 750 750 673 709 627 709 c 0x95
 556 709 555 807 507 807 c 0
 479 807 470 760 456 708 c 1
 376 708 l 1x9b
EndSplineSet
EndChar

StartChar: Ograve
Encoding: 304 210 146
Width: 794
Flags: MW
HStem: -21 98<381.5 446 381.5 520> 621 95<473 556> 742 116<605 609 413 640 413 724>
VStem: 117 162 666 158
LayerCount: 2
Fore
SplineSet
413 858 m 1
 478 858 544 858 609 858 c 1
 648 819 687 782 724 742 c 1
 640 742 l 2
 570 742 483 802 406 842 c 1
 413 858 l 1
134 345 m 0
 142 380 152 412 163 442 c 0
 241 647 392 716 554 716 c 0xd8
 757 716 869 615 806 343 c 0
 761 151 654 -21 386 -21 c 0
 109 -21 92 160 134 345 c 0
302 369 m 0
 298 354 294 339 291 323 c 0
 278 261 271 198 290 145 c 0
 310 100 355 77 408 77 c 0
 484 77 596 124 650 377 c 0
 667 452 680 531 636 584 c 1
 636 584 636 583 636 583 c 1
 615 606 579 621 533 621 c 0xd8
 383 621 327 480 302 369 c 0
EndSplineSet
Substitution2: "'ss01' Style Set 1 in Latin lookup 24 subtable" uniF272
Substitution2: "'salt' Stylistic Alternatives in Latin lookup 22 subtable" uniF272
Substitution2: "'locl' Localized Forms in Latin lookup 6 subtable" uniF272
Substitution2: "'aalt' Access All Alternates lookup 0 subtable" uniF272
EndChar

StartChar: Oacute
Encoding: 305 211 147
Width: 794
Flags: MW
HStem: -21 98<381.5 446 381.5 520> 621 95<473 556> 842 16<763 763>
VStem: 117 162 666 158
LayerCount: 2
Fore
SplineSet
401 743 m 1
 544 842 l 1
 568 858 l 1
 646 858 l 1
 763 858 l 1
 763 842 l 1
 622 781 l 2
 531 742 531 742 514 742 c 0
 476 742 439 743 401 743 c 1
134 345 m 0
 142 380 152 412 163 442 c 0
 241 647 392 716 554 716 c 0
 757 716 869 615 806 343 c 0
 761 151 654 -21 386 -21 c 0
 109 -21 92 160 134 345 c 0
302 369 m 0
 298 354 294 339 291 323 c 0
 278 261 271 198 290 145 c 0
 310 100 355 77 408 77 c 0
 484 77 596 124 650 377 c 0
 667 452 680 531 636 584 c 1
 636 584 636 583 636 583 c 1
 615 606 579 621 533 621 c 0
 383 621 327 480 302 369 c 0
EndSplineSet
Substitution2: "'ss01' Style Set 1 in Latin lookup 24 subtable" uniF273
Substitution2: "'salt' Stylistic Alternatives in Latin lookup 22 subtable" uniF273
Substitution2: "'locl' Localized Forms in Latin lookup 6 subtable" uniF273
Substitution2: "'aalt' Access All Alternates lookup 0 subtable" uniF273
EndChar

StartChar: Ocircumflex
Encoding: 306 212 148
Width: 794
Flags: MW
HStem: -21 98<381.5 446 381.5 520> 621 95<473 556> 708 8<649 649 649 655.5 473 740>
VStem: 117 162 666 158
LayerCount: 2
Fore
SplineSet
367 708 m 1xb8
 542 908 l 1
 659 908 l 1
 740 708 l 1
 649 708 l 1
 577 811 l 1
 518 759 l 2
 498 741 477 724 459 708 c 1
 367 708 l 1xb8
134 345 m 0
 142 380 152 412 163 442 c 0
 241 647 392 716 554 716 c 0
 757 716 869 615 806 343 c 0
 761 151 654 -21 386 -21 c 0
 109 -21 92 160 134 345 c 0
302 369 m 0
 298 354 294 339 291 323 c 0
 278 261 271 198 290 145 c 0
 310 100 355 77 408 77 c 0
 484 77 596 124 650 377 c 0
 667 452 680 531 636 584 c 1
 636 584 636 583 636 583 c 1
 615 606 579 621 533 621 c 0xd8
 383 621 327 480 302 369 c 0
EndSplineSet
Substitution2: "'ss01' Style Set 1 in Latin lookup 24 subtable" uniF275
Substitution2: "'salt' Stylistic Alternatives in Latin lookup 22 subtable" uniF275
Substitution2: "'locl' Localized Forms in Latin lookup 6 subtable" uniF275
Substitution2: "'aalt' Access All Alternates lookup 0 subtable" uniF275
EndChar

StartChar: Otilde
Encoding: 307 213 149
Width: 794
Flags: MW
HStem: -21 98<381.5 446 381.5 520> 621 95<473 556> 749 91 847 90<514.5 537>
VStem: 117 162 666 158
LayerCount: 2
Fore
SplineSet
134 345 m 0
 142 380 152 412 163 442 c 0
 241 647 392 716 554 716 c 0
 757 716 869 614 806 343 c 0
 761 151 654 -21 386 -21 c 0
 109 -21 92 160 134 345 c 0
302 369 m 0
 298 354 294 339 291 323 c 0
 278 261 271 198 290 145 c 0
 310 100 355 77 408 77 c 0
 484 77 596 124 650 377 c 0
 667 452 680 531 636 584 c 1
 636 584 636 583 636 583 c 1
 615 606 579 621 533 621 c 0
 383 621 327 480 302 369 c 0
376 748 m 1
 378 758 380 767 383 776 c 0
 423 911 494 937 535 937 c 0xdc
 609 937 606 840 654 840 c 0
 687 840 700 916 705 937 c 1
 795 937 l 1
 767 844 726 756 645 749 c 1xec
 576 762 558 847 516 847 c 0
 506 847 498 839 491 829 c 0
 475 803 468 758 465 748 c 1
 376 748 l 1
EndSplineSet
Substitution2: "'ss01' Style Set 1 in Latin lookup 24 subtable" uniF274
Substitution2: "'salt' Stylistic Alternatives in Latin lookup 22 subtable" uniF274
Substitution2: "'locl' Localized Forms in Latin lookup 6 subtable" uniF274
Substitution2: "'aalt' Access All Alternates lookup 0 subtable" uniF274
EndChar

StartChar: Odieresis
Encoding: 308 214 150
Width: 794
Flags: MW
HStem: -21 98<381.5 446 381.5 520> 621 95<473 556> 766 128<400 558 429 529 429 607 636 736>
VStem: 117 162 666 158
LayerCount: 2
Fore
SplineSet
607 766 m 1
 636 894 l 1
 765 894 l 1
 736 766 l 1
 607 766 l 1
400 766 m 1
 429 894 l 1
 558 894 l 1
 529 766 l 1
 400 766 l 1
134 345 m 0
 142 380 152 412 163 442 c 0
 241 647 392 716 554 716 c 0
 757 716 869 615 806 343 c 0
 761 151 654 -21 386 -21 c 0
 109 -21 92 160 134 345 c 0
302 369 m 0
 298 354 294 339 291 323 c 0
 278 261 271 198 290 145 c 0
 310 100 355 77 408 77 c 0
 484 77 596 124 650 377 c 0
 667 452 680 531 636 584 c 1
 636 584 636 583 636 583 c 1
 615 606 579 621 533 621 c 0
 383 621 327 480 302 369 c 0
EndSplineSet
EndChar

StartChar: multiply
Encoding: 309 215 151
Width: 672
Flags: MW
HStem: 456 20G<274 294 590 604.5>
VStem: 143 498
LayerCount: 2
Fore
SplineSet
144 105 m 0
 145 110 148 115 152 121 c 1
 152 121 152 121 152 121 c 1
 176 154 218 178 321 266 c 1
 307 285 293 304 279 323 c 2
 255 353 l 2
 215 404 215 407 219 427 c 0
 225 452 249 472 274 476 c 1
 314 476 299 481 409 337 c 1
 571 473 579 476 601 476 c 0
 608 476 614 474 619 472 c 0
 636 465 644 447 640 427 c 0
 634 396 605 384 462 265 c 1
 484 237 511 204 530 179 c 0
 570 128 569 125 565 106 c 0
 563 97 560 91 556 85 c 0
 539 59 504 53 501 55 c 0
 469 57 454 93 375 194 c 1
 306 137 l 2
 219 65 210 55 184 55 c 0
 171 55 159 61 152 70 c 0
 144 79 141 92 144 105 c 0
EndSplineSet
EndChar

StartChar: Oslash
Encoding: 310 216 152
Width: 856
Flags: MW
HStem: -21 89<437 437 437 545> -16 21G<148 148> -3 21G 626 90<497 584.5> 676 20G<731 731> 690 20G<853 853>
VStem: 134 131 739 143
LayerCount: 2
Fore
SplineSet
134 342 m 0x93
 139 365 145 387 152 407 c 0
 234 653 409 716 585 716 c 0x93
 640 716 687 710 731 696 c 1
 782 758 l 1x8b
 853 710 l 1
 807 653 l 1
 849 619 873 569 879 505 c 0
 902 284 778 -21 416 -21 c 0x87
 366 -21 315 -17 269 -3 c 1
 262 -13 253 -24 244 -34 c 2
 220 -63 l 1x33
 148 -16 l 1
 193 39 l 1x53
 153 72 128 120 121 181 c 0
 115 227 120 280 134 342 c 0x93
274 321 m 0
 270 302 267 282 265 261 c 0
 260 220 261 178 276 143 c 1
 339 220 403 298 468 376 c 2
 661 609 l 1
 636 619 604 626 565 626 c 0
 351 626 305 458 274 321 c 0
340 84 m 1
 364 74 392 68 437 68 c 1
 437 68 437 68 437 68 c 1
 653 68 697 242 721 348 c 0
 739 424 750 490 723 551 c 1
 661 474 596 396 531 317 c 2
 340 84 l 1
EndSplineSet
EndChar

StartChar: Ugrave
Encoding: 311 217 153
Width: 764
Flags: MW
HStem: -21 103<398 398 398 464 398 491.5> 675 20G<244 407 407 407 675 827 827 827> 842 16<391 496>
VStem: 129 162
LayerCount: 2
Fore
SplineSet
399 858 m 1
 431 858 463 858 496 858 c 0
 625 858 642 809 709 742 c 1
 625 742 l 2
 544 742 464 802 391 842 c 1
 399 858 l 1
141 249 m 2
 244 695 l 1
 407 695 l 1
 301 233 l 2
 296 212 292 192 291 174 c 0
 287 120 307 82 398 82 c 1
 398 82 398 82 398 82 c 1
 530 82 553 166 569 235 c 2
 675 695 l 1
 827 695 l 1
 724 245 l 2
 690 100 608 -21 375 -21 c 0
 124 -21 109 108 141 249 c 2
EndSplineSet
Substitution2: "'ss01' Style Set 1 in Latin lookup 24 subtable" uniF276
Substitution2: "'salt' Stylistic Alternatives in Latin lookup 22 subtable" uniF276
Substitution2: "'locl' Localized Forms in Latin lookup 6 subtable" uniF276
Substitution2: "'aalt' Access All Alternates lookup 0 subtable" uniF276
EndChar

StartChar: Uacute
Encoding: 312 218 154
Width: 764
Flags: MW
HStem: -21 103<398 398 398 464 398 491.5> 675 20G<244 407 407 407 675 827 827 827> 842 16<793 793>
VStem: 129 162
LayerCount: 2
Fore
SplineSet
431 743 m 1
 574 842 l 1
 598 858 l 1
 676 858 l 1
 793 858 l 1
 793 842 l 1
 652 781 l 2
 561 742 561 742 544 742 c 0
 506 742 469 743 431 743 c 1
141 249 m 2
 244 695 l 1
 407 695 l 1
 301 233 l 2
 296 212 292 192 291 174 c 0
 287 120 307 82 398 82 c 1
 398 82 398 82 398 82 c 1
 530 82 553 166 569 235 c 2
 675 695 l 1
 827 695 l 1
 724 245 l 2
 690 100 608 -21 375 -21 c 0
 124 -21 109 108 141 249 c 2
EndSplineSet
Substitution2: "'ss01' Style Set 1 in Latin lookup 24 subtable" uniF277
Substitution2: "'salt' Stylistic Alternatives in Latin lookup 22 subtable" uniF277
Substitution2: "'locl' Localized Forms in Latin lookup 6 subtable" uniF277
Substitution2: "'aalt' Access All Alternates lookup 0 subtable" uniF277
EndChar

StartChar: Ucircumflex
Encoding: 313 219 155
Width: 764
Flags: MW
HStem: -21 103<398 398 398 464 398 491.5> 675 20G<244 407 407 407 675 827 827 827> 708 200<355 641 355 641 636 636 636 641 530 729>
VStem: 129 162
LayerCount: 2
Fore
SplineSet
355 708 m 1
 530 908 l 1
 641 908 l 1
 729 708 l 1
 636 708 l 1
 566 811 l 1
 506 759 l 2
 486 741 465 724 447 708 c 1
 355 708 l 1
141 249 m 2
 244 695 l 1
 407 695 l 1
 301 233 l 2
 296 212 292 192 291 174 c 0
 287 120 307 82 398 82 c 1
 398 82 398 82 398 82 c 1
 530 82 553 166 569 235 c 2
 675 695 l 1
 827 695 l 1xd0
 724 245 l 2
 690 100 608 -21 375 -21 c 0
 124 -21 109 108 141 249 c 2
EndSplineSet
EndChar

StartChar: Udieresis
Encoding: 314 220 156
Width: 764
Flags: MW
HStem: -21 103<398 398 398 464 398 491.5> 675 20G<244 407 407 407 675 827 827 827> 766 128<385 542 414 513 414 592 621 721>
VStem: 129 162
LayerCount: 2
Fore
SplineSet
592 766 m 1
 621 894 l 1
 750 894 l 1
 721 766 l 1
 592 766 l 1
385 766 m 1
 414 894 l 1
 542 894 l 1
 513 766 l 1
 385 766 l 1
141 249 m 2
 244 695 l 1
 407 695 l 1
 301 233 l 2
 296 212 292 192 291 174 c 0
 287 120 307 82 398 82 c 1
 398 82 398 82 398 82 c 1
 530 82 553 166 569 235 c 2
 675 695 l 1
 827 695 l 1
 724 245 l 2
 690 100 608 -21 375 -21 c 0
 124 -21 109 108 141 249 c 2
EndSplineSet
EndChar

StartChar: Yacute
Encoding: 315 221 157
Width: 733
Flags: MW
HStem: 0 21G<280 441 280 280> 658 37<149 361> 842 16<777 777>
VStem: 149 742<695 695>
LayerCount: 2
Fore
SplineSet
415 743 m 1
 558 842 l 1
 582 858 l 1
 660 858 l 1
 777 858 l 1
 777 842 l 1
 636 781 l 2
 545 742 545 742 528 742 c 0
 490 742 453 743 415 743 c 1
149 695 m 1
 344 695 l 1
 361 657 l 1
 361 657 361 658 361 658 c 1
 380 615 396 581 409 553 c 2
 440 487 l 2
 455 453 462 436 466 422 c 1
 514 483 669 640 713 695 c 1
 891 695 l 1
 505 277 l 1
 441 0 l 1
 280 0 l 1
 344 277 l 1
 149 695 l 1
EndSplineSet
Substitution2: "'ss01' Style Set 1 in Latin lookup 24 subtable" uniF279
Substitution2: "'salt' Stylistic Alternatives in Latin lookup 22 subtable" uniF279
Substitution2: "'locl' Localized Forms in Latin lookup 6 subtable" uniF279
Substitution2: "'aalt' Access All Alternates lookup 0 subtable" uniF279
EndChar

StartChar: Thorn
Encoding: 316 222 158
Width: 642
Flags: MW
HStem: 0 21G<83 83 83 241> 175 104<305 369 369 377 281 369> 491 104<378 419 355 468> 491 204<355 401 243 419 355 355>
VStem: 516 158
LayerCount: 2
Fore
SplineSet
83 0 m 1xe8
 243 695 l 1
 401 695 l 1xd8
 378 595 l 1
 468 595 l 2
 508 595 556 594 596 577 c 0
 674 540 685 466 667 387 c 0
 620 181 452 175 377 175 c 2
 281 175 l 1
 241 0 l 1
 83 0 l 1xe8
305 279 m 1
 326 279 348 279 369 279 c 0xd8
 425 279 488 282 512 385 c 0
 535 488 453 491 419 491 c 2
 355 491 l 1
 349 467 l 1
 349 467 349 467 349 467 c 1xe8
 305 279 l 1
EndSplineSet
EndChar

StartChar: germandbls
Encoding: 317 223 159
Width: 565
Flags: MW
HStem: -11 90<315.5 361.5 315.5 368.5> 0 11 607 89<395 435>
VStem: 434 150
LayerCount: 2
Fore
SplineSet
54 0 m 1x70
 180 547 l 2
 208 668 309 696 436 696 c 0
 503 696 658 693 626 556 c 0
 620 527 598 466 530 424 c 1
 550 406 565 383 574 354 c 0
 587 311 587 257 572 193 c 0
 534 32 422 -11 315 -11 c 0xb0
 266 -11 233 2 213 11 c 1x70
 262 94 l 1
 280 86 302 79 329 79 c 0xb0
 394 79 412 140 422 189 c 0
 438 256 437 300 426 329 c 0
 410 372 371 382 330 384 c 1
 350 472 l 1
 412 474 462 487 477 555 c 0
 489 607 446 607 424 607 c 0
 366 607 341 601 329 549 c 2
 202 0 l 1
 54 0 l 1x70
EndSplineSet
EndChar

StartChar: agrave
Encoding: 318 224 160
Width: 525
Flags: MW
HStem: -11 21G<134.5 191> 0 80<252 460 252 312> 219 58<361 361> 405 83<332 345 345 345> 520 153<451.5 456 294 483 294 529>
VStem: 55 145 388 151
LayerCount: 2
Fore
SplineSet
55 133 m 0xbe
 57 144 61 153 66 162 c 0xbe
 122 270 324 277 374 277 c 1
 383 317 l 2
 387 333 391 355 388 373 c 0
 385 391 373 405 345 405 c 1
 345 405 345 405 345 405 c 1
 264 405 211 364 181 340 c 2
 157 319 l 1
 176 443 l 1
 246 475 297 488 367 488 c 0
 523 488 556 420 532 312 c 2
 460 0 l 1
 312 0 l 1x7e
 323 49 l 1
 277 10 218 -11 164 -11 c 0
 105 -11 65 25 54 73 c 0
 50 92 50 113 55 133 c 0xbe
201 135 m 0
 200 129 200 124 200 118 c 0xbe
 201 95 218 79 245 79 c 0
 247 79 250 80 254 80 c 0
 286 80 333 103 346 157 c 2
 361 219 l 1x7e
 303 212 216 201 201 135 c 0
294 673 m 1
 348 673 402 673 456 673 c 1
 529 520 l 1
 483 520 l 2
 420 520 412 547 380 581 c 2
 342 622 l 2
 337 628 331 633 326 639 c 2
 294 673 l 1
EndSplineSet
Substitution2: "'ss01' Style Set 1 in Latin lookup 24 subtable" uniF268
Substitution2: "'salt' Stylistic Alternatives in Latin lookup 22 subtable" uniF268
Substitution2: "'locl' Localized Forms in Latin lookup 6 subtable" uniF268
Substitution2: "'aalt' Access All Alternates lookup 0 subtable" uniF268
EndChar

StartChar: aacute
Encoding: 319 225 161
Width: 525
Flags: MW
HStem: -11 21G<134.5 191> 0 80<252 460 252 312> 219 58<361 361> 405 83<332 345 345 345> 520 153<247 551 247 551 308 551>
VStem: 55 145 388 151
LayerCount: 2
Fore
SplineSet
247 520 m 1xbe
 390 673 l 1
 551 673 l 1
 339 520 l 1
 329 520 318 520 308 520 c 2
 247 520 l 1xbe
55 133 m 0
 57 144 61 153 66 162 c 0xbe
 122 270 324 277 374 277 c 1
 383 317 l 2
 387 333 391 355 388 373 c 0
 385 391 373 405 345 405 c 1
 345 405 345 405 345 405 c 1
 264 405 211 364 181 340 c 2
 157 319 l 1
 176 443 l 1
 246 475 297 488 367 488 c 0
 523 488 556 420 532 312 c 2
 460 0 l 1
 312 0 l 1x7e
 323 49 l 1
 277 10 218 -11 164 -11 c 0
 105 -11 65 25 54 73 c 0
 50 92 50 113 55 133 c 0
201 135 m 0
 200 129 200 124 200 118 c 0xbe
 201 95 218 79 245 79 c 0
 247 79 250 80 254 80 c 0
 286 80 333 103 346 157 c 2
 361 219 l 1x7e
 303 212 216 201 201 135 c 0
EndSplineSet
Substitution2: "'ss01' Style Set 1 in Latin lookup 24 subtable" uniF269
Substitution2: "'salt' Stylistic Alternatives in Latin lookup 22 subtable" uniF269
Substitution2: "'locl' Localized Forms in Latin lookup 6 subtable" uniF269
Substitution2: "'aalt' Access All Alternates lookup 0 subtable" uniF269
EndChar

StartChar: acircumflex
Encoding: 320 226 162
Width: 525
Flags: MW
HStem: -11 21G<134.5 191> 0 80<252 460 252 312> 219 58<361 361> 405 83<332 345 345 345> 519 164<189 495 468 468 468 495 357 559>
VStem: 55 145 388 151
LayerCount: 2
Fore
SplineSet
189 519 m 1xbe
 357 683 l 1
 495 683 l 1
 559 519 l 1
 468 519 l 1
 394 602 l 1
 377 589 357 574 338 560 c 2
 283 519 l 1
 189 519 l 1xbe
55 133 m 0
 57 144 61 153 66 162 c 0xbe
 122 270 324 277 374 277 c 1
 383 317 l 2
 387 333 391 355 388 373 c 0
 385 391 373 405 345 405 c 1
 345 405 345 405 345 405 c 1
 264 405 211 364 181 340 c 2
 157 319 l 1
 176 443 l 1
 246 475 297 488 367 488 c 0
 523 488 556 420 532 312 c 2
 460 0 l 1
 312 0 l 1x7e
 323 49 l 1
 277 10 218 -11 164 -11 c 0
 105 -11 65 25 54 73 c 0
 50 92 50 113 55 133 c 0
201 135 m 0
 200 129 200 124 200 118 c 0xbe
 201 95 218 79 245 79 c 0
 247 79 250 80 254 80 c 0
 286 80 333 103 346 157 c 2
 361 219 l 1x7e
 303 212 216 201 201 135 c 0
EndSplineSet
Substitution2: "'ss01' Style Set 1 in Latin lookup 24 subtable" uniF26B
Substitution2: "'salt' Stylistic Alternatives in Latin lookup 22 subtable" uniF26B
Substitution2: "'locl' Localized Forms in Latin lookup 6 subtable" uniF26B
Substitution2: "'aalt' Access All Alternates lookup 0 subtable" uniF26B
EndChar

StartChar: atilde
Encoding: 321 227 163
Width: 525
Flags: MW
HStem: -11 21G<134.5 191> 0 80<252 460 252 312> 219 58<361 361> 405 83<332 345 345 345> 555 10<220 228 220 307> 555 90<436.5 499> 555 140<228 396.5 228 396.5 334.5 475.5> 605 90<341.5 364.5>
VStem: 55 145 388 151
LayerCount: 2
Fore
SplineSet
228 555 m 1xb9c0
 220 565 l 1
 240 642 303 695 366 695 c 0xb2c0
 427 695 445 660 484 646 c 0
 487 645 490 645 493 645 c 0xb4c0
 505 645 523 656 533 695 c 1
 621 695 l 1
 603 626 554 568 493 557 c 0
 486 556 479 555 472 555 c 0xb2c0
 401 555 382 605 347 605 c 0
 336 605 320 597 307 555 c 1
 228 555 l 1xb9c0
55 133 m 0
 57 144 61 153 66 162 c 0xb2c0
 122 270 324 277 374 277 c 1
 383 317 l 2
 387 333 391 355 388 373 c 0
 385 391 373 405 345 405 c 1
 345 405 345 405 345 405 c 1
 264 405 211 364 181 340 c 2
 157 319 l 1
 176 443 l 1
 246 475 297 488 367 488 c 0
 523 488 556 420 532 312 c 2
 460 0 l 1
 312 0 l 1x72c0
 323 49 l 1
 277 10 218 -11 164 -11 c 0
 105 -11 65 25 54 73 c 0
 50 92 50 113 55 133 c 0
201 135 m 0
 200 129 200 124 200 118 c 0
 201 95 218 79 245 79 c 0
 247 79 250 80 254 80 c 0
 286 80 333 103 346 157 c 2
 361 219 l 1
 303 212 216 201 201 135 c 0
EndSplineSet
Substitution2: "'ss01' Style Set 1 in Latin lookup 24 subtable" uniF26A
Substitution2: "'salt' Stylistic Alternatives in Latin lookup 22 subtable" uniF26A
Substitution2: "'locl' Localized Forms in Latin lookup 6 subtable" uniF26A
Substitution2: "'aalt' Access All Alternates lookup 0 subtable" uniF26A
EndChar

StartChar: adieresis
Encoding: 322 228 164
Width: 525
Flags: MW
HStem: -11 21G<134.5 191> 0 80<252 460 252 312> 219 58<361 361> 405 83<332 345 345 345> 543 127<210 366 240 336 240 415 445 542>
VStem: 55 145 388 151
LayerCount: 2
Fore
SplineSet
415 543 m 1xbe
 445 670 l 1
 572 670 l 1
 542 543 l 1
 415 543 l 1xbe
210 543 m 1x7e
 240 670 l 1
 366 670 l 1
 336 543 l 1
 210 543 l 1x7e
55 133 m 0
 57 144 61 153 66 162 c 0
 122 270 324 277 374 277 c 1xbe
 383 317 l 2
 387 333 391 355 388 373 c 0
 385 391 373 405 345 405 c 1
 345 405 345 405 345 405 c 1x7e
 264 405 211 364 181 340 c 2
 157 319 l 1
 176 443 l 1xbe
 246 475 297 488 367 488 c 0
 523 488 556 420 532 312 c 2
 460 0 l 1
 312 0 l 1
 323 49 l 1
 277 10 218 -11 164 -11 c 0
 105 -11 65 25 54 73 c 0
 50 92 50 113 55 133 c 0
201 135 m 0
 200 129 200 124 200 118 c 0
 201 95 218 79 245 79 c 0
 247 79 250 80 254 80 c 0
 286 80 333 103 346 157 c 2
 361 219 l 1
 303 212 216 201 201 135 c 0
EndSplineSet
EndChar

StartChar: aring
Encoding: 323 229 165
Width: 525
Flags: MW
HStem: -11 21G<134.5 191> 0 80<252 460 252 312> 219 58<361 361> 405 82<336 344 336 345 336 345> 527 51<402 406.5 388 411> 659 53<391 424.5>
VStem: 55 145 268 82 388 152
LayerCount: 2
Fore
SplineSet
272 618 m 0xbf80
 288 688 349 712 421 712 c 0
 528 712 535 659 526 619 c 0
 512 557 467 533 411 527 c 0
 393 527 378 528 364 529 c 0
 268 538 261 571 272 618 c 0xbf80
350 619 m 0
 343 585 356 580 388 578 c 0
 425 578 440 588 447 618 c 0
 455 651 441 659 408 659 c 0
 374 659 357 651 350 619 c 0
55 133 m 0
 57 144 61 153 66 162 c 0xbf80
 122 270 324 277 374 277 c 1
 383 317 l 2
 387 333 391 355 388 373 c 0
 385 391 373 405 345 405 c 1
 345 405 345 405 345 405 c 1
 264 405 211 364 181 340 c 2
 157 319 l 1
 176 443 l 1
 236 470 280 484 336 487 c 0
 352 487 368 487 382 486 c 0
 522 476 558 423 532 312 c 2
 460 0 l 1
 312 0 l 1x7f80
 323 49 l 1
 277 10 218 -11 164 -11 c 0
 105 -11 65 25 54 73 c 0
 50 92 50 113 55 133 c 0
201 135 m 0
 200 129 200 124 200 118 c 0xbf80
 201 95 218 79 245 79 c 0
 247 79 250 80 254 80 c 0
 286 80 333 103 346 157 c 2
 361 219 l 1x7f80
 303 212 216 201 201 135 c 0
EndSplineSet
EndChar

StartChar: ae
Encoding: 324 230 166
Width: 794
Flags: MW
HStem: -11 90<119.5 273> 212 73 240 71<541 690 541 805 519 690> 399 89<643 663.5> 405 83<338 369.5>
VStem: 55 147 359 149 690 129
LayerCount: 2
Fore
SplineSet
58 136 m 0xb7
 61 148 65 158 70 168 c 0
 128 277 328 284 379 285 c 1
 387 319 l 2xd7
 389 326 391 336 392 345 c 0
 395 373 390 405 349 405 c 0
 327 405 305 401 286 395 c 0
 227 374 187 341 160 319 c 1xaf
 179 443 l 1
 245 473 296 488 370 488 c 0
 426 488 478 485 510 453 c 1
 566 484 623 488 663 488 c 0
 766 488 811 444 819 370 c 0
 823 331 816 286 805 240 c 1
 519 240 l 1
 506 182 499 131 529 100 c 1
 529 100 528 100 528 100 c 1
 542 84 562 79 586 79 c 0
 671 79 750 139 771 154 c 1
 753 40 l 1
 697 12 641 -10 585 -10 c 0
 577 -11 568 -11 560 -11 c 0
 459 -11 420 20 399 39 c 1
 321 -7 213 -11 171 -11 c 0
 68 -11 44 73 58 136 c 0xb7
203 136 m 0xd7
 202 133 202 129 202 124 c 0
 202 104 213 79 250 79 c 0
 296 79 353 100 359 128 c 0
 359 145 354 168 363 212 c 1
 248 203 211 167 203 136 c 0xd7
541 311 m 1xb7
 591 311 640 311 690 311 c 1
 695 348 685 399 642 399 c 0
 586 399 553 341 541 311 c 1xb7
EndSplineSet
EndChar

StartChar: ccedilla
Encoding: 325 231 167
Width: 489
Flags: MW
HStem: -181 153<76 299 76 299> -8 91<272 306> 394 94<325.5 410>
VStem: 73 151
LayerCount: 2
Fore
SplineSet
84 236 m 0
 88 253 92 268 97 283 c 0
 152 445 265 488 386 488 c 0
 460 488 492 477 550 443 c 1
 506 330 l 1
 458 364 455 394 365 394 c 0
 264 394 250 295 234 228 c 0
 224 184 220 148 227 123 c 0
 234 98 253 83 291 83 c 0
 368 83 433 122 456 140 c 2
 481 159 l 1
 462 37 l 1
 392 4 344 -8 268 -8 c 0
 141 -8 38 38 84 236 c 0
76 -181 m 1xf0
 209 -28 l 1
 299 -28 l 1
 199 -181 l 1
 76 -181 l 1xf0
EndSplineSet
EndChar

StartChar: egrave
Encoding: 326 232 168
Width: 511
Flags: MW
HStem: -11 90<272.5 320.5> 240 71<244 417 244 529 221 417> 399 89<322 372> 520 153<328 347 185 420 328 328>
VStem: 69 138
LayerCount: 2
Fore
SplineSet
79 240 m 0
 82 253 85 266 89 278 c 0
 126 391 206 488 376 488 c 0
 479 488 537 443 542 369 c 0
 546 329 539 283 529 240 c 1
 221 240 l 1
 219 229 198 173 212 130 c 0
 221 101 245 79 300 79 c 0
 378 79 452 124 496 153 c 1
 478 40 l 1
 438 20 368 -11 273 -11 c 0
 143 -11 34 42 79 240 c 0
244 311 m 1
 417 311 l 1
 425 389 388 399 356 399 c 0
 288 399 257 341 244 311 c 1
185 673 m 1
 347 673 l 1
 420 520 l 1
 328 520 l 1
 185 673 l 1
EndSplineSet
Substitution2: "'ss01' Style Set 1 in Latin lookup 24 subtable" uniF26D
Substitution2: "'salt' Stylistic Alternatives in Latin lookup 22 subtable" uniF26D
Substitution2: "'locl' Localized Forms in Latin lookup 6 subtable" uniF26D
Substitution2: "'aalt' Access All Alternates lookup 0 subtable" uniF26D
EndChar

StartChar: eacute
Encoding: 327 233 169
Width: 511
Flags: MW
HStem: -11 90<251.5 320.5> 240 71<244 417 244 529 221 417> 399 89<322 372> 520 153<299 603 299 603>
VStem: 69 141 417 126
LayerCount: 2
Fore
SplineSet
299 520 m 1
 442 673 l 1
 603 673 l 1
 391 520 l 1
 299 520 l 1
79 240 m 0
 82 253 85 266 89 278 c 0
 126 391 206 488 376 488 c 0
 497 488 539 431 543 355 c 0
 545 318 538 278 529 240 c 1
 221 240 l 1
 218 226 215 212 213 198 c 0
 207 154 203 79 300 79 c 0
 378 79 452 124 496 153 c 1
 478 40 l 1
 438 20 368 -11 273 -11 c 0
 143 -11 34 42 79 240 c 0
244 311 m 1
 417 311 l 1
 425 389 388 399 356 399 c 0
 288 399 257 341 244 311 c 1
EndSplineSet
Substitution2: "'ss01' Style Set 1 in Latin lookup 24 subtable" uniF26E
Substitution2: "'salt' Stylistic Alternatives in Latin lookup 22 subtable" uniF26E
Substitution2: "'locl' Localized Forms in Latin lookup 6 subtable" uniF26E
Substitution2: "'aalt' Access All Alternates lookup 0 subtable" uniF26E
EndChar

StartChar: ecircumflex
Encoding: 328 234 170
Width: 511
Flags: MW
HStem: -11 90<272.5 320.5> 240 71<244 417 244 529 221 417> 399 89<322 372> 519 164<183 465 350 477 350 556>
VStem: 69 138
LayerCount: 2
Fore
SplineSet
183 519 m 1
 350 683 l 1
 465 683 l 1
 556 519 l 1
 477 519 l 1
 389 602 l 1
 259 519 l 1
 183 519 l 1
79 240 m 0
 82 253 85 266 89 278 c 0
 126 391 206 488 376 488 c 0
 479 488 537 443 542 369 c 0
 546 329 539 283 529 240 c 1
 221 240 l 1
 219 229 198 173 212 130 c 0
 221 101 245 79 300 79 c 0
 378 79 452 124 496 153 c 1
 478 40 l 1
 438 20 368 -11 273 -11 c 0
 143 -11 34 42 79 240 c 0
244 311 m 1
 417 311 l 1
 425 389 388 399 356 399 c 0
 288 399 257 341 244 311 c 1
EndSplineSet
Substitution2: "'ss01' Style Set 1 in Latin lookup 24 subtable" uniF26F
Substitution2: "'salt' Stylistic Alternatives in Latin lookup 22 subtable" uniF26F
Substitution2: "'locl' Localized Forms in Latin lookup 6 subtable" uniF26F
Substitution2: "'aalt' Access All Alternates lookup 0 subtable" uniF26F
EndChar

StartChar: edieresis
Encoding: 329 235 171
Width: 511
Flags: MW
HStem: -11 90<251.5 320.5> 240 71<244 417 244 529 221 417> 399 89<322 372> 543 127<209 365 239 335 239 414 444 541>
VStem: 69 141 417 126
LayerCount: 2
Fore
SplineSet
414 543 m 1
 444 670 l 1
 571 670 l 1
 541 543 l 1
 414 543 l 1
209 543 m 1
 239 670 l 1
 365 670 l 1
 335 543 l 1
 209 543 l 1
79 240 m 0
 82 253 85 266 89 278 c 0
 126 391 206 488 376 488 c 0
 497 488 539 431 543 355 c 0
 545 318 538 278 529 240 c 1
 221 240 l 1
 218 226 215 212 213 198 c 0
 207 154 203 79 300 79 c 0
 378 79 452 124 496 153 c 1
 478 40 l 1
 438 20 368 -11 273 -11 c 0
 143 -11 34 42 79 240 c 0
244 311 m 1
 417 311 l 1
 425 389 388 399 356 399 c 0
 288 399 257 341 244 311 c 1
EndSplineSet
EndChar

StartChar: igrave
Encoding: 330 236 172
Width: 256
Flags: MW
HStem: 0 21G<49 49 49 197> 452 20G<158 306 306 306> 520 153<92 296 92 327>
VStem: 49 278
LayerCount: 2
Fore
SplineSet
92 673 m 1
 254 673 l 1
 327 520 l 1
 296 520 l 2
 262 520 240 512 211 545 c 2
 92 673 l 1
49 0 m 1
 158 472 l 1
 306 472 l 1
 197 0 l 1
 49 0 l 1
EndSplineSet
Substitution2: "'ss01' Style Set 1 in Latin lookup 24 subtable" uniF270
Substitution2: "'salt' Stylistic Alternatives in Latin lookup 22 subtable" uniF270
Ligature2: "'liga' Standard Ligatures in Latin lookup 10 subtable" i gravecomb
Substitution2: "'locl' Localized Forms in Latin lookup 6 subtable" uniF270
Substitution2: "'aalt' Access All Alternates lookup 0 subtable" uniF270
EndChar

StartChar: iacute
Encoding: 331 237 173
Width: 256
Flags: MW
HStem: 0 21G<51 51 51 199> 452 20G<160 308 308 308> 520 153<133 437 133 437 194 437>
VStem: 51 386
LayerCount: 2
Fore
SplineSet
51 0 m 1
 160 472 l 1
 308 472 l 1
 199 0 l 1
 51 0 l 1
133 520 m 1
 276 673 l 1
 437 673 l 1
 374 627 331 596 301 575 c 2
 225 520 l 1
 215 520 204 520 194 520 c 2
 133 520 l 1
EndSplineSet
Substitution2: "'ss01' Style Set 1 in Latin lookup 24 subtable" uniF271
Substitution2: "'salt' Stylistic Alternatives in Latin lookup 22 subtable" uniF271
Ligature2: "'liga' Standard Ligatures in Latin lookup 10 subtable" i acutecomb
Ligature2: "'liga' Standard Ligatures in Cyrillic lookup 9 subtable" afii10103 acutecomb
Substitution2: "'locl' Localized Forms in Latin lookup 6 subtable" uniF271
Substitution2: "'aalt' Access All Alternates lookup 0 subtable" uniF271
EndChar

StartChar: icircumflex
Encoding: 332 238 174
Width: 256
Flags: MW
HStem: 0 21G<52 52 52 199> 452 20G<161 308 308 308> 519 164<59 341 338 338 338 341 227 432>
VStem: 52 380
LayerCount: 2
Fore
SplineSet
59 519 m 1
 227 683 l 1
 341 683 l 1
 432 519 l 1
 338 519 l 1
 264 602 l 1
 230 576 187 545 153 519 c 1
 59 519 l 1
52 0 m 1
 161 472 l 1
 308 472 l 1
 199 0 l 1
 52 0 l 1
EndSplineSet
Ligature2: "'liga' Standard Ligatures in Latin lookup 10 subtable" i uni0302
EndChar

StartChar: idieresis
Encoding: 333 239 175
Width: 317
Flags: MW
HStem: 0 21G<82 82 82 230> 452 20G<191 339 339 339> 543 127<115 271 145 241 350 447 145 320>
VStem: 82 395
LayerCount: 2
Fore
SplineSet
82 0 m 1
 191 472 l 1
 339 472 l 1
 230 0 l 1
 82 0 l 1
115 543 m 1
 145 670 l 1
 271 670 l 1
 241 543 l 1
 115 543 l 1
320 543 m 1
 350 670 l 1
 477 670 l 1
 447 543 l 1
 320 543 l 1
EndSplineSet
Ligature2: "'liga' Standard Ligatures in Latin lookup 10 subtable" i uni0308
EndChar

StartChar: eth
Encoding: 334 240 176
Width: 550
Flags: MW
HStem: -11 94<261 323.5 261 364.5> 399 89<380 380.5> 670 20G<436 436>
VStem: 68 149 432 142
LayerCount: 2
Fore
SplineSet
78 231 m 0
 80 241 83 251 86 261 c 0
 137 438 261 488 380 488 c 0
 392 488 384 489 397 488 c 1
 387 505 377 518 364 531 c 1
 333 516 l 1
 323 544 l 2
 315 567 312 572 304 577 c 0
 288 586 260 597 218 605 c 1
 251 628 l 1
 284 652 l 2
 289 656 295 660 300 664 c 0
 311 672 322 679 333 687 c 1
 346 682 360 678 374 674 c 2
 395 668 l 1
 402 671 413 678 423 683 c 2
 436 690 l 1
 445 662 l 1
 445 662 445 663 445 663 c 1
 456 633 456 633 466 625 c 0
 533 571 580 485 585 388 c 0
 587 350 584 311 574 269 c 0
 572 260 570 252 568 243 c 0
 534 101 464 -11 265 -11 c 0
 71 -11 50 106 78 231 c 0
235 259 m 0
 233 250 231 242 229 233 c 0
 223 207 218 184 217 163 c 0
 213 110 235 83 287 83 c 0
 360 83 401 139 420 251 c 0
 427 283 437 325 428 356 c 0
 421 381 401 399 360 399 c 0
 272 399 252 324 235 259 c 0
EndSplineSet
EndChar

StartChar: ntilde
Encoding: 335 241 177
Width: 561
Flags: MW
HStem: 0 21G<53 53 53 203 345 345 345 495> 394 84<163 397> 394 89<351.5 504> 555 10<219 227 219 305> 555 90<435 496.5> 555 140<227 394.5 227 394.5 333.5 473.5> 605 90<340.5 363>
VStem: 53 566 425 155<353.5 422>
LayerCount: 2
Fore
SplineSet
227 555 m 1xd3
 219 565 l 1
 239 642 302 695 365 695 c 0xc5
 424 695 443 660 482 646 c 0
 485 645 488 645 491 645 c 0xc9
 502 645 520 655 532 695 c 1
 619 695 l 1
 601 626 554 569 491 557 c 0
 484 556 477 555 470 555 c 0xc5
 400 555 380 605 346 605 c 0
 335 605 318 597 305 555 c 1
 227 555 l 1xd3
53 0 m 1
 163 478 l 1
 308 478 l 1
 291 404 l 1xc5
 327 442 383 483 457 483 c 0
 551 483 580 448 580 396 c 0
 580 366 565 331 565 302 c 1xa480
 542 201 518 101 495 0 c 1
 345 0 l 1
 420 323 l 1
 420 323 420 323 420 323 c 1
 423 336 425 348 425 359 c 0
 424 380 413 394 381 394 c 0xc480
 322 394 283 331 269 288 c 1
 203 0 l 1
 53 0 l 1
EndSplineSet
EndChar

StartChar: ograve
Encoding: 336 242 178
Width: 550
Flags: MW
HStem: -11 94<259.5 327.5> 399 89<326 377> 520 153<448.5 457 295 483 295 529>
VStem: 68 149 432 145
LayerCount: 2
Fore
SplineSet
80 239 m 0
 86 264 93 286 101 306 c 0
 159 447 271 488 381 488 c 0
 505 488 612 437 567 239 c 0
 519 30 390 -11 265 -11 c 0
 141 -11 31 31 80 239 c 0
230 241 m 2
 226 222 l 2
 222 202 218 182 217 163 c 0
 215 116 231 83 288 83 c 0
 383 83 403 176 418 241 c 0
 429 288 440 339 423 370 c 0
 413 388 394 399 360 399 c 0
 263 399 247 311 230 241 c 2
295 673 m 1
 349 673 403 673 457 673 c 1
 529 520 l 1
 483 520 l 2
 414 520 370 588 327 639 c 2
 295 673 l 1
EndSplineSet
Substitution2: "'ss01' Style Set 1 in Latin lookup 24 subtable" uniF27A
Substitution2: "'salt' Stylistic Alternatives in Latin lookup 22 subtable" uniF27A
Substitution2: "'locl' Localized Forms in Latin lookup 6 subtable" uniF27A
Substitution2: "'aalt' Access All Alternates lookup 0 subtable" uniF27A
EndChar

StartChar: oacute
Encoding: 337 243 179
Width: 550
Flags: MW
HStem: -11 94<259.5 327.5> 399 89<326 377> 520 153<306 611 306 611>
VStem: 68 149 432 145
LayerCount: 2
Fore
SplineSet
306 520 m 1
 449 673 l 1
 611 673 l 1
 547 627 505 596 475 575 c 2
 418 535 l 2
 391 516 388 520 367 520 c 2
 306 520 l 1
80 239 m 0
 86 264 93 286 101 306 c 0
 159 447 271 488 381 488 c 0
 505 488 612 437 567 239 c 0
 519 30 390 -11 265 -11 c 0
 141 -11 31 31 80 239 c 0
230 241 m 0
 229 235 227 229 226 222 c 0
 222 202 218 182 217 163 c 0
 215 116 231 83 288 83 c 0
 383 83 403 176 418 241 c 0
 429 288 440 339 423 370 c 0
 413 388 394 399 360 399 c 0
 263 399 247 311 230 241 c 0
EndSplineSet
Substitution2: "'ss01' Style Set 1 in Latin lookup 24 subtable" uniF27B
Substitution2: "'salt' Stylistic Alternatives in Latin lookup 22 subtable" uniF27B
Substitution2: "'locl' Localized Forms in Latin lookup 6 subtable" uniF27B
Substitution2: "'aalt' Access All Alternates lookup 0 subtable" uniF27B
EndChar

StartChar: ocircumflex
Encoding: 338 244 180
Width: 550
Flags: MW
HStem: -11 94<259.5 327.5> 399 89<326 377> 519 164<201 483 481 481 481 483 369 576>
VStem: 68 149 432 145
LayerCount: 2
Fore
SplineSet
201 519 m 1
 369 683 l 1
 483 683 l 1
 576 519 l 1
 481 519 l 1
 407 602 l 1
 295 519 l 1
 201 519 l 1
80 239 m 0
 86 264 93 286 101 306 c 0
 159 447 271 488 381 488 c 0
 505 488 612 437 567 239 c 0
 519 30 390 -11 265 -11 c 0
 141 -11 31 31 80 239 c 0
230 241 m 0
 229 235 227 229 226 222 c 0
 222 202 218 182 217 163 c 0
 215 116 231 83 288 83 c 0
 383 83 403 176 418 241 c 0
 429 288 440 339 423 370 c 0
 413 388 394 399 360 399 c 0
 263 399 247 311 230 241 c 0
EndSplineSet
Substitution2: "'ss01' Style Set 1 in Latin lookup 24 subtable" uniF27D
Substitution2: "'salt' Stylistic Alternatives in Latin lookup 22 subtable" uniF27D
Substitution2: "'locl' Localized Forms in Latin lookup 6 subtable" uniF27D
Substitution2: "'aalt' Access All Alternates lookup 0 subtable" uniF27D
EndChar

StartChar: otilde
Encoding: 339 245 181
Width: 550
Flags: MW
HStem: -11 94<259.5 327.5> 399 89<326 377> 555 10<213 221 213 300> 555 90<429.5 492> 555 140<221 389.5 221 389.5 327.5 468.5> 605 90<334.5 357.5>
VStem: 68 149 432 145
LayerCount: 2
Fore
SplineSet
221 555 m 1xe7
 213 565 l 1
 233 642 296 695 359 695 c 0xcb
 420 695 438 660 477 646 c 0
 480 645 483 645 486 645 c 0xd3
 498 645 514 655 526 695 c 1
 614 695 l 1
 596 626 547 568 486 557 c 0
 479 556 472 555 465 555 c 0xcb
 394 555 375 605 340 605 c 0
 329 605 312 597 300 555 c 1
 221 555 l 1xe7
80 239 m 0
 86 264 93 286 101 306 c 0
 159 447 271 488 381 488 c 0
 505 488 612 437 567 239 c 0
 519 30 390 -11 265 -11 c 0
 141 -11 31 31 80 239 c 0
230 241 m 2
 226 222 l 2
 222 202 218 182 217 163 c 0
 215 116 231 83 288 83 c 0
 383 83 403 176 418 241 c 0
 429 288 440 339 423 370 c 0
 413 388 394 399 360 399 c 0
 263 399 247 311 230 241 c 2
EndSplineSet
Substitution2: "'ss01' Style Set 1 in Latin lookup 24 subtable" uniF27C
Substitution2: "'salt' Stylistic Alternatives in Latin lookup 22 subtable" uniF27C
Substitution2: "'locl' Localized Forms in Latin lookup 6 subtable" uniF27C
Substitution2: "'aalt' Access All Alternates lookup 0 subtable" uniF27C
EndChar

StartChar: odieresis
Encoding: 340 246 182
Width: 550
Flags: MW
HStem: -11 94<259.5 327.5> 399 89<326 377> 543 127<227 384 257 354 257 433 463 559>
VStem: 68 149 432 145
LayerCount: 2
Fore
SplineSet
433 543 m 1
 463 670 l 1
 589 670 l 1
 559 543 l 1
 433 543 l 1
227 543 m 1
 257 670 l 1
 384 670 l 1
 354 543 l 1
 227 543 l 1
80 239 m 0
 86 264 93 286 101 306 c 0
 159 447 271 488 381 488 c 0
 505 488 612 437 567 239 c 0
 519 30 390 -11 265 -11 c 0
 141 -11 31 31 80 239 c 0
230 241 m 0
 229 235 227 229 226 222 c 0
 222 202 218 182 217 163 c 0
 215 116 231 83 288 83 c 0
 383 83 403 176 418 241 c 0
 429 288 440 339 423 370 c 0
 413 388 394 399 360 399 c 0
 263 399 247 311 230 241 c 0
EndSplineSet
EndChar

StartChar: divide
Encoding: 341 247 183
Width: 672
Flags: MW
HStem: -100 227<234 417 302 364> 216 100<328 443> 404 228<349 536 419 480>
VStem: 112 556
LayerCount: 2
Fore
SplineSet
324 465 m 2
 349 573 l 2
 353 589 358 601 365 609 c 0
 382 630 406 632 419 632 c 2
 536 632 l 2
 571 632 577 615 579 598 c 0
 580 589 578 580 576 571 c 0
 570 540 565 476 543 440 c 0
 531 417 512 404 480 404 c 2
 365 404 l 2
 333 404 322 418 321 436 c 0
 320 445 322 455 324 465 c 2
228 47 m 2
 233 69 l 2
 242 115 276 127 302 127 c 2
 417 127 l 2
 449 127 462 113 462 93 c 0
 462 84 461 75 459 67 c 2
 434 -42 l 2
 427 -73 409 -100 364 -100 c 2
 250 -100 l 2
 218 -100 207 -87 205 -68 c 0
 204 -59 206 -50 208 -40 c 2
 225 33 l 2
 226 38 227 42 228 47 c 2
114 265 m 0
 132 338 254 316 328 316 c 2
 563 316 l 2
 608 316 680 325 667 265 c 0
 654 201 541 216 443 216 c 2
 212 216 l 2
 114 216 106 237 114 265 c 0
EndSplineSet
EndChar

StartChar: oslash
Encoding: 342 248 184
Width: 550
Flags: MW
HStem: -11 89<286 286 286 329> -2 21G<183 183> 400 88<308 368> 459 20G<468 468>
VStem: 69 131 446 131
LayerCount: 2
Fore
SplineSet
79 232 m 0xac
 82 243 85 254 88 265 c 0
 125 387 207 488 381 488 c 0
 422 488 445 484 468 479 c 1xac
 544 574 l 1
 544 574 544 574 544 574 c 1
 611 530 l 1
 537 437 l 1
 562 413 596 363 565 230 c 0
 522 40 393 -11 265 -11 c 0x9c
 236 -11 210 -9 183 -2 c 1
 103 -101 l 1
 36 -57 l 1
 110 36 l 1x6c
 81 64 53 119 79 232 c 0xac
214 240 m 2
 211 228 l 2
 209 219 208 211 206 202 c 0
 202 183 200 166 200 147 c 1
 233 189 266 229 299 270 c 2
 400 394 l 1
 389 398 376 400 360 400 c 0
 256 400 232 316 214 240 c 2
250 82 m 1
 261 79 273 78 286 78 c 1
 286 78 286 78 286 78 c 1
 385 78 413 151 428 216 c 2
 437 252 l 2
 439 258 440 265 441 271 c 0
 444 289 446 306 446 324 c 1
 250 82 l 1
EndSplineSet
EndChar

StartChar: ugrave
Encoding: 343 249 185
Width: 561
Flags: MW
HStem: -11 78<156.5 289> 0 67<252.5 495 252.5 348> 452 20G<162 312 312 312 454 604 604 604> 520 153<443.5 448 286 475 286 521>
VStem: 75 529
LayerCount: 2
Fore
SplineSet
286 673 m 1x78
 340 673 394 673 448 673 c 1
 521 520 l 1
 475 520 l 2
 412 520 404 547 372 581 c 2
 334 622 l 2
 329 628 323 633 318 639 c 2
 286 673 l 1x78
84 134 m 2
 162 472 l 1
 312 472 l 1
 232 125 l 1
 232 125 232 125 232 125 c 1
 229 111 226 100 226 91 c 0
 226 74 236 67 269 67 c 0
 309 67 366 95 386 177 c 2
 454 472 l 1
 604 472 l 1
 495 0 l 1
 348 0 l 1x78
 361 55 l 1
 325 22 273 -11 200 -11 c 0
 113 -11 79 16 75 59 c 0xb8
 73 82 78 107 84 134 c 2
EndSplineSet
Substitution2: "'ss01' Style Set 1 in Latin lookup 24 subtable" uniF27E
Substitution2: "'salt' Stylistic Alternatives in Latin lookup 22 subtable" uniF27E
Substitution2: "'locl' Localized Forms in Latin lookup 6 subtable" uniF27E
Substitution2: "'aalt' Access All Alternates lookup 0 subtable" uniF27E
EndChar

StartChar: uacute
Encoding: 344 250 186
Width: 561
Flags: MW
HStem: -11 78<156.5 289> 0 67<252.5 495 252.5 348> 452 20G<162 312 312 312 454 604 604 604> 520 153<253 558 253 558>
VStem: 75 529
LayerCount: 2
Fore
SplineSet
253 520 m 1x78
 397 673 l 1
 558 673 l 1
 494 627 452 596 422 575 c 2
 365 535 l 2
 338 516 335 520 314 520 c 2
 253 520 l 1x78
84 134 m 2
 162 472 l 1
 312 472 l 1
 232 125 l 1
 232 125 232 125 232 125 c 1
 229 111 226 100 226 91 c 0
 226 74 236 67 269 67 c 0
 309 67 366 95 386 177 c 2
 454 472 l 1
 604 472 l 1
 495 0 l 1
 348 0 l 1x78
 361 55 l 1
 325 22 273 -11 200 -11 c 0
 113 -11 79 16 75 59 c 0xb8
 73 82 78 107 84 134 c 2
EndSplineSet
Substitution2: "'ss01' Style Set 1 in Latin lookup 24 subtable" uniF27F
Substitution2: "'salt' Stylistic Alternatives in Latin lookup 22 subtable" uniF27F
Substitution2: "'locl' Localized Forms in Latin lookup 6 subtable" uniF27F
Substitution2: "'aalt' Access All Alternates lookup 0 subtable" uniF27F
EndChar

StartChar: ucircumflex
Encoding: 345 251 187
Width: 561
Flags: MW
HStem: -11 78<156.5 289> 0 67<252.5 495 252.5 348> 452 20G<162 312 312 312 454 604 604 604> 519 164<207 490 486 486 486 490 375 579>
VStem: 75 529
LayerCount: 2
Fore
SplineSet
207 519 m 1x78
 375 683 l 1
 490 683 l 1
 579 519 l 1
 486 519 l 1
 412 602 l 1
 301 519 l 1
 207 519 l 1x78
84 134 m 2
 162 472 l 1
 312 472 l 1
 232 125 l 1
 232 125 232 125 232 125 c 1
 229 111 226 100 226 91 c 0
 226 74 236 67 269 67 c 0
 309 67 366 95 386 177 c 2
 454 472 l 1
 604 472 l 1
 495 0 l 1
 348 0 l 1x78
 361 55 l 1
 325 22 273 -11 200 -11 c 0
 113 -11 79 16 75 59 c 0xb8
 73 82 78 107 84 134 c 2
EndSplineSet
EndChar

StartChar: udieresis
Encoding: 346 252 188
Width: 561
Flags: MW
HStem: -11 78<156.5 289> 0 67<252.5 495 252.5 348> 452 20G<162 312 312 312 454 604 604 604> 543 127<233 390 263 360 263 439 469 565>
VStem: 75 529
LayerCount: 2
Fore
SplineSet
439 543 m 1x78
 469 670 l 1
 595 670 l 1
 565 543 l 1
 439 543 l 1x78
233 543 m 1
 263 670 l 1
 390 670 l 1
 360 543 l 1
 233 543 l 1
84 134 m 2
 162 472 l 1
 312 472 l 1
 232 125 l 1
 232 125 232 125 232 125 c 1
 229 111 226 100 226 91 c 0
 226 74 236 67 269 67 c 0
 309 67 366 95 386 177 c 2
 454 472 l 1
 604 472 l 1
 495 0 l 1
 348 0 l 1x78
 361 55 l 1
 325 22 273 -11 200 -11 c 0
 113 -11 79 16 75 59 c 0xb8
 73 82 78 107 84 134 c 2
EndSplineSet
EndChar

StartChar: yacute
Encoding: 347 253 189
Width: 500
Flags: MW
HStem: -171 101<101.5 120.5> -163 21G<2 2> -3 21G<204 204> 452 20G<114 258 234 258 456 591 591 591> 520 153<281 586 281 586 343 586>
VStem: 2 589
LayerCount: 2
Fore
SplineSet
281 520 m 1x7c
 425 673 l 1
 586 673 l 1
 374 520 l 1
 364 520 353 520 343 520 c 2
 281 520 l 1x7c
114 472 m 1
 162 472 210 472 258 472 c 1
 283 350 l 2
 299 273 304 223 306 194 c 1
 347 276 418 405 456 472 c 1
 591 472 l 1
 307 -31 l 2
 251 -133 156 -171 85 -171 c 0xbc
 53 -171 19 -166 2 -163 c 1x7c
 19 -40 l 1
 34 -50 49 -59 68 -64 c 0
 80 -68 93 -70 110 -70 c 0xbc
 167 -70 185 -36 204 -3 c 1
 204 -3 204 -4 204 -4 c 2
 206 1 208 5 210 10 c 0
 207 27 203 43 200 60 c 2
 114 472 l 1
EndSplineSet
Substitution2: "'ss01' Style Set 1 in Latin lookup 24 subtable" uniF281
Substitution2: "'salt' Stylistic Alternatives in Latin lookup 22 subtable" uniF281
Substitution2: "'locl' Localized Forms in Latin lookup 6 subtable" uniF281
Substitution2: "'aalt' Access All Alternates lookup 0 subtable" uniF281
EndChar

StartChar: thorn
Encoding: 348 254 190
Width: 561
Flags: MW
HStem: -160 21G<17 17 17 167> -11 90<292.5 339.5 268.5 376> 389 94<350 496.5>
VStem: 432 154
LayerCount: 2
Fore
SplineSet
17 -160 m 1
 212 686 l 1
 360 686 l 1
 302 434 l 1
 346 460 403 483 467 483 c 0
 526 483 567 459 581 401 c 0
 591 362 588 309 572 238 c 0
 530 59 436 -11 316 -11 c 0
 269 -11 235 4 211 30 c 1
 167 -160 l 1
 17 -160 l 1
288 365 m 1
 284 346 279 327 275 308 c 1
 275 308 275 308 275 308 c 1
 275 308 275 308 275 308 c 1
 237 146 l 2
 234 133 231 119 228 106 c 1
 232 98 251 79 286 79 c 0
 393 79 416 215 428 270 c 0
 435 308 441 389 367 389 c 0
 333 389 301 374 288 365 c 1
EndSplineSet
EndChar

StartChar: ydieresis
Encoding: 349 255 191
Width: 500
Flags: MW
HStem: -171 101<101.5 120.5> -163 21G<2 2> -3 21G<204 204> 452 20G<114 258 234 258 456 591 591 591> 543 127<204 361 234 331 234 409 439 536>
VStem: 2 589
LayerCount: 2
Fore
SplineSet
409 543 m 1x7c
 439 670 l 1
 566 670 l 1
 536 543 l 1
 409 543 l 1x7c
204 543 m 1
 234 670 l 1
 361 670 l 1
 331 543 l 1
 204 543 l 1
114 472 m 1
 162 472 210 472 258 472 c 1
 283 350 l 2
 299 273 304 223 306 194 c 1
 347 276 418 405 456 472 c 1
 591 472 l 1
 307 -31 l 2
 251 -133 156 -171 85 -171 c 0xbc
 53 -171 19 -166 2 -163 c 1x7c
 19 -40 l 1
 34 -50 49 -59 68 -64 c 0
 80 -68 93 -70 110 -70 c 0xbc
 167 -70 185 -36 204 -3 c 1
 204 -3 204 -4 204 -4 c 2
 206 1 208 5 210 10 c 0
 207 27 203 43 200 60 c 2
 114 472 l 1
EndSplineSet
EndChar

StartChar: Amacron
Encoding: 350 256 192
Width: 733
Flags: MW
HStem: 0 21G<21 21 21 173 531 531 531 700> 146 104<318 502 318 513 258 502> 675 20G<423 618 618 618> 745 101<229.5 829 278 285 285 808>
VStem: 21 861
LayerCount: 2
Fore
SplineSet
256 745 m 0
 203 745 206 779 210 796 c 0
 214 815 231 846 278 846 c 2
 829 846 l 1
 829 846 829 846 829 846 c 1
 829 846 829 846 829 846 c 1
 865 846 878 833 881 818 c 0
 883 811 882 803 880 796 c 0
 876 777 861 745 808 745 c 2
 285 745 l 2
 275 745 266 745 256 745 c 0
21 0 m 1
 423 695 l 1
 618 695 l 1
 700 0 l 1
 531 0 l 1
 513 146 l 1
 258 146 l 1
 173 0 l 1
 21 0 l 1
318 250 m 1
 502 250 l 1
 493 336 468 446 474 527 c 1
 449 478 410 414 318 250 c 1
EndSplineSet
EndChar

StartChar: amacron
Encoding: 351 257 193
Width: 525
Flags: MW
HStem: -11 21G<134.5 191> 0 80<253.5 460 253.5 312> 219 58<361 361> 405 83<333 345 345 345> 556 101<204 628 228 604>
VStem: 55 145 388 151
LayerCount: 2
Fore
SplineSet
204 556 m 1xbe
 228 657 l 1
 628 657 l 1
 604 556 l 1
 204 556 l 1xbe
55 133 m 0
 57 144 61 153 66 162 c 0xbe
 122 270 324 277 374 277 c 1
 383 317 l 2
 387 333 391 355 388 373 c 0
 385 391 373 405 345 405 c 1
 345 405 345 405 345 405 c 1
 264 405 211 364 181 340 c 2
 157 319 l 1
 176 443 l 1
 247 475 298 488 368 488 c 0
 524 488 556 420 532 312 c 2
 460 0 l 1
 312 0 l 1x7e
 323 49 l 1
 277 10 218 -11 164 -11 c 0
 105 -11 65 25 54 73 c 0
 50 92 50 113 55 133 c 0
201 135 m 0
 200 129 200 124 200 118 c 0xbe
 201 95 218 79 245 79 c 0
 248 79 252 80 255 80 c 0
 287 80 333 104 346 157 c 2
 361 219 l 1x7e
 303 212 216 201 201 135 c 0
EndSplineSet
EndChar

StartChar: Abreve
Encoding: 352 258 194
Width: 733
Flags: MW
HStem: 0 21G<21 21 21 173 531 531 531 700> 146 104<318 502 318 513 258 502> 675 20G<423 618 618 618> 709 110<512.5 539 512.5 548.5>
VStem: 21 716
LayerCount: 2
Fore
SplineSet
349 897 m 1
 439 897 l 1
 427 829 499 819 526 819 c 0
 552 819 627 830 648 897 c 1
 737 897 l 1
 705 777 596 709 501 709 c 0
 402 709 325 779 349 897 c 1
21 0 m 1
 423 695 l 1
 618 695 l 1xe8
 700 0 l 1
 531 0 l 1
 513 146 l 1
 258 146 l 1
 173 0 l 1
 21 0 l 1
318 250 m 1
 502 250 l 1
 493 336 468 446 474 527 c 1
 449 478 410 414 318 250 c 1
EndSplineSet
Substitution2: "'ss01' Style Set 1 in Latin lookup 24 subtable" uniF262
Substitution2: "'salt' Stylistic Alternatives in Latin lookup 22 subtable" uniF262
Substitution2: "'locl' Localized Forms in Latin lookup 6 subtable" uniF262
Substitution2: "'aalt' Access All Alternates lookup 0 subtable" uniF262
EndChar

StartChar: abreve
Encoding: 353 259 195
Width: 525
Flags: MW
HStem: -11 21G<134.5 191> 0 80<252 460 252 312> 219 58<361 361> 405 83<332 345 345 345> 496 109<381 425 381 430>
VStem: 55 145 388 151
LayerCount: 2
Fore
SplineSet
232 672 m 1xb6
 320 672 l 1
 313 624 353 605 409 605 c 0
 441 605 507 616 526 672 c 1
 614 672 l 1
 585 561 477 496 383 496 c 0xbe
 288 496 210 559 232 672 c 1xb6
55 133 m 0
 57 144 61 153 66 162 c 0xbe
 122 270 324 277 374 277 c 1
 383 317 l 2
 387 333 391 355 388 373 c 0
 385 391 373 405 345 405 c 1
 345 405 345 405 345 405 c 1
 264 405 211 364 181 340 c 2
 157 319 l 1
 176 443 l 1
 246 475 297 488 367 488 c 0
 523 488 556 420 532 312 c 2
 460 0 l 1
 312 0 l 1x76
 323 49 l 1
 277 10 218 -11 164 -11 c 0
 105 -11 65 25 54 73 c 0
 50 92 50 113 55 133 c 0
201 135 m 0
 200 129 200 124 200 118 c 0
 201 95 218 79 245 79 c 0
 247 79 250 80 254 80 c 0
 286 80 333 103 346 157 c 2
 361 219 l 1
 303 212 216 201 201 135 c 0
EndSplineSet
Substitution2: "'ss01' Style Set 1 in Latin lookup 24 subtable" uniF26C
Substitution2: "'salt' Stylistic Alternatives in Latin lookup 22 subtable" uniF26C
Substitution2: "'locl' Localized Forms in Latin lookup 6 subtable" uniF26C
Substitution2: "'aalt' Access All Alternates lookup 0 subtable" uniF26C
EndChar

StartChar: Aogonek
Encoding: 354 260 196
Width: 733
Flags: MW
HStem: -184 99<473.5 554> 0 21G<21 21 21 173 663 664 664 664 664 700> 146 104<319 502 319 513 258 502> 675 20G<423 618 618 618>
VStem: 21 679<0 0>
LayerCount: 2
Fore
SplineSet
21 0 m 1
 423 695 l 1
 618 695 l 1
 700 0 l 1
 664 0 l 1
 664 0 664 0 664 0 c 1
 662 0 532 -5 525 -67 c 0
 522 -80 540 -85 554 -85 c 1
 554 -85 554 -85 554 -85 c 1
 567 -85 583 -82 598 -78 c 2
 635 -67 l 1
 639 -153 l 1
 612 -164 583 -174 553 -180 c 0
 538 -183 522 -184 507 -184 c 0
 440 -184 396 -153 406 -105 c 0
 417 -58 484 -10 529 15 c 1
 523 60 518 99 513 146 c 1
 258 146 l 1
 173 0 l 1
 21 0 l 1
319 250 m 1
 502 250 l 1
 498 291 492 334 487 376 c 2
 478 461 l 2
 477 469 476 478 475 487 c 2
 473 513 l 2
 473 518 474 522 474 527 c 1
 449 480 412 417 319 250 c 1
EndSplineSet
Ligature2: "'liga' Standard Ligatures in Latin lookup 11 subtable" A uni0328
EndChar

StartChar: aogonek
Encoding: 355 261 197
Width: 525
Flags: MW
HStem: -181 98<259.5 349> -11 21G<160.5 190.5 374 374> -11 91<160.5 275.5> 0 21G<409.5 412 412 428 428 460> 219 58<361 361> 405 83<332 359>
VStem: 55 144 388 151
LayerCount: 2
Fore
SplineSet
55 133 m 0x1f
 57 141 59 148 62 155 c 0
 111 270 328 277 374 277 c 1
 383 317 l 2
 387 333 391 355 388 373 c 0
 385 391 373 405 345 405 c 0
 242 405 183 339 157 319 c 1
 176 443 l 1
 246 476 297 488 367 488 c 0
 525 488 555 419 532 312 c 2
 460 0 l 1
 428 0 l 1
 412 0 l 2
 407 0 401 -1 395 -3 c 2
 374 -11 l 2x1f
 362 -16 314 -40 309 -66 c 0
 306 -78 322 -83 339 -83 c 0
 359 -83 381 -77 399 -72 c 1
 399 -72 399 -73 399 -73 c 1
 406 -71 413 -68 420 -66 c 1
 422 -151 l 1
 393 -162 362 -173 330 -178 c 0
 317 -180 305 -181 292 -181 c 0
 227 -181 181 -152 192 -103 c 0
 203 -56 270 -8 315 15 c 1
 323 48 l 1
 278 11 217 -11 164 -11 c 0
 157 -11 150 -11 144 -10 c 0
 91 -2 55 41 52 89 c 0xcf
 51 103 51 118 55 133 c 0x1f
201 135 m 0
 200 130 199 125 199 120 c 0
 199 95 220 79 245 79 c 0
 247 79 250 80 254 80 c 0
 297 80 337 116 346 157 c 2x2f
 361 219 l 1
 303 214 215 198 201 135 c 0
EndSplineSet
EndChar

StartChar: Cacute
Encoding: 356 262 198
Width: 703
Flags: MW
HStem: -22 117<400 460.5> 599 117<495.5 610> 842 16<763 763>
VStem: 119 166
LayerCount: 2
Fore
SplineSet
400 743 m 1
 543 842 l 1
 567 858 l 1
 593 858 619 858 645 858 c 2
 763 858 l 1
 763 842 l 1
 621 781 l 2
 531 742 531 742 513 742 c 0
 475 742 438 743 400 743 c 1
134 346 m 0
 139 366 143 384 149 402 c 0
 228 649 402 716 589 716 c 0
 667 716 721 704 789 678 c 1
 729 529 l 1
 689 557 660 599 560 599 c 0
 403 599 330 488 298 349 c 0
 284 288 279 231 292 187 c 0
 309 131 354 95 446 95 c 0
 479 95 504 98 528 103 c 0
 566 113 593 124 631 144 c 2
 671 166 l 1
 651 36 l 1
 552 -12 504 -22 417 -22 c 0
 282 -22 167 15 130 136 c 0
 114 189 114 258 134 346 c 0
EndSplineSet
EndChar

StartChar: cacute
Encoding: 357 263 199
Width: 489
Flags: MW
HStem: -11 94<269.5 302> 394 94<326 410.5> 520 153<261 566 261 566 307 566>
VStem: 74 151
LayerCount: 2
Fore
SplineSet
261 520 m 1
 405 673 l 1
 566 673 l 1
 353 520 l 1
 337 520 322 520 307 520 c 2
 261 520 l 1
85 237 m 0
 89 254 93 269 98 284 c 0
 153 446 266 488 386 488 c 0
 461 488 493 479 550 443 c 1
 506 330 l 1
 455 365 456 394 365 394 c 0
 276 394 256 320 240 256 c 0
 228 205 220 163 225 132 c 0
 230 101 248 83 291 83 c 0
 319 83 346 89 370 97 c 0
 416 112 458 140 480 156 c 1
 462 37 l 1
 395 5 338 -11 266 -11 c 0
 75 -11 55 106 85 237 c 0
EndSplineSet
EndChar

StartChar: Ccircumflex
Encoding: 358 264 200
Width: 703
Flags: MW
HStem: -22 117<400 460.5> 599 117<495.5 610> 745 167<406 692 690 690 690 692 577 785>
VStem: 119 166
LayerCount: 2
Fore
SplineSet
406 745 m 1
 577 912 l 1
 692 912 l 1
 785 745 l 1
 690 745 l 1
 615 829 l 1
 502 745 l 1
 406 745 l 1
134 346 m 0
 139 366 143 384 149 402 c 0
 228 649 402 716 589 716 c 0
 667 716 721 704 789 678 c 1
 729 529 l 1
 689 557 660 599 560 599 c 0xd0
 403 599 330 488 298 349 c 0
 284 288 279 231 292 187 c 0
 309 131 354 95 446 95 c 0
 479 95 504 98 528 103 c 0
 566 113 593 124 631 144 c 2
 671 166 l 1
 651 36 l 1
 552 -12 504 -22 417 -22 c 0
 282 -22 167 15 130 136 c 0
 114 189 114 258 134 346 c 0
EndSplineSet
EndChar

StartChar: ccircumflex
Encoding: 359 265 201
Width: 489
Flags: MW
HStem: -11 94<269.5 302> 394 94<326 410.5> 517 164<205 486 485 485 485 486 372 579>
VStem: 74 151
LayerCount: 2
Fore
SplineSet
205 517 m 1
 372 681 l 1
 486 681 l 1
 579 517 l 1
 485 517 l 1
 412 600 l 1
 299 517 l 1
 205 517 l 1
85 237 m 0
 89 254 93 269 98 284 c 0
 153 446 266 488 386 488 c 0
 461 488 493 479 550 443 c 1
 506 330 l 1
 452 367 456 394 365 394 c 0xd0
 276 394 256 320 240 256 c 0
 228 205 220 163 225 132 c 0
 230 101 248 83 291 83 c 0
 319 83 346 89 370 97 c 0
 416 112 458 140 480 156 c 1
 462 37 l 1
 395 5 338 -11 266 -11 c 0
 75 -11 55 106 85 237 c 0
EndSplineSet
EndChar

StartChar: Cdotaccent
Encoding: 360 266 202
Width: 703
Flags: MW
HStem: -22 117<400 460.5> 599 117<495.5 610> 745 164<514 715 552 677>
VStem: 119 166
LayerCount: 2
Fore
SplineSet
514 745 m 1
 552 909 l 1
 715 909 l 1
 677 745 l 1
 514 745 l 1
134 346 m 0
 139 366 143 384 149 402 c 0
 228 649 402 716 589 716 c 0
 667 716 721 704 789 678 c 1
 729 529 l 1
 689 557 660 599 560 599 c 0xd0
 403 599 330 488 298 349 c 0
 284 288 279 231 292 187 c 0
 309 131 354 95 446 95 c 0
 479 95 504 98 528 103 c 0
 566 113 593 124 631 144 c 2
 671 166 l 1
 651 36 l 1
 552 -12 504 -22 417 -22 c 0
 282 -22 167 15 130 136 c 0
 114 189 114 258 134 346 c 0
EndSplineSet
EndChar

StartChar: cdotaccent
Encoding: 361 267 203
Width: 489
Flags: MW
HStem: -11 94<269.5 302> 394 94<326 410.5> 517 161<311 510 349 472>
VStem: 74 151
LayerCount: 2
Fore
SplineSet
311 517 m 1
 349 678 l 1
 510 678 l 1
 472 517 l 1
 311 517 l 1
85 237 m 0
 89 254 93 269 98 284 c 0
 153 446 266 488 386 488 c 0
 461 488 493 479 550 443 c 1
 506 330 l 1
 455 365 456 394 365 394 c 0xd0
 276 394 256 320 240 256 c 0
 228 205 220 163 225 132 c 0
 230 101 248 83 291 83 c 0
 319 83 346 89 370 97 c 0
 416 112 458 140 480 156 c 1
 462 37 l 1
 395 5 338 -11 266 -11 c 0
 75 -11 55 106 85 237 c 0
EndSplineSet
EndChar

StartChar: Ccaron
Encoding: 362 268 204
Width: 703
Flags: MW
HStem: -22 117<363.5 460.5> 599 120<512.5 610> 752 184
VStem: 118 166
LayerCount: 2
Fore
SplineSet
443 937 m 1
 536 937 l 1
 614 841 l 1
 736 937 l 1
 828 937 l 1
 659 753 l 1
 615 753 572 752 528 752 c 1
 443 937 l 1
134 346 m 0
 139 366 144 384 150 402 c 0
 235 652 440 719 585 719 c 0
 662 719 705 707 789 678 c 1
 729 529 l 1
 689 557 660 599 560 599 c 0
 403 599 330 488 298 349 c 0
 265 210 281 95 446 95 c 0
 479 95 504 98 528 103 c 0
 566 113 593 124 631 144 c 2
 671 166 l 1
 651 36 l 1
 552 -12 504 -22 417 -22 c 0
 277 -22 160 15 126 148 c 0
 113 199 115 264 134 346 c 0
EndSplineSet
EndChar

StartChar: ccaron
Encoding: 363 269 205
Width: 489
Flags: MW
HStem: -11 94<269.5 302> 394 94<326 410.5> 519 153<223 445 223 332>
VStem: 74 151
LayerCount: 2
Fore
SplineSet
223 672 m 1
 318 672 l 1
 405 591 l 1
 529 672 l 1
 624 672 l 1
 445 519 l 1
 332 519 l 1
 223 672 l 1
85 237 m 0
 89 254 93 269 98 284 c 0
 153 446 266 488 386 488 c 0
 462 488 492 477 550 443 c 1
 506 330 l 1
 452 367 456 394 365 394 c 0
 276 394 256 320 240 256 c 0
 228 205 220 163 225 132 c 0
 230 101 248 83 291 83 c 0
 319 83 346 89 370 97 c 0
 416 112 458 140 481 156 c 1
 462 37 l 1
 395 5 338 -11 266 -11 c 0
 75 -11 55 106 85 237 c 0
EndSplineSet
EndChar

StartChar: Dcaron
Encoding: 364 270 206
Width: 794
Flags: MW
HStem: 0 104<269 359 359 367.5 269 377> 591 104<381 480 381 381> 708 189<403 409 316 527 403 403>
VStem: 657 165
LayerCount: 2
Fore
SplineSet
316 897 m 1
 409 897 l 1
 487 801 l 1
 609 897 l 1
 703 897 l 1
 527 708 l 1
 403 708 l 1
 316 897 l 1
85 0 m 1
 245 695 l 1
 536 695 l 2xd0
 728 695 872 627 805 340 c 0
 735 42 539 0 377 0 c 2
 85 0 l 1
269 104 m 1
 359 104 l 2
 376 104 392 105 407 106 c 0
 579 123 634 245 654 391 c 0
 677 580 578 591 480 591 c 2
 381 591 l 1
 269 104 l 1
EndSplineSet
EndChar

StartChar: dcaron
Encoding: 365 271 207
Width: 732
Flags: MW
HStem: -11 89<187 336.5> 0 78<263.5 496 263.5 345> 394 89<326 339.5 308.5 385> 603 83<506 704 506 674>
VStem: 74 150
LayerCount: 2
Fore
SplineSet
87 238 m 0x78
 105 316 137 396 205 444 c 1
 205 444 204 444 204 444 c 1
 242 471 287 483 330 483 c 0
 349 483 365 481 380 478 c 0
 409 471 431 458 450 441 c 1
 506 686 l 1
 654 686 l 1
 496 0 l 1
 345 0 l 1
 349 18 l 1
 349 18 349 18 349 18 c 1x78
 354 37 l 1
 313 7 271 -11 214 -11 c 0xb8
 160 -11 34 11 87 238 c 0x78
240 249 m 2
 232 213 l 2
 228 190 225 171 224 155 c 0
 220 98 240 78 287 78 c 0
 386 78 376 141 386 177 c 2
 422 332 l 2
 425 345 428 358 431 371 c 1
 414 387 398 394 372 394 c 0
 280 394 257 320 240 249 c 2
651 532 m 1
 704 603 l 1
 674 603 l 1
 708 748 l 1
 854 748 l 1
 816 601 824 609 769 563 c 2
 734 532 l 1
 651 532 l 1
EndSplineSet
EndChar

StartChar: Dcroat
Encoding: 366 272 208
Width: 794
Flags: MW
HStem: 0 104<269 360 360 376> 296 91<63 174 84 153 334 469> 591 104<381 480 381 381>
VStem: 656 165
LayerCount: 2
Fore
SplineSet
63 296 m 1
 84 387 l 1
 174 387 l 1
 245 695 l 1
 536 695 l 1
 536 695 536 695 536 695 c 1
 730 695 871 628 805 340 c 0
 736 45 544 0 376 0 c 2
 85 0 l 1
 153 296 l 1
 63 296 l 1
269 104 m 1
 360 104 l 1
 391 104 l 2
 457 106 522 119 575 176 c 2
 575 176 574 175 574 175 c 1
 635 245 656 367 656 431 c 0
 656 570 571 591 480 591 c 2
 381 591 l 1
 334 387 l 1
 490 387 l 1
 469 296 l 1
 313 296 l 1
 269 104 l 1
EndSplineSet
Substitution2: "'ss01' Style Set 1 in Latin lookup 24 subtable" uniF25C
Substitution2: "'salt' Stylistic Alternatives in Latin lookup 22 subtable" uniF25C
Substitution2: "'locl' Localized Forms in Latin lookup 6 subtable" uniF25C
Substitution2: "'aalt' Access All Alternates lookup 0 subtable" uniF25C
EndChar

StartChar: dcroat
Encoding: 367 273 209
Width: 561
Flags: MW
HStem: -11 89<186.5 332> 0 78<261 495 261 344> 394 89<321.5 357 307.5 383> 522 89<326 468 306 488 636 698>
VStem: 73 148
LayerCount: 2
Fore
SplineSet
86 238 m 0x78
 104 317 135 396 204 444 c 1
 204 444 203 444 203 444 c 1
 241 471 286 483 329 483 c 0
 385 483 421 466 449 441 c 1
 468 522 l 1
 306 522 l 1
 326 611 l 1
 488 611 l 1
 505 686 l 1
 653 686 l 1
 636 611 l 1
 718 611 l 1
 698 522 l 1
 616 522 l 1
 495 0 l 1
 344 0 l 1
 348 18 l 1
 348 18 348 18 348 18 c 1x78
 353 37 l 1
 311 7 270 -11 213 -11 c 0xb8
 160 -11 33 10 86 238 c 0x78
235 231 m 0
 233 226 232 221 230 214 c 0
 225 193 221 171 221 151 c 0
 221 108 236 78 286 78 c 0
 378 78 375 133 380 155 c 2
 422 335 l 2
 425 347 427 359 430 371 c 1
 414 387 395 394 371 394 c 0
 272 394 255 313 235 231 c 0
EndSplineSet
Substitution2: "'ss01' Style Set 1 in Latin lookup 24 subtable" uniF25D
Substitution2: "'salt' Stylistic Alternatives in Latin lookup 22 subtable" uniF25D
Substitution2: "'locl' Localized Forms in Latin lookup 6 subtable" uniF25D
Substitution2: "'aalt' Access All Alternates lookup 0 subtable" uniF25D
EndChar

StartChar: Emacron
Encoding: 368 274 210
Width: 642
Flags: MW
HStem: 0 125 303 112<343 618 317 644> 571 120 745 101<207 806 255 262 262 785>
VStem: 84 774
LayerCount: 2
Fore
SplineSet
233 745 m 0
 181 745 183 779 187 796 c 0
 191 815 210 846 255 846 c 2
 806 846 l 1
 806 846 806 846 806 846 c 1
 806 846 806 846 806 846 c 1
 806 846 806 846 806 846 c 1
 806 846 806 846 806 846 c 1
 806 846 806 846 806 846 c 1
 843 846 855 833 858 818 c 0
 860 801 858 745 785 745 c 2
 262 745 l 2
 252 745 243 745 233 745 c 0
84 0 m 1
 244 692 l 1
 738 692 l 1
 710 570 l 1
 379 573 l 1
 343 415 l 1
 644 415 l 1
 618 303 l 1
 317 303 l 1
 275 123 l 1
 622 127 l 1
 593 0 l 1
 84 0 l 1
EndSplineSet
EndChar

StartChar: emacron
Encoding: 369 275 211
Width: 511
Flags: MW
HStem: -11 90<251.5 320.5> 240 71<244 417 244 529 221 417> 399 89<322 372> 556 101<192 616 216 592>
VStem: 69 141 417 126
LayerCount: 2
Fore
SplineSet
192 556 m 1
 216 657 l 1
 616 657 l 1
 592 556 l 1
 192 556 l 1
79 240 m 0
 82 253 85 266 89 278 c 0
 126 391 206 488 376 488 c 0
 497 488 539 431 543 355 c 0
 545 318 538 278 529 240 c 1
 221 240 l 1
 218 226 215 212 213 198 c 0
 207 154 203 79 300 79 c 0
 378 79 452 124 496 153 c 1
 478 40 l 1
 438 20 368 -11 273 -11 c 0
 143 -11 34 42 79 240 c 0
244 311 m 1
 417 311 l 1
 425 389 388 399 356 399 c 0
 288 399 257 341 244 311 c 1
EndSplineSet
EndChar

StartChar: Ebreve
Encoding: 370 276 212
Width: 642
Flags: MW
HStem: 0 125 303 112<343 618 317 644> 571 120 745 111<522 555.5 522 558.5>
VStem: 84 661
LayerCount: 2
Fore
SplineSet
358 923 m 1
 447 923 l 1
 438 863 507 856 537 856 c 0
 574 856 637 869 655 923 c 1
 745 923 l 1
 717 812 607 745 510 745 c 0
 415 745 336 811 358 923 c 1
84 0 m 1
 244 692 l 1
 738 692 l 1
 710 570 l 1
 379 573 l 1
 343 415 l 1
 644 415 l 1
 618 303 l 1
 317 303 l 1
 275 123 l 1
 622 127 l 1
 593 0 l 1
 84 0 l 1
EndSplineSet
EndChar

StartChar: ebreve
Encoding: 371 277 213
Width: 511
Flags: MW
HStem: -11 90<251.5 320.5> 240 71<244 417 244 529 221 417> 399 89<322 372> 517 109<392 425 392 429.5> 517 176<232 429.5>
VStem: 69 141 417 126
LayerCount: 2
Fore
SplineSet
232 693 m 1xec
 321 693 l 1xee
 313 635 375 626 409 626 c 0xf4
 441 626 507 637 526 693 c 1
 614 693 l 1
 586 582 477 517 382 517 c 0
 287 517 210 581 232 693 c 1xec
79 240 m 0
 82 253 85 266 89 278 c 0
 126 391 206 488 376 488 c 0xe6
 497 488 539 431 543 355 c 0
 545 318 538 278 529 240 c 1
 221 240 l 1
 218 226 215 212 213 198 c 0
 207 154 203 79 300 79 c 0
 378 79 452 124 496 153 c 1
 478 40 l 1
 438 20 368 -11 273 -11 c 0
 143 -11 34 42 79 240 c 0
244 311 m 1
 417 311 l 1
 425 389 388 399 356 399 c 0xe6
 288 399 257 341 244 311 c 1
EndSplineSet
EndChar

StartChar: Edotaccent
Encoding: 372 278 214
Width: 642
Flags: MW
HStem: 0 125 303 112<343 618 317 644> 571 120 745 164<429 630 467 592>
VStem: 84 654
LayerCount: 2
Fore
SplineSet
429 745 m 1
 467 909 l 1
 630 909 l 1
 592 745 l 1
 429 745 l 1
84 0 m 1
 244 692 l 1
 738 692 l 1
 710 570 l 1
 379 573 l 1
 343 415 l 1
 644 415 l 1
 618 303 l 1
 317 303 l 1
 275 123 l 1
 622 127 l 1
 593 0 l 1
 84 0 l 1
EndSplineSet
EndChar

StartChar: edotaccent
Encoding: 373 279 215
Width: 511
Flags: MW
HStem: -11 90<251.5 320.5> 240 71<244 417 244 529 221 417> 399 89<322 372> 517 161<302 501 340 463>
VStem: 69 141 417 126
LayerCount: 2
Fore
SplineSet
302 517 m 1
 340 678 l 1
 501 678 l 1
 463 517 l 1
 302 517 l 1
79 240 m 0
 82 253 85 266 89 278 c 0
 126 391 206 488 376 488 c 0xec
 497 488 539 431 543 355 c 0
 545 318 538 278 529 240 c 1
 221 240 l 1
 218 226 215 212 213 198 c 0
 207 154 203 79 300 79 c 0
 378 79 452 124 496 153 c 1
 478 40 l 1
 438 20 368 -11 273 -11 c 0
 143 -11 34 42 79 240 c 0
244 311 m 1
 417 311 l 1
 425 389 388 399 356 399 c 0xec
 288 399 257 341 244 311 c 1
EndSplineSet
EndChar

StartChar: Eogonek
Encoding: 374 280 216
Width: 642
Flags: MW
HStem: -184 99<397 493.5> 0 125 303 112<343 618 317 644> 571 120
VStem: 84 654
LayerCount: 2
Fore
SplineSet
84 0 m 1
 244 692 l 1
 738 692 l 1
 710 570 l 1
 379 573 l 1
 343 415 l 1
 644 415 l 1
 618 303 l 1
 317 303 l 1
 275 123 l 1
 622 127 l 1
 593 0 l 1
 551 0 l 2
 521 0 452 -41 446 -66 c 0
 444 -74 448 -85 476 -85 c 0
 511 -85 536 -74 558 -67 c 1
 560 -153 l 1
 493 -180 452 -184 429 -184 c 0
 365 -184 318 -154 328 -105 c 0
 337 -67 379 -29 426 0 c 1
 84 0 l 1
EndSplineSet
EndChar

StartChar: eogonek
Encoding: 375 281 217
Width: 511
Flags: MW
HStem: -181 97<228.5 318> -10 89<240.5 339> 240 71<244 417 244 529 221 417> 399 89<322 372>
VStem: 67 142 374 16 417 112<240 311>
LayerCount: 2
Fore
SplineSet
79 240 m 0
 83 256 87 271 92 286 c 0
 147 446 263 488 376 488 c 0
 486 488 530 442 541 377 c 0
 547 335 539 286 529 240 c 1xfe
 221 240 l 1
 219 231 202 179 212 137 c 0
 220 105 243 79 300 79 c 0
 378 79 452 124 496 153 c 1
 478 40 l 1
 458 30 424 22 389 10 c 0
 342 -6 293 -29 281 -70 c 0
 281 -77 286 -84 307 -84 c 0
 329 -84 360 -75 374 -71 c 1
 373 -71 373 -72 372 -72 c 1
 375 -71 379 -69 389 -69 c 1
 392 -152 l 1
 353 -167 309 -181 262 -181 c 0
 195 -181 150 -151 162 -104 c 0
 171 -67 207 -35 245 -10 c 1
 236 -10 227 -9 219 -8 c 0
 110 4 38 64 79 240 c 0
244 311 m 1
 417 311 l 1
 425 389 388 399 356 399 c 0xfe
 288 399 257 341 244 311 c 1
EndSplineSet
EndChar

StartChar: Ecaron
Encoding: 376 282 218
Width: 642
Flags: MW
HStem: 0 125 303 112<343 618 317 644> 571 120 708 189<398 404 312 524 398 398>
VStem: 84 654
LayerCount: 2
Fore
SplineSet
312 897 m 1
 404 897 l 1
 483 801 l 1
 605 897 l 1
 698 897 l 1
 524 708 l 1
 398 708 l 1
 312 897 l 1
84 0 m 1
 244 692 l 1
 738 692 l 1
 710 570 l 1
 379 573 l 1xe8
 343 415 l 1
 644 415 l 1
 618 303 l 1
 317 303 l 1
 275 123 l 1
 622 127 l 1
 593 0 l 1
 84 0 l 1
EndSplineSet
EndChar

StartChar: ecaron
Encoding: 377 283 219
Width: 511
Flags: MW
HStem: -11 90<251.5 320.5> 240 71<244 417 244 529 221 417> 399 89<322 372> 519 153<219 440 219 328>
VStem: 69 141 417 126
LayerCount: 2
Fore
SplineSet
219 672 m 1
 314 672 l 1
 400 591 l 1
 524 672 l 1
 619 672 l 1
 440 519 l 1
 328 519 l 1
 219 672 l 1
79 240 m 0
 82 253 85 266 89 278 c 0
 126 391 206 488 376 488 c 0
 497 488 539 431 543 355 c 0
 545 318 538 278 529 240 c 1
 221 240 l 1
 218 226 215 212 213 198 c 0
 207 154 203 79 300 79 c 0
 378 79 452 124 496 153 c 1
 478 40 l 1
 438 20 368 -11 273 -11 c 0
 143 -11 34 42 79 240 c 0
244 311 m 1
 417 311 l 1
 425 389 388 399 356 399 c 0
 288 399 257 341 244 311 c 1
EndSplineSet
EndChar

StartChar: Gcircumflex
Encoding: 378 284 220
Width: 733
Flags: MW
HStem: -21 116<364 460> 226 112<487 555 461 733> 600 116<477.5 622.5> 745 167<403 688 686 686 686 688 573 782>
VStem: 118 166
LayerCount: 2
Fore
SplineSet
403 745 m 1
 573 912 l 1
 688 912 l 1
 782 745 l 1
 686 745 l 1
 611 829 l 1
 498 745 l 1
 403 745 l 1
134 348 m 0
 138 367 143 385 149 403 c 0
 213 602 349 716 585 716 c 0
 673 716 730 702 800 665 c 1
 740 515 l 1
 723 530 685 600 560 600 c 0xe8
 395 600 327 475 297 348 c 0
 265 211 283 95 445 95 c 0
 478 95 510 104 527 104 c 1
 555 226 l 1
 461 226 l 1
 487 338 l 1
 733 338 l 1
 661 28 l 1
 588 0 506 -21 414 -21 c 0
 122 -21 90 155 134 348 c 0
EndSplineSet
EndChar

StartChar: gcircumflex
Encoding: 379 285 221
Width: 561
Flags: MW
HStem: -182 89<199 284.5 199 304> 23 89<181 296> 394 89<340 354.5 264.5 389> 517 164<194 476 475 475 475 476 362 569>
VStem: 74 154
LayerCount: 2
Fore
SplineSet
194 517 m 1
 362 681 l 1
 476 681 l 1
 569 517 l 1
 475 517 l 1
 402 600 l 1
 288 517 l 1
 194 517 l 1
84 236 m 0
 87 247 89 258 93 270 c 0
 122 365 183 483 346 483 c 0
 363 483 378 481 390 477 c 0
 415 469 432 453 446 434 c 1
 458 483 l 1
 606 483 l 1
 502 33 l 2
 475 -92 381 -182 227 -182 c 0
 145 -182 96 -165 39 -130 c 1
 65 -16 l 1
 111 -58 155 -93 243 -93 c 0
 326 -93 338 -17 349 26 c 2
 363 88 l 1
 331 52 286 23 230 23 c 0
 132 23 44 68 84 236 c 0
236 238 m 0
 234 231 233 224 232 217 c 0
 223 167 226 112 292 112 c 0
 300 112 306 113 313 115 c 0
 364 131 395 213 403 249 c 2
 418 310 l 2
 419 316 427 338 424 357 c 0
 421 376 408 394 370 394 c 0
 310 394 262 348 236 238 c 0
EndSplineSet
EndChar

StartChar: Gbreve
Encoding: 380 286 222
Width: 733
Flags: MW
HStem: -21 116<364 460> 226 112<487 555 461 733> 600 124 764 106<607 635.5 607 646.5>
VStem: 118 166
LayerCount: 2
Fore
SplineSet
446 947 m 1
 475 947 505 947 534 947 c 1
 524 880 593 870 621 870 c 0
 650 870 721 880 742 947 c 1
 831 947 l 1
 807 848 698 764 595 764 c 0
 494 764 424 848 446 947 c 1
134 348 m 0
 138 367 144 386 151 404 c 0
 218 589 379 707 541 724 c 1
 696 720 741 695 800 665 c 1
 740 515 l 1
 723 530 685 600 560 600 c 0
 395 600 327 475 297 348 c 0
 265 211 283 95 445 95 c 0
 478 95 510 104 527 104 c 1
 555 226 l 1
 461 226 l 1
 487 338 l 1
 733 338 l 1
 661 28 l 1
 588 0 506 -21 414 -21 c 0
 122 -21 90 155 134 348 c 0
EndSplineSet
EndChar

StartChar: gbreve
Encoding: 381 287 223
Width: 561
Flags: MW
HStem: -182 89<199 284.5 199 304> 23 89<181 296> 394 89<340 354.5 264.5 389> 501 109<415 441.5 415 448>
VStem: 74 154
LayerCount: 2
Fore
SplineSet
253 686 m 1
 282 686 312 686 341 686 c 1
 331 617 402 610 428 610 c 0
 455 610 525 619 546 686 c 1
 634 686 l 1
 604 569 494 501 402 501 c 0xf8
 304 501 229 570 253 686 c 1
84 236 m 0
 87 247 89 258 93 270 c 0
 122 365 183 483 346 483 c 0
 363 483 378 481 390 477 c 0
 415 469 432 453 446 434 c 1
 458 483 l 1
 606 483 l 1
 502 33 l 2
 475 -92 381 -182 227 -182 c 0
 145 -182 96 -165 39 -130 c 1
 65 -16 l 1
 111 -58 155 -93 243 -93 c 0
 326 -93 338 -17 349 26 c 2
 363 88 l 1
 331 52 286 23 230 23 c 0
 132 23 44 68 84 236 c 0
236 238 m 0
 234 231 233 224 232 217 c 0
 223 167 226 112 292 112 c 0
 300 112 306 113 313 115 c 0
 364 131 395 213 403 249 c 2
 418 310 l 2
 419 316 427 338 424 357 c 0
 421 376 408 394 370 394 c 0
 310 394 262 348 236 238 c 0
EndSplineSet
EndChar

StartChar: Gdotaccent
Encoding: 382 288 224
Width: 733
Flags: MW
HStem: -21 116<364 460> 226 112<487 555 461 733> 600 116<477.5 622.5> 745 164<510 712 548 674>
VStem: 118 166
LayerCount: 2
Fore
SplineSet
510 745 m 1
 548 909 l 1
 712 909 l 1
 674 745 l 1
 510 745 l 1
134 348 m 0
 138 367 143 385 149 403 c 0
 213 602 349 716 585 716 c 0
 673 716 730 702 800 665 c 1
 740 515 l 1
 723 530 685 600 560 600 c 0xe8
 395 600 327 475 297 348 c 0
 265 211 283 95 445 95 c 0
 478 95 510 104 527 104 c 1
 555 226 l 1
 461 226 l 1
 487 338 l 1
 733 338 l 1
 661 28 l 1
 588 0 506 -21 414 -21 c 0
 122 -21 90 155 134 348 c 0
EndSplineSet
EndChar

StartChar: gdotaccent
Encoding: 383 289 225
Width: 561
Flags: MW
HStem: -182 89<199 284.5 199 304> 23 89<181 296> 394 89<340 354.5 264.5 389> 517 161<301 500 339 462>
VStem: 74 154
LayerCount: 2
Fore
SplineSet
301 517 m 1
 339 678 l 1
 500 678 l 1
 462 517 l 1
 301 517 l 1
84 236 m 0
 87 247 89 258 93 270 c 0
 122 365 183 483 346 483 c 0
 363 483 378 481 390 477 c 0
 415 469 432 453 446 434 c 1
 458 483 l 1
 606 483 l 1
 502 33 l 2
 475 -92 381 -182 227 -182 c 0
 145 -182 96 -165 39 -130 c 1
 65 -16 l 1
 111 -58 155 -93 243 -93 c 0
 326 -93 338 -17 349 26 c 2
 363 88 l 1
 331 52 286 23 230 23 c 0
 132 23 44 68 84 236 c 0
236 238 m 0
 234 231 233 224 232 217 c 0
 223 167 226 112 292 112 c 0
 300 112 306 113 313 115 c 0
 364 131 395 213 403 249 c 2
 418 310 l 2
 419 316 427 338 424 357 c 0
 421 376 408 394 370 394 c 0
 310 394 262 348 236 238 c 0
EndSplineSet
EndChar

StartChar: Hcircumflex
Encoding: 384 292 226
Width: 794
Flags: MW
HStem: 0 21G<84 84 84 248 534 534 534 698> 305 112<344 604 318 630> 675 20G<244 408 408 408 694 858 858 858> 744 167<373 658 657 657 657 658 542 752>
VStem: 84 774<0 695>
LayerCount: 2
Fore
SplineSet
373 744 m 1
 542 911 l 1
 658 911 l 1
 752 744 l 1
 657 744 l 1
 581 828 l 1
 468 744 l 1
 373 744 l 1
84 0 m 1
 244 695 l 1
 408 695 l 1
 344 417 l 1
 630 417 l 1
 694 695 l 1
 858 695 l 1
 698 0 l 1
 534 0 l 1
 604 305 l 1
 318 305 l 1
 248 0 l 1
 84 0 l 1
EndSplineSet
EndChar

StartChar: hcircumflex
Encoding: 385 293 227
Width: 561
Flags: MW
HStem: 0 21G<53 53 53 203 345 345 345 495> 394 89<353 504> 714 164<252 534 532 532 532 534 420 626>
VStem: 424 156
LayerCount: 2
Fore
SplineSet
252 714 m 1
 420 878 l 1
 534 878 l 1
 626 714 l 1
 532 714 l 1
 458 796 l 1
 346 714 l 1
 252 714 l 1
53 0 m 1
 211 686 l 1
 358 686 l 1
 310 478 l 1
 310 478 310 478 310 478 c 1
 294 409 l 1
 327 446 383 483 457 483 c 0
 551 483 580 448 580 396 c 0
 581 369 575 333 564 301 c 2
 495 0 l 1
 345 0 l 1
 420 323 l 2
 429 363 429 394 381 394 c 0
 325 394 281 334 269 288 c 2
 203 0 l 1
 53 0 l 1
EndSplineSet
EndChar

StartChar: hbar
Encoding: 386 295 228
Width: 617
Flags: MW
HStem: 0 21G<107 258 107 107 400 550 400 400> 394 89<385.5 560> 490 88<103 240 123 220 388 517>
VStem: 479 156
LayerCount: 2
Fore
SplineSet
103 490 m 1
 123 578 l 1
 240 578 l 1
 265 686 l 1
 413 686 l 1
 388 578 l 1
 537 578 l 1
 517 490 l 1
 368 490 l 1xb0
 349 409 l 1
 387 447 434 483 512 483 c 0
 608 483 638 447 635 385 c 0
 635 353 622 322 617 291 c 2
 550 0 l 1
 400 0 l 1
 475 323 l 2
 484 363 483 394 435 394 c 0xd0
 336 394 320 264 305 206 c 0
 289 137 273 69 258 0 c 1
 107 0 l 1
 220 490 l 1
 103 490 l 1
EndSplineSet
EndChar

StartChar: Itilde
Encoding: 387 296 229
Width: 331
Flags: MW
HStem: 0 21G<81 81 81 244> 675 20G<241 404 404 404> 790 10<160 167 160 247> 790 91<406 446> 848 91<285 341.5>
VStem: 81 487
LayerCount: 2
Fore
SplineSet
167 790 m 1xec
 160 800 l 1
 180 875 234 930 295 938 c 0
 300 939 305 939 310 939 c 0xec
 373 939 387 890 432 880 c 0
 440 879 443 880 446 881 c 1
 445 881 445 881 444 881 c 1
 458 890 468 899 478 939 c 1
 568 939 l 1
 546 857 493 800 430 791 c 0
 425 790 421 790 416 790 c 0xd4
 396 790 376 796 360 805 c 0
 333 821 317 848 285 848 c 1
 270 833 259 836 247 790 c 1
 167 790 l 1xec
81 0 m 1
 241 695 l 1
 404 695 l 1
 244 0 l 1
 81 0 l 1
EndSplineSet
EndChar

StartChar: itilde
Encoding: 388 297 230
Width: 256
Flags: MW
HStem: 0 21G<52 52 52 200> 452 20G<161 309 309 309> 566 10 566 90 566 147<81 255 81 255 218.5 358.5> 657 56
VStem: 52 425
LayerCount: 2
Fore
SplineSet
81 566 m 2xca
 78 569 76 573 73 576 c 0xe2
 91 649 146 703 205 712 c 0
 210 713 216 713 221 713 c 0xca
 289 713 298 661 344 656 c 0xd2
 349 655 353 656 356 657 c 2
 356 657 355 657 355 657 c 1xc6
 369 666 377 675 387 713 c 1
 477 713 l 1
 455 626 391 566 326 566 c 0
 255 566 243 622 196 625 c 1
 180 613 171 607 160 566 c 1
 81 566 l 2xca
52 0 m 1
 161 472 l 1
 309 472 l 1
 200 0 l 1
 52 0 l 1
EndSplineSet
EndChar

StartChar: Imacron
Encoding: 389 298 231
Width: 331
Flags: MW
HStem: 0 21G<81 81 81 244> 675 20G<241 404 404 404> 745 102<133 562 157 538>
VStem: 81 481
LayerCount: 2
Fore
SplineSet
133 745 m 1
 157 847 l 1
 562 847 l 1
 538 745 l 1
 133 745 l 1
81 0 m 1
 241 695 l 1
 404 695 l 1
 244 0 l 1
 81 0 l 1
EndSplineSet
EndChar

StartChar: imacron
Encoding: 390 299 232
Width: 387
Flags: MW
HStem: 0 21G<179 179 179 327> 452 20G<288 436 436 436> 556 101<181 605 205 581>
VStem: 179 426
LayerCount: 2
Fore
SplineSet
181 556 m 1
 205 657 l 1
 605 657 l 1
 581 556 l 1
 181 556 l 1
179 0 m 1
 288 472 l 1
 436 472 l 1
 327 0 l 1
 179 0 l 1
EndSplineSet
Ligature2: "'liga' Standard Ligatures in Latin lookup 10 subtable" i uni0304
EndChar

StartChar: Ibreve
Encoding: 391 300 233
Width: 331
Flags: MW
HStem: 0 21G<81 81 81 244> 675 20G<241 404 404 404> 745 111<346.5 380.5 346.5 383.5>
VStem: 81 488
LayerCount: 2
Fore
SplineSet
182 923 m 1
 272 923 l 1
 263 863 331 856 362 856 c 0
 399 856 462 869 480 923 c 1
 569 923 l 1
 540 811 432 745 335 745 c 0
 239 745 160 811 182 923 c 1
81 0 m 1
 241 695 l 1
 404 695 l 1
 244 0 l 1
 81 0 l 1
EndSplineSet
EndChar

StartChar: ibreve
Encoding: 392 301 234
Width: 378
Flags: MW
HStem: 0 21G<170 170 170 318> 452 20G<279 427 427 427> 517 109<373 406 373 410.5> 517 176<213 410.5>
VStem: 170 425
LayerCount: 2
Fore
SplineSet
213 693 m 1xd8
 301 693 l 1xd8
 293 636 356 626 390 626 c 0xe8
 422 626 488 637 507 693 c 1
 595 693 l 1
 567 582 458 517 363 517 c 0
 268 517 191 581 213 693 c 1xd8
170 0 m 1
 279 472 l 1
 427 472 l 1
 318 0 l 1
 170 0 l 1
EndSplineSet
Ligature2: "'liga' Standard Ligatures in Latin lookup 10 subtable" i uni0306
EndChar

StartChar: Idotaccent
Encoding: 393 304 235
Width: 331
Flags: MW
HStem: 0 21G<81 81 81 244> 675 20G<241 404 404 404> 764 163<257 458 295 420>
VStem: 81 377
LayerCount: 2
Fore
SplineSet
81 0 m 1
 241 695 l 1
 404 695 l 1
 244 0 l 1
 81 0 l 1
257 764 m 1
 295 927 l 1
 458 927 l 1
 420 764 l 1
 257 764 l 1
EndSplineSet
EndChar

StartChar: dotlessi
Encoding: 394 305 236
Width: 256
Flags: MW
HStem: 0 21G<51 51 51 198> 452 20G<160 307 307 307>
VStem: 51 256
LayerCount: 2
Fore
SplineSet
51 0 m 1
 160 472 l 1
 307 472 l 1
 198 0 l 1
 51 0 l 1
EndSplineSet
EndChar

StartChar: IJ
Encoding: 395 306 237
Width: 819
Flags: MW
HStem: -21 113<484.5 536 465 571.5> 0 21G<54 54 54 217> 675 20G<214 377 377 377 721 882 882 882>
VStem: 54 828<0 695>
LayerCount: 2
Fore
SplineSet
336 22 m 1x70
 395 171 l 1x70
 405 147 434 92 496 92 c 0
 576 92 594 138 597 156 c 1
 597 156 597 156 597 156 c 1
 721 695 l 1
 882 695 l 1
 758 154 l 2
 728 27 624 -21 519 -21 c 0xb0
 450 -21 387 -4 336 22 c 1x70
54 0 m 1
 214 695 l 1
 377 695 l 1
 217 0 l 1
 54 0 l 1
EndSplineSet
Ligature2: "'dlig' Discretionary Ligatures in Latin lookup 13 subtable" I J
Ligature2: "'liga' Standard Ligatures in Latin lookup 12 subtable" I J
EndChar

StartChar: ij
Encoding: 396 307 238
Width: 592
Flags: MW
HStem: -171 101<316 340 304 392> 0 21G<62 62 62 210> 452 20G<171 319 319 319 493 640 640 640> 550 136<189 368 220 337 542 658>
VStem: 62 627
LayerCount: 2
Fore
SplineSet
202 -137 m 1
 245 -50 l 1
 274 -64 291 -70 317 -70 c 0
 363 -70 371 -57 374 -43 c 2
 493 472 l 1
 640 472 l 1
 523 -36 l 2
 520 -51 515 -65 509 -78 c 0
 484 -134 439 -171 345 -171 c 0
 287 -171 244 -157 202 -137 c 1
511 550 m 1
 542 686 l 1
 689 686 l 1
 658 550 l 1
 511 550 l 1
62 0 m 1
 171 472 l 1
 319 472 l 1
 210 0 l 1
 62 0 l 1
189 550 m 1
 220 686 l 1
 368 686 l 1
 337 550 l 1
 189 550 l 1
EndSplineSet
Ligature2: "'dlig' Discretionary Ligatures in Latin lookup 13 subtable" i j
Ligature2: "'liga' Standard Ligatures in Latin lookup 12 subtable" i j
EndChar

StartChar: Jcircumflex
Encoding: 397 308 239
Width: 519
Flags: MW
HStem: -21 113<198 244 171.5 278.5> 675 20G<428 589 589 589> 745 167<331 616 615 615 615 616 502 710>
VStem: 42 668
LayerCount: 2
Fore
SplineSet
331 745 m 1
 502 912 l 1
 616 912 l 1
 710 745 l 1
 615 745 l 1
 539 829 l 1
 427 745 l 1
 331 745 l 1
42 22 m 1
 101 170 l 1
 113 148 140 92 203 92 c 0
 285 92 300 139 304 157 c 2
 428 695 l 1
 589 695 l 1
 466 160 l 2
 432 23 331 -21 226 -21 c 0
 170 -21 108 -11 42 22 c 1
EndSplineSet
EndChar

StartChar: jcircumflex
Encoding: 398 309 240
Width: 286
Flags: MW
HStem: -171 101<32.5 37.5 2 117.5> 452 20G<190 338 338 338> 517 164<87 369 367 367 367 369 255 461>
VStem: -109 570
LayerCount: 2
Fore
SplineSet
87 517 m 1
 255 681 l 1
 369 681 l 1
 461 517 l 1
 367 517 l 1
 294 600 l 1
 181 517 l 1
 87 517 l 1
-109 -137 m 1
 -55 -51 l 1
 -30 -64 -11 -70 15 -70 c 0
 60 -70 68 -58 71 -43 c 2
 190 472 l 1
 338 472 l 1
 224 -23 l 2
 208 -78 195 -171 40 -171 c 0
 25 -171 11 -170 -2 -168 c 0
 -42 -163 -78 -151 -109 -137 c 1
EndSplineSet
Ligature2: "'liga' Standard Ligatures in Latin lookup 11 subtable" j uni0302
EndChar

StartChar: Lacute
Encoding: 399 313 241
Width: 581
Flags: MW
HStem: 0 119 675 20G<243 407 407 407> 737 121
VStem: 83 478<0 121>
LayerCount: 2
Fore
SplineSet
146 742 m 1
 160 752 174 762 187 772 c 0
 258 825 306 858 404 858 c 2
 477 858 l 2
 495 858 511 864 511 841 c 1
 369 781 l 2
 217 716 270 742 210 742 c 2
 146 742 l 1
83 0 m 1
 243 695 l 1
 407 695 l 1
 274 118 l 1
 561 121 l 1
 533 0 l 1
 83 0 l 1
EndSplineSet
EndChar

StartChar: lacute
Encoding: 400 314 242
Width: 256
Flags: MW
HStem: 0 21G<52 52 52 199> 831 16<537 537>
VStem: 52 485
LayerCount: 2
Fore
SplineSet
178 734 m 1
 303 820 343 847 432 847 c 2
 473 847 l 1
 511 847 l 2
 520 847 529 847 537 847 c 1
 537 831 l 1
 517 822 498 814 481 807 c 2
 395 771 l 1
 326 745 l 2
 308 738 297 733 291 733 c 2
 249 733 l 2
 226 733 202 734 178 734 c 1
52 0 m 1
 210 686 l 1
 357 686 l 1
 199 0 l 1
 52 0 l 1
EndSplineSet
EndChar

StartChar: Lcaron
Encoding: 401 317 243
Width: 581
Flags: MW
HStem: 0 119 675 20<243 443 243 412>
VStem: 83 510
LayerCount: 2
Fore
SplineSet
388 603 m 1
 443 675 l 1
 412 675 l 1
 446 822 l 1
 593 822 l 1
 587 798 581 775 576 751 c 2
 565 704 l 2
 556 669 544 667 522 646 c 2
 473 603 l 1
 388 603 l 1
83 0 m 1
 243 695 l 1
 406 695 l 1
 273 118 l 1
 561 121 l 1
 533 0 l 1
 83 0 l 1
EndSplineSet
EndChar

StartChar: lcaron
Encoding: 402 318 244
Width: 426
Flags: MW
HStem: 0 21G<52 52 52 200> 603 83<210 408 210 379>
VStem: 52 505
LayerCount: 2
Fore
SplineSet
356 532 m 1
 408 603 l 1
 379 603 l 1
 413 748 l 1
 557 748 l 1
 547 710 540 670 530 632 c 2
 525 609 l 1
 520 605 517 601 513 598 c 2
 438 532 l 1
 356 532 l 1
52 0 m 1
 210 686 l 1
 358 686 l 1
 200 0 l 1
 52 0 l 1
EndSplineSet
EndChar

StartChar: Lslash
Encoding: 403 321 245
Width: 672
Flags: MW
HStem: 0 119 675 20G<333 496 496 496>
VStem: 126 525<121 279>
LayerCount: 2
Fore
SplineSet
126 279 m 1
 257 365 l 1
 333 695 l 1
 496 695 l 1
 451 497 l 1
 584 588 l 1
 633 500 l 1
 418 355 l 1
 363 118 l 1
 651 121 l 1
 623 0 l 1
 173 0 l 1
 224 223 l 1
 176 190 l 1
 126 279 l 1
EndSplineSet
EndChar

StartChar: lslash
Encoding: 404 322 246
Width: 381
Flags: MW
HStem: 0 21G<110 258 110 110> 452 20G<367 367>
VStem: 69 415<271 455>
LayerCount: 2
Fore
SplineSet
69 271 m 1
 192 354 l 1
 268 686 l 1
 416 686 l 1
 367 472 l 1
 445 525 l 1
 484 455 l 1
 341 358 l 1
 258 0 l 1
 110 0 l 1
 165 240 l 1
 107 201 l 1
 69 271 l 1
EndSplineSet
EndChar

StartChar: Nacute
Encoding: 405 323 247
Width: 794
Flags: MW
HStem: 0 21G<84 84 84 223 495 495 495 698> 0 167<495 597 597 597 597 698> 527 168<345 345> 675 20G<244 446 446 446 718 858 858 858> 736 122 841 16<706 764>
VStem: 84 774<0 695>
LayerCount: 2
Fore
SplineSet
400 742 m 1x9a
 568 858 l 1
 649 858 l 2
 668 858 687 857 706 857 c 2
 764 857 l 1xaa
 764 841 l 1x96
 623 781 l 2
 467 714 512 742 476 742 c 2
 400 742 l 1x9a
84 0 m 1
 244 695 l 1
 446 695 l 1
 597 167 l 1x5a
 718 695 l 1
 858 695 l 1
 698 0 l 1
 495 0 l 1
 345 527 l 1
 223 0 l 1
 84 0 l 1
EndSplineSet
EndChar

StartChar: nacute
Encoding: 406 324 248
Width: 561
Flags: MW
HStem: 0 21G<53 53 53 203 345 345 345 495> 394 84<163 397> 394 89<351.5 504> 520 153<282 587 282 587 343 587>
VStem: 53 534 425 155<353.5 422>
LayerCount: 2
Fore
SplineSet
282 520 m 1xd8
 425 673 l 1
 587 673 l 1
 374 520 l 1
 364 520 353 520 343 520 c 2
 282 520 l 1xd8
53 0 m 1
 163 478 l 1
 308 478 l 1
 291 404 l 1xd8
 327 442 383 483 457 483 c 0
 551 483 580 448 580 396 c 0
 580 366 565 331 565 302 c 1xb4
 542 201 518 101 495 0 c 1
 345 0 l 1
 420 323 l 1
 420 323 420 323 420 323 c 1
 423 336 425 348 425 359 c 0
 424 380 413 394 381 394 c 0xd4
 322 394 283 331 269 288 c 1
 203 0 l 1
 53 0 l 1
EndSplineSet
EndChar

StartChar: Ncaron
Encoding: 407 327 249
Width: 794
Flags: MW
HStem: 0 21G<84 84 84 223 495 495 495 698> 0 167<495 597 597 597 597 698> 527 168<345 345> 675 20G<244 446 446 446 718 858 858 858> 708 189<491 498 405 617 491 491>
VStem: 84 774<0 695>
LayerCount: 2
Fore
SplineSet
405 897 m 1x9c
 498 897 l 1
 576 801 l 1
 698 897 l 1
 791 897 l 1
 617 708 l 1
 491 708 l 1
 405 897 l 1x9c
84 0 m 1
 244 695 l 1
 446 695 l 1
 597 167 l 1x54
 718 695 l 1
 858 695 l 1
 698 0 l 1
 495 0 l 1
 345 527 l 1xa4
 223 0 l 1
 84 0 l 1
EndSplineSet
EndChar

StartChar: ncaron
Encoding: 408 328 250
Width: 561
Flags: MW
HStem: 0 21G<53 53 53 203 345 345 345 495> 394 84<163 397> 394 89<351.5 504> 519 153<221 442 221 330>
VStem: 53 568 425 155<353.5 422>
LayerCount: 2
Fore
SplineSet
221 672 m 1xd8
 316 672 l 1
 403 591 l 1
 526 672 l 1
 621 672 l 1
 442 519 l 1
 330 519 l 1
 221 672 l 1xd8
53 0 m 1
 163 478 l 1
 308 478 l 1
 291 404 l 1xd8
 327 442 383 483 457 483 c 0
 551 483 580 448 580 396 c 0
 580 366 565 331 565 302 c 1xb4
 542 201 518 101 495 0 c 1
 345 0 l 1
 420 323 l 1
 420 323 420 323 420 323 c 1
 423 336 425 348 425 359 c 0
 424 380 413 394 381 394 c 0xd4
 322 394 283 331 269 288 c 1
 203 0 l 1
 53 0 l 1
EndSplineSet
EndChar

StartChar: Eng
Encoding: 409 330 251
Width: 825
Flags: MW
HStem: -21 113<552.5 577.5 545.5 620.5> 0 21G<85 85 85 248> 631 151<566 595.5> 675 20G<245 300 300 355 355 355>
VStem: 703 167
LayerCount: 2
Fore
SplineSet
85 0 m 1x58
 245 695 l 1
 300 695 l 1
 355 695 l 1
 435 755 528 782 604 782 c 0x58
 763 782 910 670 860 448 c 2
 793 155 l 2
 760 14 657 -21 584 -21 c 0
 521 -21 470 -1 430 22 c 1xa8
 495 181 l 1x58
 506 117 531 92 560 92 c 0
 595 92 621 106 644 217 c 1
 644 217 644 217 644 217 c 1
 697 446 l 2
 730 592 627 631 564 631 c 0xa8
 472 631 378 561 360 484 c 2
 248 0 l 1
 85 0 l 1x58
EndSplineSet
EndChar

StartChar: eng
Encoding: 410 331 252
Width: 561
Flags: MW
HStem: -171 101<294 305 268 377.5> 0 21G<53 53 53 203> 394 84<163 397> 394 89<339.5 504>
VStem: 53 527<0 422> 425 155<353.5 422>
LayerCount: 2
Fore
SplineSet
53 0 m 1xe8
 163 478 l 1
 308 478 l 1
 291 404 l 1xe8
 327 442 383 483 457 483 c 0
 551 483 580 448 580 396 c 0
 580 360 567 328 562 292 c 2xd4
 558 272 l 2
 538 185 516 97 496 10 c 0
 489 -20 454 -171 301 -171 c 0
 287 -171 273 -170 259 -168 c 0
 218 -162 181 -149 156 -137 c 1
 217 -51 l 1
 239 -62 256 -70 280 -70 c 0
 330 -70 338 -34 342 -19 c 2
 347 10 l 2
 350 23 353 36 356 49 c 2
 420 323 l 1
 420 323 420 323 420 323 c 1
 423 336 425 348 425 359 c 0
 424 380 413 394 381 394 c 0xe4
 298 394 270 294 260 247 c 2
 203 0 l 1
 53 0 l 1xe8
EndSplineSet
EndChar

StartChar: Omacron
Encoding: 411 332 253
Width: 794
Flags: MW
HStem: -21 98<381.5 446 381.5 520> 621 95<473 556> 745 101<259 858 307 314 314 837>
VStem: 117 162 666 158
LayerCount: 2
Fore
SplineSet
285 745 m 0
 233 745 235 779 239 796 c 0
 243 815 262 846 307 846 c 2
 858 846 l 1
 858 846 858 846 858 846 c 1
 858 846 858 846 858 846 c 1
 895 846 908 833 911 818 c 0
 913 811 912 803 910 796 c 0
 906 777 889 745 837 745 c 2
 314 745 l 2
 304 745 295 745 285 745 c 0
134 345 m 0
 142 380 152 412 163 442 c 0
 241 647 392 716 554 716 c 0xf8
 757 716 869 615 806 343 c 0
 761 151 654 -21 386 -21 c 0xd8
 109 -21 92 160 134 345 c 0
302 369 m 0
 298 354 294 339 291 323 c 0
 278 261 271 198 290 145 c 0xf8
 310 100 355 77 408 77 c 0
 484 77 596 124 650 377 c 0
 667 452 680 531 636 584 c 1
 636 584 636 583 636 583 c 1
 615 606 579 621 533 621 c 0
 383 621 327 480 302 369 c 0
EndSplineSet
EndChar

StartChar: omacron
Encoding: 412 333 254
Width: 550
Flags: MW
HStem: -11 94<259.5 327.5> 399 89<326 377> 556 101<197 621 221 597>
VStem: 68 149 432 145
LayerCount: 2
Fore
SplineSet
197 556 m 1
 221 657 l 1
 621 657 l 1
 597 556 l 1
 197 556 l 1
80 239 m 0
 86 264 93 286 101 306 c 0
 159 447 271 488 381 488 c 0
 505 488 612 437 567 239 c 0
 519 30 390 -11 265 -11 c 0
 141 -11 31 31 80 239 c 0
230 241 m 0
 229 235 227 229 226 222 c 0
 222 202 218 182 217 163 c 0
 215 116 231 83 288 83 c 0
 383 83 403 176 418 241 c 0
 429 288 440 339 423 370 c 0
 413 388 394 399 360 399 c 0
 263 399 247 311 230 241 c 0
EndSplineSet
EndChar

StartChar: Obreve
Encoding: 413 334 255
Width: 794
Flags: MW
HStem: -21 98<381.5 446 381.5 520> 621 95<473 556> 745 111<574 604 574 611.5>
VStem: 117 162 666 158
LayerCount: 2
Fore
SplineSet
410 923 m 1
 499 923 l 1
 490 863 559 856 589 856 c 0
 619 856 689 865 707 923 c 1
 797 923 l 1
 768 811 661 745 562 745 c 0xf8
 467 745 388 811 410 923 c 1
134 345 m 0
 142 380 152 412 163 442 c 0
 241 647 392 716 554 716 c 0xd8
 757 716 869 615 806 343 c 0
 761 151 654 -21 386 -21 c 0
 109 -21 92 160 134 345 c 0
302 369 m 0
 298 354 294 339 291 323 c 0
 278 261 271 198 290 145 c 0
 310 100 355 77 408 77 c 0
 484 77 596 124 650 377 c 0
 667 452 680 531 636 584 c 1
 636 584 636 583 636 583 c 1
 615 606 579 621 533 621 c 0xd8
 383 621 327 480 302 369 c 0
EndSplineSet
EndChar

StartChar: obreve
Encoding: 414 335 256
Width: 550
Flags: MW
HStem: -11 94<259.5 327.5> 399 89<326 377> 517 109<398 430 398 434.5> 517 176<238 434.5>
VStem: 68 149 432 145
LayerCount: 2
Fore
SplineSet
238 693 m 1xdc
 326 693 l 1xdc
 318 634 382 626 414 626 c 0xec
 446 626 512 637 531 693 c 1
 619 693 l 1
 591 582 482 517 387 517 c 0
 292 517 214 581 238 693 c 1xdc
80 239 m 0
 86 264 93 286 101 306 c 0
 159 447 271 488 381 488 c 0xcc
 505 488 612 437 567 239 c 0
 519 30 390 -11 265 -11 c 0
 141 -11 31 31 80 239 c 0
230 241 m 0
 229 235 227 229 226 222 c 0
 222 202 218 182 217 163 c 0
 215 116 231 83 288 83 c 0
 383 83 403 176 418 241 c 0
 429 288 440 339 423 370 c 0
 413 388 394 399 360 399 c 0xcc
 263 399 247 311 230 241 c 0
EndSplineSet
EndChar

StartChar: Ohungarumlaut
Encoding: 415 336 257
Width: 794
Flags: MW
HStem: -21 98<336.5 412 336.5 520> 621 95<473 586> 742 115
VStem: 117 164 662 162
LayerCount: 2
Fore
SplineSet
534 743 m 1
 787 858 l 1
 824 858 860 858 897 858 c 1
 647 742 l 1
 609 742 572 743 534 743 c 1
356 743 m 1
 605 858 l 1
 641 858 678 858 714 858 c 1
 438 742 l 1
 411 742 383 743 356 743 c 1
134 345 m 0
 142 380 152 412 163 442 c 0
 241 647 392 716 554 716 c 0xd8
 757 716 869 615 806 343 c 0
 761 151 654 -21 386 -21 c 0
 109 -21 92 160 134 345 c 0
302 369 m 2
 292 323 l 2
 271 211 265 77 408 77 c 0
 416 77 425 78 434 79 c 0
 525 94 652 214 662 472 c 0
 665 555 639 621 533 621 c 0xd8
 383 621 326 480 302 369 c 2
EndSplineSet
EndChar

StartChar: ohungarumlaut
Encoding: 416 337 258
Width: 550
Flags: MW
HStem: -11 94<260.5 328.5> 399 89<327 378> 520 153<218 523 218 523 395 456 395 395>
VStem: 68 150 433 144
LayerCount: 2
Fore
SplineSet
218 520 m 1
 361 673 l 1
 523 673 l 1
 459 627 417 596 387 575 c 2
 330 535 l 2
 303 516 300 520 279 520 c 2
 218 520 l 1
395 520 m 1
 538 673 l 1
 699 673 l 1
 636 627 593 596 563 575 c 2
 507 535 l 2
 480 516 477 520 456 520 c 2
 395 520 l 1
80 239 m 0
 86 264 93 286 101 306 c 0
 159 448 272 488 382 488 c 0
 508 488 611 435 567 239 c 0
 519 29 391 -11 266 -11 c 0
 141 -11 31 31 80 239 c 0
231 241 m 0
 230 235 228 229 227 222 c 0
 223 202 219 182 218 163 c 0
 216 116 232 83 289 83 c 0
 384 83 404 176 419 241 c 0
 430 288 441 339 424 370 c 0
 414 388 395 399 361 399 c 0
 264 399 248 311 231 241 c 0
EndSplineSet
EndChar

StartChar: OE
Encoding: 417 338 259
Width: 1069
Flags: MW
HStem: -21 89<371 421.5> 0 125 305 112<758 1037 732 1063> 574 120 626 90<473.5 562>
VStem: 90 165
LayerCount: 2
Fore
SplineSet
106 344 m 0x74
 114 377 123 407 134 435 c 0
 219 656 394 716 553 716 c 0
 629 716 674 695 754 695 c 2
 1157 695 l 1
 1129 573 l 1
 795 576 l 1
 758 417 l 1
 1063 417 l 1
 1037 305 l 1
 732 305 l 1
 690 123 l 1
 1040 127 l 1
 1011 0 l 1x74
 594 0 l 2
 514 0 460 -21 383 -21 c 0xb4
 197 -21 38 54 106 344 c 0x74
271 362 m 0
 266 340 262 319 259 300 c 0
 234 109 330 68 412 68 c 0
 541 68 539 173 560 250 c 1
 560 250 560 250 560 250 c 1
 603 437 l 2xac
 624 528 632 577 617 602 c 0
 606 621 582 626 542 626 c 0x74
 324 626 282 410 271 362 c 0
EndSplineSet
EndChar

StartChar: oe
Encoding: 418 339 260
Width: 856
Flags: MW
HStem: -11 90<262.5 307.5 262.5 319> 240 71<600 749 600 864 578 749> 400 88<328 384>
VStem: 72 143 441 126 749 131
LayerCount: 2
Fore
SplineSet
83 239 m 0
 87 257 92 274 98 290 c 0
 152 445 271 488 385 488 c 0
 481 488 523 462 547 438 c 1
 576 460 634 488 723 488 c 0
 838 488 877 429 881 358 c 0
 884 307 868 256 864 240 c 1
 578 240 l 1
 565 182 559 131 588 100 c 1
 588 100 587 100 587 100 c 1
 601 84 621 79 645 79 c 0
 730 79 809 139 830 154 c 1
 812 40 l 1
 757 12 706 -5 652 -10 c 0
 641 -11 630 -11 619 -11 c 0
 520 -11 479 20 456 41 c 1
 423 19 367 -11 271 -11 c 0
 74 -11 53 108 83 239 c 0
228 238 m 0
 221 213 216 184 215 162 c 0
 213 109 233 79 292 79 c 0
 323 79 350 90 369 107 c 0
 420 155 438 276 441 328 c 0
 444 402 404 400 364 400 c 0
 264 400 245 313 228 238 c 0
600 311 m 1
 749 311 l 1
 749 319 750 328 750 336 c 0
 748 368 738 399 701 399 c 0
 643 399 613 341 600 311 c 1
EndSplineSet
EndChar

StartChar: Racute
Encoding: 419 340 261
Width: 703
Flags: MW
HStem: 0 21G<84 84 84 244 508 508 508 675> 302 91<335 406 314 441> 591 104<380 487 380 380> 737 121 841 16<647 705>
VStem: 601 156
LayerCount: 2
Fore
SplineSet
341 742 m 1xf4
 509 858 l 1
 590 858 l 2
 609 858 628 857 647 857 c 2
 705 857 l 1xf4
 705 841 l 1xec
 563 781 l 2
 410 715 451 742 416 742 c 2
 341 742 l 1xf4
84 0 m 1
 244 695 l 1
 498 695 l 2
 685 695 750 627 757 549 c 0
 758 530 756 511 752 493 c 0
 730 395 660 335 563 315 c 1
 598 212 640 101 675 0 c 1
 508 0 l 1
 406 302 l 1
 314 302 l 1
 244 0 l 1
 84 0 l 1
335 393 m 1
 441 393 l 2
 523 393 577 407 597 492 c 0
 616 575 570 591 487 591 c 2
 380 591 l 1
 335 393 l 1
EndSplineSet
EndChar

StartChar: racute
Encoding: 420 341 262
Width: 372
Flags: MW
HStem: 0 21G<52 52 52 200> 366 117<439 467> 458 20G<162 304 304 304> 520 153<192 497 192 497 238 497>
VStem: 52 445
LayerCount: 2
Fore
SplineSet
192 520 m 1xb8
 336 673 l 1
 497 673 l 1
 426 622 355 571 284 520 c 1
 268 520 253 520 238 520 c 2
 192 520 l 1xb8
52 0 m 1
 162 478 l 1
 304 478 l 1
 294 434 l 1
 294 434 294 434 294 434 c 1xb8
 284 390 l 1
 321 437 387 481 467 483 c 1
 439 366 l 1xd8
 332 364 273 300 260 258 c 2
 200 0 l 1
 52 0 l 1
EndSplineSet
EndChar

StartChar: Rcaron
Encoding: 421 344 263
Width: 703
Flags: MW
HStem: 0 21G<84 84 84 244 508 508 508 675> 302 91<335 406 314 441> 591 104<380 487 380 380> 708 189<426 432 339 550 426 426>
VStem: 601 156
LayerCount: 2
Fore
SplineSet
339 897 m 1
 432 897 l 1
 510 801 l 1
 632 897 l 1
 726 897 l 1
 550 708 l 1
 426 708 l 1
 339 897 l 1
84 0 m 1
 244 695 l 1
 498 695 l 2xe8
 685 695 750 627 757 549 c 0
 758 530 756 511 752 493 c 0
 730 395 660 335 563 315 c 1
 598 212 640 101 675 0 c 1
 508 0 l 1
 406 302 l 1
 314 302 l 1
 244 0 l 1
 84 0 l 1
335 393 m 1
 441 393 l 2
 523 393 577 407 597 492 c 0
 616 575 570 591 487 591 c 2
 380 591 l 1
 335 393 l 1
EndSplineSet
EndChar

StartChar: rcaron
Encoding: 422 345 264
Width: 372
Flags: MW
HStem: 0 21G<54 54 54 202> 366 117<441 469> 458 20G<164 306 306 306> 519 153<191 412 191 299>
VStem: 54 537
LayerCount: 2
Fore
SplineSet
191 672 m 1xb8
 286 672 l 1
 372 591 l 1
 496 672 l 1
 591 672 l 1
 412 519 l 1
 299 519 l 1
 191 672 l 1xb8
54 0 m 1
 164 478 l 1
 306 478 l 1
 296 434 l 1
 296 434 296 434 296 434 c 1xb8
 286 390 l 1
 323 437 389 481 469 483 c 1
 441 366 l 1xd8
 334 364 275 300 262 258 c 2
 202 0 l 1
 54 0 l 1
EndSplineSet
EndChar

StartChar: Sacute
Encoding: 423 346 265
Width: 611
Flags: MW
HStem: -21 125<276.5 368.5 276.5 392> 596 120<393 462.5> 842 16<659 659>
VStem: 164 13 450 150
LayerCount: 2
Fore
SplineSet
296 743 m 1
 439 842 l 1
 463 858 l 1
 472 858 480 858 489 858 c 2
 659 858 l 1
 659 842 l 1
 437 749 435 742 408 742 c 0
 370 742 334 743 296 743 c 1
52 51 m 1
 113 202 l 1
 173 144 229 104 324 104 c 0
 413 104 442 154 450 189 c 0
 452 200 453 210 451 219 c 0
 445 245 422 262 403 270 c 1
 403 270 404 270 404 270 c 1
 392 274 376 277 359 281 c 0
 297 293 213 312 177 396 c 1
 177 396 177 395 177 395 c 1
 165 424 158 459 169 504 c 0
 196 614 272 716 461 716 c 0
 473 716 484 716 495 715 c 0
 559 712 606 699 669 665 c 1
 609 515 l 1
 604 519 597 528 588 538 c 2
 572 553 l 2
 566 558 558 564 550 569 c 0
 523 586 488 596 437 596 c 0
 349 596 324 553 316 522 c 0
 306 484 332 463 366 452 c 0
 409 437 453 434 495 416 c 0
 566 385 618 310 594 203 c 0
 568 86 489 -21 295 -21 c 0
 203 -21 123 5 52 51 c 1
EndSplineSet
EndChar

StartChar: sacute
Encoding: 424 347 266
Width: 422
Flags: MW
HStem: -11 95<189 250 189 256> 400 88<283.5 297.5> 520 153<219 524 219 524 280 524>
VStem: 32 492
LayerCount: 2
Fore
SplineSet
32 38 m 1
 84 170 l 1
 97 153 l 2
 110 134 146 84 232 84 c 0
 268 84 301 93 309 128 c 0
 315 151 302 164 284 170 c 1
 312 161 136 163 106 275 c 0
 101 293 101 314 107 339 c 0
 137 469 233 488 322 488 c 0
 385 488 422 481 484 453 c 1
 437 338 l 1
 406 365 376 393 319 399 c 0
 311 400 302 400 293 400 c 0
 274 400 249 396 238 382 c 0
 234 377 230 370 228 362 c 0
 214 310 321 307 358 286 c 0
 420 251 431 211 431 169 c 0
 431 24 301 -11 211 -11 c 0
 139 -11 86 6 32 38 c 1
219 520 m 1
 363 673 l 1
 524 673 l 1
 311 520 l 1
 301 520 290 520 280 520 c 2
 219 520 l 1
EndSplineSet
EndChar

StartChar: Scircumflex
Encoding: 425 348 267
Width: 611
Flags: MW
HStem: -21 125<276.5 368.5 276.5 392> 596 120<393 462.5> 745 167<277 563 561 561 561 563 447 656>
VStem: 164 13 450 150
LayerCount: 2
Fore
SplineSet
277 745 m 1
 447 912 l 1
 563 912 l 1
 656 745 l 1
 561 745 l 1
 486 829 l 1
 373 745 l 1
 277 745 l 1
52 51 m 1
 113 202 l 1
 173 144 229 104 324 104 c 0
 413 104 442 154 450 189 c 0
 452 200 453 210 451 219 c 0
 445 245 422 262 403 270 c 1
 403 270 404 270 404 270 c 1
 392 274 376 277 359 281 c 0
 297 293 213 312 177 396 c 1
 177 396 177 395 177 395 c 1
 165 424 158 459 169 504 c 0
 196 614 272 716 461 716 c 0
 473 716 484 716 495 715 c 0
 559 712 606 699 669 665 c 1
 609 515 l 1
 604 519 597 528 588 538 c 2
 572 553 l 2
 566 558 558 564 550 569 c 0
 523 586 488 596 437 596 c 0
 349 596 324 553 316 522 c 0xd8
 306 484 332 463 366 452 c 0
 409 437 453 434 495 416 c 0
 566 385 618 310 594 203 c 0
 568 86 489 -21 295 -21 c 0
 203 -21 123 5 52 51 c 1
EndSplineSet
EndChar

StartChar: scircumflex
Encoding: 426 349 268
Width: 422
Flags: MW
HStem: -11 95<175 258 175 260.5> 400 88<276.5 323> 517 164<141 422 421 421 421 422 308 515>
VStem: 32 483<38 517> 103 125 309 125
LayerCount: 2
Fore
SplineSet
141 517 m 1xf0
 308 681 l 1
 422 681 l 1
 515 517 l 1
 421 517 l 1
 348 600 l 1
 235 517 l 1
 141 517 l 1xf0
32 38 m 1
 84 170 l 2
 83 172 83 171 83 170 c 0
 84 160 118 84 232 84 c 0
 284 84 303 107 309 129 c 0
 313 151 297 165 279 171 c 1
 224 171 103 204 103 299 c 0
 103 311 104 324 107 338 c 0
 137 463 230 488 323 488 c 0
 385 488 422 481 484 453 c 1
 437 338 l 1
 390 380 356 400 290 400 c 0
 242 400 230 377 228 362 c 0
 224 345 230 334 243 327 c 0xcc
 327 271 463 309 428 147 c 0
 400 22 311 -11 210 -11 c 0
 139 -11 86 6 32 38 c 1
EndSplineSet
EndChar

StartChar: Scedilla
Encoding: 427 350 269
Width: 611
Flags: MW
HStem: -194 144<101 319> -19 123<276.5 368.5 276.5 387.5> 596 120<393 461>
VStem: 164 13
LayerCount: 2
Fore
SplineSet
52 51 m 1
 113 202 l 1
 173 144 229 104 324 104 c 0
 413 104 442 154 450 189 c 0
 458 228 436 255 404 270 c 0
 345 290 223 288 177 396 c 1
 177 396 177 395 177 395 c 1
 165 424 158 459 169 504 c 0
 196 614 272 716 461 716 c 0
 544 716 596 705 669 665 c 1
 609 515 l 1
 604 519 597 528 588 538 c 2
 572 553 l 2
 566 558 558 564 550 569 c 0
 523 586 485 596 437 596 c 0
 349 596 324 553 316 522 c 0
 306 484 332 463 366 452 c 0
 409 437 453 434 495 416 c 0
 566 385 618 310 594 203 c 0
 566 78 483 -19 292 -19 c 0
 200 -19 123 4 52 51 c 1
101 -194 m 1
 226 -49 l 1
 257 -49 288 -50 319 -50 c 1
 225 -194 l 1
 101 -194 l 1
EndSplineSet
EndChar

StartChar: scedilla
Encoding: 428 351 270
Width: 422
Flags: MW
HStem: -192 153<18 240 18 240> -13 97<189.5 244.5> 400 88<283.5 330>
VStem: 18 466
LayerCount: 2
Fore
SplineSet
32 38 m 1
 84 170 l 1xf0
 111 133 147 84 232 84 c 0
 268 84 301 93 309 128 c 0
 318 168 284 174 246 178 c 0
 212 184 116 180 103 265 c 0
 100 285 100 309 107 339 c 0
 138 473 238 488 322 488 c 0
 384 488 421 476 484 453 c 1
 437 338 l 1
 402 369 367 400 293 400 c 0
 274 400 249 396 238 382 c 0
 234 377 230 370 228 362 c 0
 218 324 269 315 281 309 c 1
 281 309 281 309 281 309 c 1
 309 301 l 2
 326 295 343 289 357 281 c 0
 413 249 431 217 431 169 c 0
 431 13 280 -13 209 -13 c 0
 137 -13 86 4 32 38 c 1
18 -192 m 1
 149 -39 l 1
 240 -39 l 1
 140 -192 l 1
 18 -192 l 1
EndSplineSet
EndChar

StartChar: Scaron
Encoding: 429 352 271
Width: 611
Flags: MW
HStem: -21 125<276.5 368.5 276.5 392> 596 121<393 462.5> 741 185
VStem: 164 13 450 150
LayerCount: 2
Fore
SplineSet
321 927 m 1
 415 927 l 1
 493 831 l 1
 615 927 l 1
 708 927 l 1
 537 742 l 1
 493 742 450 741 406 741 c 1
 321 927 l 1
52 51 m 1
 113 202 l 1
 173 144 229 104 324 104 c 0
 413 104 442 154 450 189 c 0
 452 200 453 210 451 219 c 0
 445 245 422 262 403 270 c 1
 403 270 404 270 404 270 c 1
 392 274 376 277 359 281 c 0
 297 293 213 312 177 396 c 1
 177 396 177 395 177 395 c 1
 165 424 158 459 169 504 c 0
 195 620 274 717 466 717 c 0
 538 717 604 699 669 665 c 1
 609 515 l 1
 604 519 597 528 588 538 c 2
 572 553 l 2
 566 558 558 564 550 569 c 0
 523 586 488 596 437 596 c 0
 349 596 324 553 316 522 c 0xd8
 306 484 332 463 366 452 c 0
 409 437 453 434 495 416 c 0
 566 385 618 310 594 203 c 0
 568 86 489 -21 295 -21 c 0
 203 -21 123 5 52 51 c 1
EndSplineSet
EndChar

StartChar: scaron
Encoding: 430 353 272
Width: 422
Flags: MW
HStem: -11 95<189 242.5 189 262.5> 400 88<283 298> 519 153<158 379 158 267>
VStem: 31 527 309 123
LayerCount: 2
Fore
SplineSet
31 38 m 1xf0
 83 170 l 1
 97 153 l 2
 111 134 146 84 232 84 c 0
 253 84 281 87 297 105 c 0
 302 111 307 119 309 129 c 0
 319 169 264 175 219 185 c 0
 211 187 77 214 107 339 c 0
 138 475 244 488 322 488 c 0
 384 488 422 481 484 453 c 1
 436 338 l 1
 407 364 378 390 326 398 c 0
 316 400 304 400 292 400 c 0
 266 400 234 394 227 362 c 0
 218 326 266 315 283 315 c 1
 283 315 283 315 283 315 c 1
 326 305 393 303 424 226 c 1
 424 226 423 226 423 226 c 1
 437 192 431 162 428 147 c 0xe8
 399 21 314 -11 211 -11 c 0
 139 -11 86 6 31 38 c 1xf0
158 672 m 1
 253 672 l 1
 340 591 l 1
 463 672 l 1
 558 672 l 1
 379 519 l 1
 267 519 l 1
 158 672 l 1
EndSplineSet
EndChar

StartChar: Tcommaaccent
Encoding: 431 354 273
Width: 733
Flags: MW
HStem: -163 160<180 409 180 409> 0 21G<279 442 279 279> 569 119
VStem: 164 683<568 689>
LayerCount: 2
Fore
SplineSet
180 -163 m 1
 319 -3 l 1
 409 -3 l 1
 304 -163 l 1
 180 -163 l 1
164 568 m 1
 192 689 l 1
 847 689 l 1
 819 568 l 1
 574 571 l 1
 442 0 l 1
 279 0 l 1x70
 411 571 l 1
 164 568 l 1
EndSplineSet
EndChar

StartChar: tcommaaccent
Encoding: 432 355 274
Width: 404
Flags: MW
HStem: -201 155 -11 21G<156 185.5> 384 88<103 190 123 167 332 443>
VStem: 100 153
LayerCount: 2
Fore
SplineSet
103 384 m 1
 123 472 l 1
 190 472 l 1
 220 602 l 1
 362 602 l 1
 332 472 l 1
 463 472 l 1
 443 384 l 1
 312 384 l 1
 258 153 l 2
 246 102 255 83 281 83 c 0
 315 83 349 106 379 126 c 1
 380 96 380 66 381 36 c 1
 328 13 269 -4 213 -9 c 0
 202 -10 191 -11 180 -11 c 0
 132 -11 108 14 102 45 c 0
 100 55 99 67 100 78 c 0
 101 101 107 124 111 142 c 2
 167 384 l 1
 103 384 l 1
50 -201 m 1
 181 -49 l 1
 276 -43 l 1
 173 -201 l 1
 50 -201 l 1
EndSplineSet
EndChar

StartChar: Tcaron
Encoding: 433 356 275
Width: 733
Flags: MW
HStem: 0 21G<279 442 279 279> 569 119 708 189<462 468 374 586 462 462>
VStem: 164 683<568 689>
LayerCount: 2
Fore
SplineSet
374 897 m 1
 468 897 l 1
 546 801 l 1
 668 897 l 1
 761 897 l 1
 586 708 l 1
 462 708 l 1
 374 897 l 1
164 568 m 1xd0
 192 689 l 1
 847 689 l 1
 819 568 l 1
 574 571 l 1
 442 0 l 1
 279 0 l 1
 411 571 l 1
 164 568 l 1xd0
EndSplineSet
EndChar

StartChar: tcaron
Encoding: 434 357 276
Width: 404
Flags: MW
HStem: -11 21G<155 216.5> -11 94<155 306> 384 88<103 190 123 167 332 444> 511 91<220 383 220 466> 582 146<406 585 406 585>
VStem: 101 152
LayerCount: 2
Fore
SplineSet
103 384 m 1xb4
 123 472 l 1
 190 472 l 1
 220 602 l 1
 362 602 l 1
 332 472 l 1
 464 472 l 1
 444 384 l 1
 312 384 l 1
 259 158 l 2
 245 103 256 83 282 83 c 0
 330 83 357 118 380 118 c 1x74
 381 91 381 63 382 36 c 1
 317 9 253 -11 180 -11 c 0
 130 -11 108 14 102 45 c 0
 100 56 99 68 100 79 c 0
 101 102 107 125 111 144 c 2
 167 384 l 1
 103 384 l 1xb4
383 511 m 1
 436 582 l 1
 406 582 l 1xb4
 440 728 l 1
 585 728 l 1
 579 704 574 681 569 658 c 2xac
 558 611 l 2
 549 576 525 563 501 542 c 2
 466 511 l 1
 383 511 l 1
EndSplineSet
EndChar

StartChar: Utilde
Encoding: 435 360 277
Width: 764
Flags: MW
HStem: -21 103<398 398 398 464 398 491.5> 675 20G<244 407 407 407 675 827 827 827> 790 10 790 149<382 557.5 382 557.5 522.5 663.5>
VStem: 129 162
LayerCount: 2
Fore
SplineSet
382 790 m 2xe8
 380 793 377 797 375 800 c 0xe8
 393 873 448 929 509 938 c 0
 514 939 520 939 525 939 c 0
 590 939 605 888 647 880 c 0
 654 879 658 880 661 881 c 1
 660 881 660 881 659 881 c 1
 674 891 682 899 693 939 c 1
 783 939 l 1
 761 850 696 790 631 790 c 0
 585 790 564 812 543 829 c 0
 530 839 517 847 499 847 c 1
 500 848 502 848 503 849 c 2
 503 849 495 846 493 845 c 2
 493 845 494 845 494 845 c 1xd8
 480 837 472 828 461 790 c 1
 382 790 l 2xe8
141 249 m 2
 244 695 l 1
 407 695 l 1
 301 233 l 2
 296 212 292 192 291 174 c 0
 287 120 307 82 398 82 c 1
 398 82 398 82 398 82 c 1
 530 82 553 166 569 235 c 2
 675 695 l 1
 827 695 l 1
 724 245 l 2
 690 100 608 -21 375 -21 c 0
 124 -21 109 108 141 249 c 2
EndSplineSet
EndChar

StartChar: utilde
Encoding: 436 361 278
Width: 561
Flags: MW
HStem: -11 78<156.5 289> 0 67<252.5 495 252.5 348> 452 20G<162 312 312 312 454 604 604 604> 566 10<207 294 207 214> 566 90 566 147<214 389.5 214 389.5 352.5 492.5> 657 56
VStem: 75 535
LayerCount: 2
Fore
SplineSet
207 576 m 1x71
 225 649 280 703 339 712 c 0
 344 713 350 713 355 713 c 0x65
 424 713 429 661 477 656 c 0x69
 483 655 487 656 490 657 c 2
 490 657 489 657 489 657 c 1x63
 502 667 511 675 522 713 c 1
 610 713 l 1
 588 627 525 566 460 566 c 0
 390 566 377 622 330 625 c 1
 314 613 304 608 294 566 c 1x65
 214 566 l 1
 207 576 l 1x71
84 134 m 2
 162 472 l 1
 312 472 l 1
 232 125 l 1
 232 125 232 125 232 125 c 1
 229 111 226 100 226 91 c 0
 226 74 236 67 269 67 c 0
 309 67 366 95 386 177 c 2
 454 472 l 1
 604 472 l 1
 495 0 l 1
 348 0 l 1x65
 361 55 l 1
 325 22 273 -11 200 -11 c 0
 113 -11 79 16 75 59 c 0xa5
 73 82 78 107 84 134 c 2
EndSplineSet
EndChar

StartChar: Umacron
Encoding: 437 362 279
Width: 764
Flags: MW
HStem: -21 103<398 398 398 464 398 491.5> 675 20G<244 407 407 407 675 827 827 827> 745 101<244.5 844 293 300 300 823>
VStem: 129 162
LayerCount: 2
Fore
SplineSet
271 745 m 0
 218 745 220 779 224 796 c 0
 228 815 246 846 293 846 c 2
 844 846 l 1
 844 846 844 846 844 846 c 1
 844 846 844 846 844 846 c 1
 880 846 893 833 896 818 c 0
 898 811 897 803 895 796 c 0
 891 777 876 745 823 745 c 2
 300 745 l 2
 290 745 281 745 271 745 c 0
141 249 m 2
 244 695 l 1
 407 695 l 1
 301 233 l 2
 296 212 292 192 291 174 c 0
 287 120 307 82 398 82 c 1
 398 82 398 82 398 82 c 1
 530 82 553 166 569 235 c 2
 675 695 l 1
 827 695 l 1
 724 245 l 2
 690 100 608 -21 375 -21 c 0
 124 -21 109 108 141 249 c 2
EndSplineSet
EndChar

StartChar: umacron
Encoding: 438 363 280
Width: 561
Flags: MW
HStem: -11 78<156.5 289> 0 67<252.5 495 252.5 348> 452 20G<162 312 312 312 454 604 604 604> 556 101<202 626 226 602>
VStem: 75 551
LayerCount: 2
Fore
SplineSet
202 556 m 1x78
 226 657 l 1
 626 657 l 1
 602 556 l 1
 202 556 l 1x78
84 134 m 2
 162 472 l 1
 312 472 l 1
 232 125 l 1
 232 125 232 125 232 125 c 1
 229 111 226 100 226 91 c 0
 226 74 236 67 269 67 c 0
 309 67 366 95 386 177 c 2
 454 472 l 1
 604 472 l 1
 495 0 l 1
 348 0 l 1x78
 361 55 l 1
 325 22 273 -11 200 -11 c 0
 113 -11 79 16 75 59 c 0xb8
 73 82 78 107 84 134 c 2
EndSplineSet
EndChar

StartChar: Ubreve
Encoding: 439 364 281
Width: 764
Flags: MW
HStem: -21 103<398 398 398 464 398 491.5> 675 20G<244 407 407 407 675 827 827 827> 745 111<559 593.5 559 596.5>
VStem: 129 162
LayerCount: 2
Fore
SplineSet
395 923 m 1
 485 923 l 1
 476 863 543 856 575 856 c 0
 612 856 675 869 693 923 c 1
 782 923 l 1
 753 811 645 745 548 745 c 0
 452 745 373 811 395 923 c 1
141 249 m 2
 244 695 l 1
 407 695 l 1
 301 233 l 2
 296 212 292 192 291 174 c 0
 287 120 307 82 398 82 c 1
 398 82 398 82 398 82 c 1
 530 82 553 166 569 235 c 2
 675 695 l 1
 827 695 l 1
 724 245 l 2
 690 100 608 -21 375 -21 c 0
 124 -21 109 108 141 249 c 2
EndSplineSet
EndChar

StartChar: ubreve
Encoding: 440 365 282
Width: 561
Flags: MW
HStem: -11 78<156.5 289> 0 67<252.5 495 252.5 348> 452 20G<162 312 312 312 454 604 604 604> 517 109<403 436 403 440.5> 517 176<243 440.5>
VStem: 75 550
LayerCount: 2
Fore
SplineSet
243 693 m 1x6c
 332 693 l 1xac
 324 635 386 626 420 626 c 0x74
 452 626 518 637 537 693 c 1
 625 693 l 1
 597 582 488 517 393 517 c 0
 298 517 221 581 243 693 c 1x6c
84 134 m 2
 162 472 l 1
 312 472 l 1
 232 125 l 1
 232 125 232 125 232 125 c 1
 229 111 226 100 226 91 c 0
 226 74 236 67 269 67 c 0
 309 67 366 95 386 177 c 2
 454 472 l 1
 604 472 l 1
 495 0 l 1
 348 0 l 1x6c
 361 55 l 1
 325 22 273 -11 200 -11 c 0
 113 -11 79 16 75 59 c 0
 73 82 78 107 84 134 c 2
EndSplineSet
EndChar

StartChar: Uring
Encoding: 441 366 283
Width: 764
Flags: MW
HStem: -21 103<398 398 398 464 398 491.5> 638 57 638 90<533 558 533 575.5> 807 90<547.5 580.5>
VStem: 129 162 422 82
LayerCount: 2
Fore
SplineSet
427 769 m 0xdc
 429 777 431 785 434 793 c 0
 453 849 498 897 587 897 c 0
 662 897 705 861 684 767 c 0
 668 700 626 638 525 638 c 0
 449 638 406 673 427 769 c 0xdc
506 768 m 0
 505 763 504 758 504 754 c 0
 504 728 521 728 545 728 c 0xbc
 571 728 597 730 605 767 c 0
 614 803 596 807 565 807 c 0
 530 807 514 802 506 768 c 0
141 249 m 2
 244 695 l 1
 407 695 l 1
 301 233 l 2
 296 212 292 192 291 174 c 0
 287 120 307 82 398 82 c 1
 398 82 398 82 398 82 c 1
 530 82 553 166 569 235 c 2
 675 695 l 1
 827 695 l 1
 724 245 l 2
 690 100 608 -21 375 -21 c 0
 124 -21 109 108 141 249 c 2
EndSplineSet
EndChar

StartChar: uring
Encoding: 442 367 284
Width: 561
Flags: MW
HStem: -11 78<156.5 289> 0 67<252.5 495 252.5 348> 452 20G<162 312 312 312 454 604 604 604> 485 53<385 416.5 385 419> 619 53<400 432.5>
VStem: 278 78
LayerCount: 2
Fore
SplineSet
84 134 m 2x6c
 162 472 l 1x7c
 312 472 l 1
 232 125 l 1
 232 125 232 125 232 125 c 1
 229 111 226 100 226 91 c 0
 226 74 236 67 269 67 c 0
 309 67 366 95 386 177 c 2
 454 472 l 1
 604 472 l 1
 495 0 l 1
 348 0 l 1x6c
 361 55 l 1
 325 22 273 -11 200 -11 c 0
 113 -11 79 16 75 59 c 0xac
 73 82 78 107 84 134 c 2x6c
281 578 m 0
 297 651 359 672 430 672 c 0
 538 672 544 619 535 579 c 0
 517 505 453 485 385 485 c 0
 275 485 272 541 281 578 c 0
358 578 m 0
 357 573 356 568 356 564 c 0
 356 544 372 538 398 538 c 0
 435 538 448 549 455 578 c 0
 463 612 448 619 417 619 c 0
 383 619 365 610 358 578 c 0
EndSplineSet
EndChar

StartChar: Uhungarumlaut
Encoding: 443 368 285
Width: 764
Flags: MW
HStem: -21 103<398 398 398 464 398 491.5> 675 20G<244 407 407 407 675 827 827 827> 742 115
VStem: 129 162
LayerCount: 2
Fore
SplineSet
519 743 m 1
 719 858 l 1
 773 858 828 858 882 858 c 1
 632 742 l 1
 594 742 557 743 519 743 c 1
294 743 m 1
 531 858 l 1
 578 858 624 858 671 858 c 1
 358 743 l 1
 294 743 l 1
141 249 m 2
 244 695 l 1
 407 695 l 1
 301 233 l 2
 296 212 292 192 291 174 c 0
 287 120 307 82 398 82 c 1
 398 82 398 82 398 82 c 1
 530 82 553 166 569 235 c 2
 675 695 l 1
 827 695 l 1
 724 245 l 2
 690 100 607 -21 376 -21 c 0
 124 -21 109 107 141 249 c 2
EndSplineSet
EndChar

StartChar: uhungarumlaut
Encoding: 444 369 286
Width: 561
Flags: MW
HStem: -11 78<157.5 290> 0 67<253.5 496 253.5 349> 452 20G<162 313 313 313 455 605 605 605> 520 153<224 529 224 529 400 400 400 461>
VStem: 75 629
LayerCount: 2
Fore
SplineSet
400 520 m 1x78
 543 673 l 1
 704 673 l 1
 641 627 598 596 568 575 c 2
 512 535 l 2
 485 516 482 520 461 520 c 2
 400 520 l 1x78
224 520 m 1
 367 673 l 1
 529 673 l 1
 465 627 423 596 393 575 c 2
 336 535 l 2
 309 516 306 520 285 520 c 2
 224 520 l 1
84 134 m 2
 162 472 l 1
 313 472 l 1
 233 125 l 1
 233 125 233 125 233 125 c 1
 230 111 227 100 227 91 c 0
 227 74 237 67 270 67 c 0
 310 67 367 95 387 177 c 2
 455 472 l 1
 605 472 l 1
 496 0 l 1
 349 0 l 1x78
 362 55 l 1
 326 22 274 -11 201 -11 c 0
 114 -11 79 15 75 59 c 0xb8
 73 82 78 107 84 134 c 2
EndSplineSet
EndChar

StartChar: Wcircumflex
Encoding: 445 372 287
Width: 1039
Flags: MW
HStem: 0 21G<197 371 197 197 647 827 647 647> 518 177 675 20G<169 318 318 318 588 763 763 763 1038 1174 1174 1174> 744 167<494 779 778 778 778 779 663 873>
VStem: 183 152 629 141 640 142
LayerCount: 2
Fore
SplineSet
494 744 m 1xbc
 663 911 l 1
 779 911 l 1
 873 744 l 1
 778 744 l 1
 703 828 l 1
 589 744 l 1
 494 744 l 1xbc
169 695 m 1
 318 695 l 1
 323 664 335 210 335 181 c 1
 339 191 345 204 354 223 c 1
 354 223 354 222 354 222 c 1
 370 256 386 290 404 324 c 2
 435 386 l 1
 588 695 l 1
 763 695 l 1xbc
 778 282 l 2
 780 235 781 225 782 176 c 1
 790 193 798 209 806 226 c 2
 1038 695 l 1
 1174 695 l 1
 827 0 l 1
 647 0 l 1xba
 642 125 638 250 633 375 c 0
 629 456 627 469 629 518 c 1xdc
 612 483 591 441 572 403 c 2
 371 0 l 1
 197 0 l 1
 169 695 l 1
EndSplineSet
EndChar

